<?xml version="1.0" encoding="UTF-8"?>
<svg width="225px" height="73px" viewBox="0 0 225 73" version="1.1" xmlns="http://www.w3.org/2000/svg" xmlns:xlink="http://www.w3.org/1999/xlink">
    <!-- Generator: Sketch 50.1 (55044) - http://www.bohemiancoding.com/sketch -->
    <title>Group 2 Copy</title>
    <desc>Created with Sketch.</desc>
    <defs></defs>
    <g id="Page-1" stroke="none" stroke-width="1" fill="none" fill-rule="evenodd">
        <g id="Group-2-Copy" transform="translate(0.000000, 0.037928)" fill="#000000">
            <path d="M12.6573098,61.6457416 C11.3421254,60.8175694 10.9506716,59.0706961 11.7763291,57.7613794 C12.6053395,56.4503862 14.3379628,56.061447 15.6464414,56.8971633 C16.9557581,57.7337178 17.3530796,59.4738852 16.5207162,60.7899078 C16.4125844,60.9650981 16.2818204,61.131906 16.1401594,61.2735671 C15.2340317,62.1838859 13.7847304,62.3682967 12.6573098,61.6457416 Z" id="Fill-1"></path>
            <path d="M4.57869141,49.5290294 C3.26434529,48.6991808 2.87289144,46.9523075 3.69938715,45.643829 C4.5267211,44.333674 6.25850623,43.9438967 7.56698473,44.7804511 C8.87630147,45.6170056 9.27362294,47.3571731 8.44209784,48.6731957 C8.33396605,48.8483859 8.20487848,49.0135174 8.06154099,49.1560167 C7.15373688,50.0671737 5.70611204,50.2515845 4.57869141,49.5290294" id="Fill-3"></path>
            <path d="M2.15645545,35.7972977 C0.842109328,34.9657726 0.448979014,33.2205758 1.2746365,31.9095826 C2.1036469,30.6002659 3.8345938,30.2113267 5.14391054,31.047043 C6.45322728,31.8835975 6.85138698,33.6229267 6.01818542,34.9397875 C5.91005362,35.115816 5.78096606,35.2801093 5.6384668,35.4234467 C4.73066268,36.3337655 3.28387607,36.5181764 2.15645545,35.7972977" id="Fill-5"></path>
            <path d="M4.57869141,21.2543261 C3.26434529,20.4253157 2.87289144,18.6784424 3.69938715,17.3674492 C4.5267211,16.0589707 6.25850623,15.6691933 7.56698473,16.5057478 C8.87630147,17.3414641 9.27362294,19.0824698 8.44209784,20.3984923 C8.33396605,20.5736826 8.20487848,20.7388141 8.06154099,20.8813134 C7.15373688,21.7933086 5.70611204,21.9752047 4.57869141,21.2543261" id="Fill-7"></path>
            <path d="M12.6573098,9.9455848 C11.3421254,9.11573616 10.9506716,7.36886287 11.7763291,6.05786967 C12.6053395,4.7502294 14.3379628,4.35961378 15.6464414,5.19533003 C16.9557581,6.03188451 17.3530796,7.77289019 16.5207162,9.089751 C16.4125844,9.26410304 16.2818204,9.42923453 16.1401594,9.5717338 C15.2340317,10.4820526 13.7847304,10.6664634 12.6573098,9.9455848" id="Fill-9"></path>
            <path d="M63.5520105,9.9455848 C62.2359879,9.11573616 61.8462105,7.36886287 62.6710298,6.05786967 C63.5000402,4.7502294 65.2318253,4.35961378 66.5403038,5.19533003 C67.8496205,6.03188451 68.2452655,7.77289019 67.4137404,9.089751 C67.3064469,9.26410304 67.1773593,9.42923453 67.0348601,9.5717338 C66.1270559,10.4820526 64.6777546,10.6664634 63.5520105,9.9455848" id="Fill-11"></path>
            <path d="M71.6314671,22.0622969 C70.3154445,21.2324483 69.9239907,19.485575 70.7496481,18.1762583 C71.5769821,16.8669415 73.3112819,16.4763259 74.618084,17.3137186 C75.9274007,18.1485967 76.3255604,19.8887641 75.4915206,21.2047867 C75.3850653,21.3816534 75.2543012,21.5476231 75.1134784,21.6901224 C74.2056743,22.6004412 72.7588877,22.784852 71.6314671,22.0622969" id="Fill-13"></path>
            <path d="M74.0536192,35.7972977 C72.7375966,34.9657726 72.3461428,33.2205758 73.174315,31.9095826 C74.0016489,30.6002659 75.733434,30.2113267 77.0419126,31.047043 C78.3495528,31.8835975 78.7485508,33.6229267 77.9153492,34.9397875 C77.8080556,35.115816 77.6781298,35.2801093 77.537307,35.4234467 C76.6286647,36.3337655 75.1810399,36.5181764 74.0536192,35.7972977" id="Fill-15"></path>
            <path d="M71.6314671,49.5290294 C70.3154445,48.6991808 69.9239907,46.9523075 70.7496481,45.643829 C71.5769821,44.333674 73.3112819,43.9438967 74.618084,44.7804511 C75.9274007,45.6170056 76.3255604,47.3571731 75.4915206,48.6731957 C75.3850653,48.8483859 75.2543012,49.0135174 75.1134784,49.1560167 C74.2056743,50.0671737 72.7588877,50.2515845 71.6314671,49.5290294" id="Fill-17"></path>
            <path d="M64.3583048,61.6457416 C63.0447969,60.8175694 62.6541813,59.0706961 63.4798388,57.7613794 C64.3063345,56.4503862 66.0397961,56.061447 67.3482746,56.8971633 C68.6575913,57.7337178 69.0549128,59.4738852 68.2217113,60.7899078 C68.1127412,60.9650981 67.9836537,61.131906 67.8419926,61.2735671 C66.9350268,62.1838859 65.4874019,62.3682967 64.3583048,61.6457416" id="Fill-19"></path>
            <path d="M52.2432691,69.7260364 C50.9272466,68.8953496 50.5341162,67.1493145 51.3614502,65.8374831 C52.1887841,64.5290046 53.9214075,64.1392272 55.229886,64.9757817 C56.5392027,65.8131744 56.9365242,67.5525036 56.1049991,68.8693644 C55.9968673,69.0453929 55.8661033,69.2105244 55.7252805,69.3513472 C54.8174764,70.2633425 53.3690133,70.4469151 52.2432691,69.7260364" id="Fill-21"></path>
            <path d="M37.7002975,72.1490268 C36.3859514,71.3200164 35.9944976,69.5723049 36.8209933,68.2621499 C37.6483272,66.9519949 39.3801123,66.5630558 40.6885909,67.4004485 C41.9979076,68.2353265 42.3969055,69.975494 41.563704,71.2915166 C41.4555722,71.4683833 41.3248081,71.6335148 41.1823089,71.7768523 C40.275343,72.6854946 38.8293946,72.8715819 37.7002975,72.1490268" id="Fill-23"></path>
            <path d="M23.9668894,69.7260364 C22.6525432,68.8953496 22.2610894,67.1493145 23.0875851,65.8374831 C23.914919,64.5290046 25.6467042,64.1392272 26.9568591,64.9757817 C28.2644994,65.8131744 28.6618209,67.5525036 27.8302958,68.8693644 C27.7213258,69.0453929 27.5914,69.2105244 27.4497389,69.3513472 C26.5436113,70.2633425 25.09431,70.4469151 23.9668894,69.7260364" id="Fill-25"></path>
            <path d="M19.8305549,54.2735842 C18.817972,53.6331758 18.5162088,52.2894916 19.1515879,51.2794233 C19.7886434,50.269355 21.1247835,49.9701066 22.1314989,50.6138679 C23.1398907,51.2584675 23.445845,52.599637 22.8062748,53.61222 C22.7224517,53.7488517 22.6227022,53.8762628 22.5145704,53.9843946 C21.8154858,54.6868321 20.698124,54.8293314 19.8305549,54.2735842" id="Fill-27"></path>
            <path d="M13.9023342,45.3829715 C12.8897512,44.7417249 12.5888263,43.3980407 13.2258818,42.3888106 C13.8629374,41.3787423 15.1965628,41.0778174 16.2049546,41.7232552 C17.2125082,42.3661784 17.5193008,43.7073479 16.8788923,44.7216073 C16.794231,44.858239 16.696158,44.9839736 16.5871879,45.0954583 C15.8881033,45.7962194 14.7707415,45.9370422 13.9023342,45.3829715" id="Fill-29"></path>
            <path d="M12.1243626,35.3061782 C11.1117796,34.6649316 10.8116929,33.3204091 11.447072,32.3103408 C12.0832892,31.301949 13.4185911,31.0027006 14.426983,31.6464619 C15.4345366,32.2910615 15.7396526,33.6305546 15.0992442,34.644814 C15.0162593,34.7797692 14.9173481,34.9071803 14.8083781,35.018665 C14.1084552,35.7194261 12.9927698,35.8602489 12.1243626,35.3061782" id="Fill-31"></path>
            <path d="M13.9023342,24.6359174 C12.8897512,23.995509 12.5888263,22.6518248 13.2258818,21.6434329 C13.8629374,20.6333646 15.1965628,20.3307633 16.2049546,20.9762011 C17.2125082,21.6208007 17.5193008,22.9636467 16.8788923,23.9753914 C16.794231,24.1111848 16.696158,24.2402724 16.5871879,24.3484042 C15.8881033,25.0491653 14.7707415,25.193341 13.9023342,24.6359174" id="Fill-33"></path>
            <path d="M19.8305549,16.3386884 C18.817972,15.6966035 18.5162088,14.3529193 19.1515879,13.3445275 C19.7886434,12.3344592 21.1247835,12.032696 22.1314989,12.6772956 C23.1398907,13.3218952 23.445845,14.6647412 22.8062748,15.6773242 C22.7224517,15.8139558 22.6227022,15.9413669 22.5145704,16.0494987 C21.8154858,16.7519363 20.698124,16.8944355 19.8305549,16.3386884" id="Fill-35"></path>
            <path d="M57.1735759,16.3386884 C56.1593165,15.6966035 55.8592298,14.3529193 56.4946089,13.3445275 C57.1325026,12.3344592 58.466128,12.032696 59.4745199,12.6772956 C60.4829117,13.3218952 60.7905424,14.6647412 60.1492958,15.6773242 C60.0663109,15.8139558 59.9673997,15.9413669 59.8559149,16.0494987 C59.1576686,16.7519363 58.0411449,16.8944355 57.1735759,16.3386884" id="Fill-37"></path>
            <path d="M63.1009584,25.2285467 C62.0883754,24.5873 61.7849358,23.2436158 62.4236678,22.2335475 C63.0590469,21.2259939 64.3935105,20.925069 65.4035788,21.5696686 C66.4119706,22.2125917 66.7162485,23.5545995 66.0766783,24.5688589 C65.9920169,24.7046523 65.8947821,24.830387 65.7824592,24.9418717 C65.0850511,25.6417945 63.9702039,25.7834556 63.1009584,25.2285467" id="Fill-39"></path>
            <path d="M64.8789301,35.3061782 C63.8655089,34.6649316 63.5645839,33.3204091 64.2008012,32.3103408 C64.8370185,31.301949 66.1723204,31.0027006 67.179874,31.6464619 C68.1899423,32.2910615 68.4958966,33.6305546 67.8554882,34.644814 C67.7716651,34.7797692 67.6727538,34.9071803 67.5621073,35.018665 C66.8613463,35.7194261 65.7473373,35.8602489 64.8789301,35.3061782" id="Fill-41"></path>
            <path d="M63.1009584,45.3829715 C62.0883754,44.7417249 61.7849358,43.3980407 62.4236678,42.3888106 C63.0590469,41.3787423 64.3935105,41.0778174 65.4035788,41.7232552 C66.4119706,42.3661784 66.7162485,43.7090243 66.0766783,44.7232838 C65.9920169,44.858239 65.8947821,44.9839736 65.7824592,45.0954583 C65.0850511,45.7962194 63.9702039,45.9370422 63.1009584,45.3829715" id="Fill-43"></path>
            <path d="M57.7654508,54.2735842 C56.7528678,53.6331758 56.4527811,52.2894916 57.0881602,51.2794233 C57.7260539,50.269355 59.0596794,49.9701066 60.0680712,50.6138679 C61.076463,51.2584675 61.3807409,52.599637 60.7411706,53.61222 C60.659024,53.7488517 60.5592745,53.8762628 60.4494663,53.9843946 C59.7495434,54.6868321 58.6346963,54.8293314 57.7654508,54.2735842" id="Fill-45"></path>
            <path d="M48.8747543,60.2009667 C47.8604948,59.5597201 47.5604081,58.2151976 48.1957872,57.2051293 C48.8336809,56.198414 50.1673064,55.8974891 51.1756982,56.5412504 C52.1857665,57.1841736 52.4917208,58.5270195 51.8504741,59.541279 C51.766651,59.6762342 51.668578,59.8019688 51.5570933,59.9134535 C50.8588469,60.6142146 49.7423233,60.7575521 48.8747543,60.2009667" id="Fill-47"></path>
            <path d="M38.2044934,61.9797766 C37.1935869,61.3376917 36.8918238,59.9931693 37.5272028,58.9847775 C38.1634201,57.9747092 39.498722,57.6737843 40.5071139,58.3192221 C41.5155057,58.9629834 41.82146,60.3049912 41.1802133,61.3175742 C41.0980667,61.4542058 40.9983172,61.5807787 40.8893472,61.6897487 C40.1894243,62.3930245 39.0720625,62.5338473 38.2044934,61.9797766" id="Fill-49"></path>
            <path d="M28.1302148,60.2009667 C27.1151171,59.5597201 26.8141922,58.2151976 27.4495713,57.2051293 C28.0883033,56.198414 29.4244434,55.8974891 30.4303205,56.5412504 C31.4387124,57.1841736 31.7463431,58.5270195 31.10342,59.541279 C31.0195969,59.6762342 30.9215239,59.8019688 30.8117156,59.9134535 C30.112631,60.6142146 28.9969456,60.7575521 28.1302148,60.2009667" id="Fill-51"></path>
            <path d="M103.543925,26.0160647 C102.323461,27.1216913 100.80291,28.002672 98.4776572,28.002672 C93.9411514,28.002672 92.2378661,23.7805027 92.2378661,19.807288 C92.2378661,15.8784996 94.1716649,11.9949756 98.5002895,11.9949756 C100.481867,11.9949756 101.863272,12.4920466 103.107207,13.2598661 L102.116418,14.7502408 C101.125629,14.0503179 99.9747377,13.6890404 98.6159653,13.6890404 C95.3460264,13.6890404 94.2638703,17.1207579 94.2638703,19.807288 C94.2638703,22.471186 95.2311888,26.3320777 98.6847003,26.3320777 C100.113046,26.3320777 101.402245,25.7218456 102.484401,24.7293802 L103.543925,26.0160647 Z" id="Fill-53"></path>
            <polygon id="Fill-55" points="108.033909 27.731169 109.992017 27.731169 109.992017 12.3789692 108.033909 12.3789692"></polygon>
            <path d="M115.564073,12.3792207 L117.49871,12.3792207 L117.49871,22.5838442 C117.49871,26.0834584 119.478612,26.4003097 121.274102,26.4003097 C123.899442,26.4003097 124.798863,24.9543613 124.798863,23.374296 L124.798863,12.3792207 L126.732662,12.3792207 L126.732662,23.2167086 C126.732662,26.1513551 124.476144,28.0030073 121.205367,28.0030073 C118.350353,28.0030073 115.564073,27.279614 115.564073,22.5167858 L115.564073,12.3792207 Z" id="Fill-57"></path>
            <path d="M136.058149,26.0831231 C138.200667,26.0831231 141.423665,26.0378587 141.423665,20.0554044 C141.423665,14.1182146 138.200667,14.0268474 136.058149,14.0268474 L134.239188,14.0268474 L134.239188,26.0831231 L136.058149,26.0831231 Z M132.304551,12.3788854 L136.864527,12.3788854 C137.900581,12.3788854 143.44967,12.3788854 143.44967,20.0554044 C143.44967,27.7319234 137.900581,27.7319234 136.864527,27.7319234 L132.304551,27.7319234 L132.304551,12.3788854 Z" id="Fill-58"></path>
            <path d="M154.226637,17.8433129 C153.696875,16.2624094 153.398465,15.2020472 153.144481,14.4342277 L153.098378,14.4342277 C152.868703,15.2020472 152.545984,16.2624094 151.99359,17.8433129 L150.68092,21.5910435 C151.441196,21.567573 152.338941,21.567573 153.075746,21.567573 C153.812551,21.567573 154.756399,21.567573 155.470572,21.5910435 L154.226637,17.8433129 Z M157.496576,27.7319234 L155.908128,23.1702706 L150.173791,23.1702706 L148.53924,27.7319234 L146.513236,27.7319234 C148.354829,22.6069794 150.358201,17.0528612 152.084957,12.3570914 L154.250108,12.3570914 C155.908128,17.0528612 157.841927,22.6069794 159.615624,27.7319234 L157.496576,27.7319234 Z" id="Fill-59"></path>
            <path d="M167.629363,26.0831231 C169.771043,26.0831231 172.994041,26.0378587 172.994041,20.0554044 C172.994041,14.1182146 169.771043,14.0268474 167.629363,14.0268474 L165.809564,14.0268474 L165.809564,26.0831231 L167.629363,26.0831231 Z M163.874927,12.3788854 L168.434903,12.3788854 C169.470957,12.3788854 175.020884,12.3788854 175.020884,20.0554044 C175.020884,27.7319234 169.470957,27.7319234 168.434903,27.7319234 L163.874927,27.7319234 L163.874927,12.3788854 Z" id="Fill-60"></path>
            <path d="M185.797851,17.8433129 C185.268089,16.2624094 184.968841,15.2020472 184.715695,14.4342277 L184.668754,14.4342277 C184.439079,15.2020472 184.11636,16.2624094 183.563966,17.8433129 L182.251296,21.5910435 C183.011572,21.567573 183.909317,21.567573 184.646122,21.567573 C185.382927,21.567573 186.327613,21.567573 187.040948,21.5910435 L185.797851,17.8433129 Z M189.066952,27.7319234 L187.478504,23.1702706 L181.744166,23.1702706 L180.109616,27.7319234 L178.083612,27.7319234 C179.925205,22.6069794 181.929415,17.0528612 183.655333,12.3570914 L185.820484,12.3570914 C187.478504,17.0528612 189.412303,22.6069794 191.186,27.7319234 L189.066952,27.7319234 Z" id="Fill-61"></path>
            <path d="M195.445638,12.3792207 L197.679523,12.3792207 L203.229451,21.6810695 C203.73658,22.5167858 204.334239,23.6450446 204.772634,24.7288772 L204.841369,24.7288772 C204.795266,22.9903862 204.772634,21.5679083 204.772634,20.0783719 L204.772634,12.3792207 L206.682962,12.3792207 L206.682962,27.7314205 L204.51865,27.7314205 L198.968723,18.4522039 C198.438961,17.5720614 197.95614,16.5787577 197.334172,15.2686028 L197.265437,15.2686028 C197.334172,16.9626675 197.334172,18.4522039 197.334172,19.9199463 L197.356805,27.7314205 L195.445638,27.7314205 L195.445638,12.3792207 Z" id="Fill-62"></path>
            <path d="M222.341954,19.8300041 C222.341954,17.1208417 221.259798,13.6438597 217.921124,13.6438597 C214.627715,13.6438597 213.522927,17.1208417 213.522927,19.8300041 C213.522927,22.4486376 214.53551,26.4000583 217.921124,26.4000583 C221.352004,26.4000583 222.341954,22.4486376 222.341954,19.8300041 M211.496922,19.8300041 C211.496922,15.8559512 213.476824,11.9950595 217.921124,11.9950595 C222.365425,11.9950595 224.391429,15.8559512 224.391429,19.8300041 C224.391429,23.7805866 222.618571,28.0027558 217.921124,28.0027558 C213.245472,28.0027558 211.496922,23.7805866 211.496922,19.8300041" id="Fill-63"></path>
            <polygon id="Fill-64" points="94.2517159 51.134577 96.2014411 51.134577 96.2014411 35.5401285 94.2517159 35.5401285"></polygon>
            <path d="M100.466109,35.5402961 L102.690774,35.5402961 L108.21723,44.9888354 C108.722683,45.8371251 109.318666,46.983825 109.754546,48.0852605 L109.823281,48.0852605 C109.777178,46.3191079 109.754546,44.8748359 109.754546,43.3601526 L109.754546,35.5402961 L111.658168,35.5402961 L111.658168,51.1347446 L109.5014,51.1347446 L103.974943,41.7088377 C103.447696,40.8152835 102.965713,39.8060534 102.346261,38.4757809 L102.277526,38.4757809 C102.346261,40.1958308 102.346261,41.7088377 102.346261,43.2000505 L102.369731,51.1347446 L100.466109,51.1347446 L100.466109,35.5402961 Z" id="Fill-65"></path>
            <path d="M119.316498,37.2372109 C116.977833,37.2833136 114.615699,37.2833136 114.386023,37.2833136 L114.386023,35.5406314 L126.150595,35.5406314 L126.150595,37.2833136 C125.921758,37.2833136 123.604887,37.2833136 121.243591,37.2372109 L121.243591,51.1350799 L119.316498,51.1350799 L119.316498,37.2372109 Z" id="Fill-66"></path>
            <path d="M128.924971,35.5402961 L138.028998,35.5402961 L138.028998,37.3056105 C137.800161,37.3056105 133.259464,37.3056105 130.851226,37.2829783 C130.851226,37.5126536 130.851226,41.0441205 130.828594,42.1916587 C133.029788,42.16735 136.975341,42.16735 137.204178,42.16735 L137.204178,43.8421354 C136.975341,43.8421354 133.029788,43.8421354 130.828594,43.8195032 C130.851226,46.2738434 130.851226,49.1632255 130.851226,49.3920625 C133.350831,49.3694303 138.028998,49.3694303 138.259511,49.3694303 L138.259511,51.1347446 L128.924971,51.1347446 L128.924971,35.5402961 Z" id="Fill-67"></path>
            <path d="M141.629451,35.5402961 L143.555706,35.5402961 C143.555706,35.7691332 143.533073,47.1900298 143.509603,49.415533 C146.010046,49.3694303 149.839923,49.3694303 150.06876,49.3694303 L150.06876,51.1347446 L141.629451,51.1347446 L141.629451,35.5402961 Z" id="Fill-68"></path>
            <polygon id="Fill-69" points="152.843221 51.134577 154.792108 51.134577 154.792108 35.5401285 152.843221 35.5401285"></polygon>
            <path d="M165.79984,51.3184849 C160.777999,51.3184849 158.140086,48.0166932 158.140086,43.1080128 C158.140086,38.6134184 160.387383,35.1506864 165.135123,35.1506864 C166.602866,35.1506864 168.116711,35.4943611 169.446983,36.1817105 L168.643958,37.7651287 C167.703463,37.214411 166.259191,36.8707363 164.906286,36.8707363 C161.442716,36.8707363 160.158546,39.6913834 160.158546,43.1080128 C160.158546,46.9152577 161.809861,49.6906404 165.914678,49.6906404 C166.648968,49.6906404 167.313685,49.6445377 167.887035,49.3695979 C167.887035,49.1851871 167.887035,46.9152577 167.933138,43.8196708 C166.052148,43.8649353 165.571003,43.8649353 165.341328,43.8649353 L165.341328,42.1675176 L169.81329,42.1675176 L169.81329,50.6755617 C168.872795,51.0661774 167.336318,51.3184849 165.79984,51.3184849" id="Fill-70"></path>
            <path d="M173.894804,35.5402961 L182.998831,35.5402961 L182.998831,37.3056105 C182.769993,37.3056105 178.229296,37.3056105 175.821059,37.2829783 C175.821059,37.5126536 175.821059,41.0441205 175.798427,42.1916587 C177.999621,42.16735 181.944336,42.16735 182.173173,42.16735 L182.173173,43.8421354 C181.944336,43.8421354 177.999621,43.8421354 175.798427,43.8195032 C175.821059,46.2738434 175.821059,49.1632255 175.821059,49.3920625 C178.320664,49.3694303 182.998831,49.3694303 183.228506,49.3694303 L183.228506,51.1347446 L173.894804,51.1347446 L173.894804,35.5402961 Z" id="Fill-71"></path>
            <path d="M186.5992,35.5402961 L188.823027,35.5402961 L194.350322,44.9888354 C194.854937,45.8371251 195.451757,46.983825 195.886799,48.0852605 L195.955534,48.0852605 C195.909431,46.3191079 195.886799,44.8748359 195.886799,43.3601526 L195.886799,35.5402961 L197.790421,35.5402961 L197.790421,51.1347446 L195.634491,51.1347446 L190.108035,41.7088377 C189.580788,40.8152835 189.097967,39.8060534 188.479352,38.4757809 L188.410617,38.4757809 C188.479352,40.1958308 188.479352,41.7088377 188.479352,43.2000505 L188.502823,51.1347446 L186.5992,51.1347446 L186.5992,35.5402961 Z" id="Fill-72"></path>
            <path d="M205.449589,37.2372109 C203.110086,37.2833136 200.74879,37.2833136 200.518276,37.2833136 L200.518276,35.5406314 L212.283686,35.5406314 L212.283686,37.2833136 C212.054011,37.2833136 209.737979,37.2833136 207.375844,37.2372109 L207.375844,51.1350799 L205.449589,51.1350799 L205.449589,37.2372109 Z" id="Fill-73"></path>
            <path d="M215.057308,35.5402961 L224.162173,35.5402961 L224.162173,37.3056105 C223.933336,37.3056105 219.392639,37.3056105 216.984401,37.2829783 C216.984401,37.5126536 216.984401,41.0441205 216.960931,42.1916587 C219.162125,42.16735 223.107678,42.16735 223.336515,42.16735 L223.336515,43.8421354 C223.107678,43.8421354 219.162125,43.8421354 216.960931,43.8195032 C216.984401,46.2738434 216.984401,49.1632255 216.984401,49.3920625 C219.484006,49.3694303 224.162173,49.3694303 224.391848,49.3694303 L224.391848,51.1347446 L215.057308,51.1347446 L215.057308,35.5402961 Z" id="Fill-74"></path>
            <path d="M29.8967027,36.1239563 C30.3937737,36.1239563 30.8615065,36.4282342 31.0417262,36.921114 C31.2361958,37.4424936 31.4742534,37.9462704 31.7600901,38.416518 C33.3837435,41.1365774 36.2479786,42.757716 39.4097857,42.757716 C40.0862381,42.757716 40.6319264,43.3017279 40.6319264,43.9739891 C40.6310882,44.6470886 40.0862381,45.1919387 39.4097857,45.1919387 C35.4432769,45.1919387 31.7081198,43.0762438 29.6670274,39.6721879 C29.3099411,39.0720146 28.9989574,38.4290914 28.7600616,37.7626978 C28.5253569,37.1340246 28.8472376,36.4332636 29.4784255,36.2002354 C29.6142189,36.1491033 29.7567182,36.1239563 29.8967027,36.1239563" id="Fill-75"></path>
            <path d="M30.4247044,33.8286285 C30.4247044,34.5101103 29.8739867,35.0616663 29.1933431,35.0616663 C28.5126996,35.0616663 27.9619819,34.5101103 27.9619819,33.8286285 C27.9619819,33.1496615 28.5126996,32.5972673 29.1933431,32.5972673 C29.8739867,32.5972673 30.4247044,33.1496615 30.4247044,33.8286285" id="Fill-76"></path>
            <path d="M52.7368195,25.1646735 L52.1114992,24.2342371 L52.0922199,24.2342371 C51.4870172,23.3532564 50.8541528,22.5611282 50.2397295,21.7907939 L48.626135,23.0791549 C49.2883374,23.9090035 49.976525,24.7707049 50.6010071,25.7137148 L50.9983285,26.2988 L51.010902,26.2988 C52.4652327,28.5100532 53.2271846,31.1018633 53.2271846,33.8437167 C53.2246699,41.4230009 47.061996,47.5907042 39.4818736,47.6083071 C31.9059423,47.5907042 25.7457831,41.4230009 25.749136,33.8437167 C25.749136,31.1018633 26.5169555,28.5100532 27.970448,26.2988 L27.9914038,26.2988 L28.3778282,25.7137148 C29.0081779,24.7665138 29.6997184,23.9006212 30.3711414,23.0640667 C32.082809,20.9156808 33.7031094,18.8854855 33.7031094,16.1696172 L33.7031094,15.2718719 C33.7349622,13.5417632 34.4181204,12.8988401 36.2236699,12.8988401 L39.6662844,12.8988401 L42.7652242,12.8988401 C44.5724501,12.8988401 45.2547701,13.5417632 45.2824317,15.2475632 L45.2824317,16.1662643 C45.2824317,18.8854855 46.9027321,20.9156808 48.6160762,23.0665814 L48.626135,23.0791549 L50.2246414,21.7715146 C48.6177527,19.7538927 47.3478328,18.1604157 47.3478328,16.1662643 L47.3478328,15.2140339 C47.3017301,12.3900339 45.6738856,10.8342772 42.7652242,10.8342772 L36.2236699,10.8342772 C32.5010863,10.8342772 31.6754288,13.2274266 31.6385466,15.2333132 L31.6377084,16.1696172 C31.6377084,18.1604157 30.3057594,19.8326864 28.761738,21.7698382 C28.0878003,22.6089073 27.4742153,23.3825945 26.8866154,24.2342371 L26.8572773,24.2342371 L26.2453687,25.1646735 C24.5689068,27.7128956 23.6837349,30.7146006 23.6837349,33.8437167 C23.680382,42.5512598 30.76511,49.6527523 39.4776824,49.6728699 L39.4818736,49.6728699 L39.486903,49.6728699 C48.1986372,49.6527523 55.2892328,42.552098 55.2925857,33.8437167 C55.2925857,30.708733 54.408252,27.7070279 52.7368195,25.1646735" id="Fill-77"></path>
            <path d="M44.9398467,5.14537146 L34.2649756,5.14704793 C33.7511401,5.14704793 33.3311864,5.68686865 33.3311864,6.34990933 C33.3311864,7.01630293 33.7511401,7.55780013 34.2649756,7.55780013 L44.9390085,7.55696189 C45.4545205,7.55696189 45.8744742,7.01462647 45.8744742,6.34990933 C45.8744742,5.68603042 45.4545205,5.14537146 44.9398467,5.14537146" id="Fill-78"></path>
            <path d="M44.9398467,0.18723542 L34.2649756,0.188911882 C33.7511401,0.188911882 33.3311864,0.728732611 33.3311864,1.39177329 C33.3311864,2.05816689 33.7511401,2.60050231 34.2649756,2.60050231 L44.9390085,2.59882585 C45.4545205,2.59882585 45.8744742,2.05732866 45.8744742,1.39177329 C45.8744742,0.72789438 45.4545205,0.18723542 44.9398467,0.18723542" id="Fill-79"></path>
        </g>
    </g>
</svg>