<?xml version="1.0" encoding="utf-8"?>
<!-- Generator: Adobe Illustrator 22.1.0, SVG Export Plug-In . SVG Version: 6.00 Build 0)  -->
<svg version="1.1" id="Layer_1" xmlns="http://www.w3.org/2000/svg" xmlns:xlink="http://www.w3.org/1999/xlink" x="0px" y="0px"
	 viewBox="0 0 139 68.7" style="enable-background:new 0 0 139 68.7;" xml:space="preserve">
<style type="text/css">
	.st0{fill:#FFFFFF;}
</style>
<title>Artboard 11</title>
<desc>Created with Sketch.</desc>
<g id="logo-fci">
	<g id="logo-ci" transform="translate(52.000000, 35.000000)">
		<path id="Ciudadanía-Inteligen" class="st0" d="M3.9-20.2c1.2,0,2.2,0.3,3.1,1c0.8,0.6,1.3,1.5,1.5,2.6H6
			c-0.2-0.5-0.5-0.8-0.8-1.1C4.8-17.9,4.3-18,3.9-18c-0.7,0-1.2,0.2-1.7,0.8c-0.4,0.5-0.6,1.2-0.6,2c0,0.8,0.2,1.5,0.6,2
			s1,0.8,1.7,0.8c0.5,0,1-0.2,1.3-0.4C5.6-13.1,5.9-13.5,6-14h2.5c-0.2,1.1-0.8,2-1.5,2.6c-0.8,0.6-1.8,1-3.1,1
			c-0.9,0-1.8-0.2-2.5-0.6c-0.7-0.4-1.2-1-1.7-1.8c-0.4-0.8-0.6-1.6-0.6-2.5s0.2-1.8,0.6-2.5c0.4-0.8,0.9-1.3,1.7-1.8
			C2.1-20,3-20.2,3.9-20.2z M9.8-20.2c0-0.4,0.2-0.6,0.4-0.9c0.2-0.2,0.6-0.4,1-0.4c0.4,0,0.8,0.2,1,0.4c0.2,0.2,0.4,0.5,0.4,0.9
			s-0.2,0.6-0.4,0.8c-0.2,0.2-0.6,0.4-1,0.4c-0.4,0-0.8-0.2-1-0.4C9.9-19.6,9.8-19.9,9.8-20.2z M12.4-18v7.7H10V-18H12.4z M21.8-18
			v7.7h-2.4v-1.5c-0.2,0.5-0.5,0.8-1,1.1s-0.9,0.4-1.5,0.4c-0.8,0-1.6-0.3-2.1-0.8c-0.5-0.6-0.8-1.4-0.8-2.4V-18h2.3v4.1
			c0,0.5,0.2,0.9,0.4,1.2c0.3,0.3,0.6,0.4,1.1,0.4c0.5,0,0.8-0.2,1.2-0.5c0.3-0.3,0.4-0.7,0.4-1.3v-4.1L21.8-18L21.8-18z M26.5-18.1
			c0.6,0,1.1,0.2,1.5,0.4c0.5,0.2,0.7,0.6,0.9,1.1v-3.9h2.4v10.1H29v-1.4c-0.2,0.5-0.5,0.8-0.9,1.1s-0.9,0.5-1.5,0.5
			c-0.6,0-1.2-0.2-1.7-0.5c-0.5-0.3-0.9-0.8-1.2-1.4c-0.3-0.6-0.4-1.3-0.4-2.1s0.2-1.5,0.4-2.1c0.3-0.6,0.7-1.1,1.2-1.4
			C25.4-17.9,25.9-18.1,26.5-18.1z M27.3-16.1c-0.5,0-0.9,0.2-1.2,0.5c-0.3,0.3-0.5,0.8-0.5,1.4c0,0.6,0.2,1.1,0.5,1.4
			c0.3,0.3,0.7,0.5,1.2,0.5s0.9-0.2,1.2-0.5c0.3-0.3,0.5-0.8,0.5-1.4c0-0.5-0.2-1.1-0.5-1.4C28.2-15.9,27.7-16.1,27.3-16.1z
			 M36-18.1c0.6,0,1.1,0.2,1.5,0.4c0.4,0.3,0.7,0.6,0.9,1.1V-18h2.3v7.7h-2.3v-1.5c-0.2,0.5-0.5,0.8-0.9,1.1s-0.9,0.5-1.5,0.5
			c-0.6,0-1.2-0.2-1.7-0.5c-0.5-0.3-0.9-0.8-1.2-1.4c-0.3-0.6-0.4-1.3-0.4-2.1s0.2-1.5,0.4-2.1c0.3-0.6,0.7-1.1,1.2-1.4
			C34.8-17.9,35.4-18.1,36-18.1z M36.8-16.1c-0.5,0-0.9,0.2-1.2,0.5c-0.3,0.3-0.5,0.8-0.5,1.4c0,0.6,0.2,1.1,0.5,1.4
			c0.3,0.3,0.7,0.5,1.2,0.5s0.8-0.2,1.2-0.5c0.3-0.4,0.5-0.8,0.5-1.4c0-0.5-0.2-1.1-0.5-1.4C37.7-15.9,37.2-16.1,36.8-16.1z
			 M45.4-18.1c0.6,0,1.1,0.2,1.5,0.4c0.4,0.3,0.7,0.6,0.9,1.1v-3.9h2.4v10.1h-2.4v-1.4c-0.2,0.5-0.5,0.8-0.9,1.1
			c-0.4,0.3-0.9,0.5-1.5,0.5s-1.2-0.2-1.7-0.5c-0.5-0.3-0.9-0.8-1.2-1.4c-0.2-0.6-0.3-1.3-0.3-2.1s0.2-1.5,0.4-2.1
			c0.3-0.6,0.7-1.1,1.2-1.4C44.3-17.9,44.8-18.1,45.4-18.1z M46.3-16.1c-0.5,0-0.9,0.2-1.2,0.5c-0.3,0.3-0.5,0.8-0.5,1.4
			c0,0.6,0.2,1.1,0.5,1.4c0.3,0.3,0.7,0.5,1.2,0.5c0.5,0,0.9-0.2,1.2-0.5c0.3-0.4,0.5-0.8,0.5-1.4c0-0.5-0.2-1.1-0.5-1.4
			C47.1-15.9,46.7-16.1,46.3-16.1z M55-18.1c0.6,0,1.1,0.2,1.5,0.4c0.4,0.3,0.7,0.6,0.9,1.1V-18h2.3v7.7h-2.3v-1.5
			c-0.2,0.5-0.5,0.8-0.9,1.1c-0.5,0.3-0.9,0.5-1.5,0.5s-1.2-0.2-1.7-0.5c-0.5-0.3-0.9-0.8-1.2-1.4c-0.3-0.6-0.4-1.3-0.4-2.1
			s0.2-1.5,0.4-2.1c0.3-0.6,0.7-1.1,1.2-1.4S54.3-18.1,55-18.1z M55.7-16.1c-0.5,0-0.9,0.2-1.2,0.5c-0.3,0.3-0.5,0.8-0.5,1.4
			c0,0.6,0.2,1.1,0.5,1.4c0.3,0.3,0.8,0.5,1.2,0.5s0.9-0.2,1.2-0.5s0.5-0.8,0.5-1.4c0-0.5-0.2-1.1-0.5-1.4
			C56.6-15.9,56.2-16.1,55.7-16.1z M66.4-18.1c0.8,0,1.6,0.3,2.1,0.8c0.5,0.5,0.8,1.4,0.8,2.4v4.4h-2.4v-4.1c0-0.5-0.2-0.9-0.4-1.2
			c-0.3-0.3-0.6-0.4-1.1-0.4s-0.8,0.2-1.2,0.5c-0.3,0.3-0.4,0.7-0.4,1.3v4.1h-2.4V-18h2.4v1.4c0.2-0.5,0.5-0.8,1-1.1
			C65.3-18,65.8-18.1,66.4-18.1z M73.6-18v7.7h-2.4V-18H73.6z M74.4-20l-3.3,1.4v-1.6l3.3-1.5V-20z M78.6-18.1
			c0.6,0,1.1,0.2,1.5,0.4c0.4,0.3,0.7,0.6,0.9,1.1V-18h2.3v7.7H81v-1.5c-0.2,0.5-0.5,0.8-0.9,1.1c-0.4,0.3-0.9,0.4-1.5,0.4
			s-1.2-0.2-1.7-0.5c-0.5-0.3-0.9-0.8-1.2-1.4c-0.3-0.6-0.4-1.3-0.4-2.1s0.2-1.5,0.4-2.1c0.3-0.6,0.7-1.1,1.2-1.4
			C77.4-17.9,78-18.1,78.6-18.1z M79.3-16.1c-0.5,0-0.9,0.2-1.2,0.5c-0.3,0.3-0.5,0.8-0.5,1.4c0,0.6,0.2,1.1,0.5,1.4
			c0.3,0.3,0.7,0.5,1.2,0.5c0.5,0,0.9-0.2,1.2-0.5c0.3-0.3,0.5-0.8,0.5-1.4c0-0.5-0.2-1.1-0.5-1.4C80.3-15.9,79.8-16.1,79.3-16.1z
			 M1.8-5.6v9.7h-2.4v-9.7C-0.6-5.6,1.8-5.6,1.8-5.6z M8.5-3.7c0.8,0,1.6,0.3,2.1,0.8c0.5,0.6,0.8,1.4,0.8,2.4V4H8.9v-4.1
			c0-0.5-0.2-0.9-0.4-1.2C8.2-1.6,7.9-1.7,7.5-1.7S6.6-1.5,6.3-1.2C6-0.9,5.9-0.5,5.9,0.1v4.1H3.6v-7.7h2.4v1.4
			c0.2-0.5,0.5-0.8,1-1.2C7.4-3.5,7.9-3.7,8.5-3.7z M17.5,2.1v2h-1.1c-0.9,0-1.6-0.2-2.1-0.7c-0.5-0.5-0.8-1.2-0.8-2.2v-2.8h-1v-2h1
			v-1.8h2.4v1.9h1.5v2h-1.5v2.8c0,0.3,0.1,0.5,0.2,0.6C16.2,2,16.4,2,16.7,2L17.5,2.1L17.5,2.1z M26.2,0.1c0,0.2,0,0.4-0.1,0.6h-5.3
			c0,0.5,0.2,1,0.5,1.2c0.3,0.2,0.6,0.4,1,0.4c0.4,0,0.6-0.1,0.8-0.3c0.2-0.2,0.4-0.4,0.5-0.7H26c-0.1,0.5-0.3,1-0.7,1.5
			c-0.4,0.4-0.8,0.8-1.3,1C23.5,4,23,4.1,22.3,4.1c-0.8,0-1.4-0.2-2-0.5c-0.5-0.3-1.1-0.8-1.4-1.4c-0.3-0.6-0.5-1.3-0.5-2.1
			s0.2-1.5,0.5-2.1c0.3-0.6,0.8-1.1,1.4-1.4c0.6-0.3,1.2-0.5,2-0.5c0.8,0,1.5,0.2,2,0.5s1,0.8,1.3,1.3C26-1.3,26.2-0.7,26.2,0.1z
			 M23.8-0.3c0-0.5-0.2-0.8-0.4-1.2c-0.3-0.2-0.6-0.4-1.1-0.4s-0.8,0.2-1.1,0.4s-0.5,0.6-0.5,1.2H23.8L23.8-0.3z M30-6.1V4.1h-2.4
			V-6.1H30z M31.6-5.7c0-0.4,0.2-0.6,0.4-0.9c0.2-0.2,0.6-0.4,1-0.4c0.4,0,0.8,0.2,1,0.4s0.4,0.5,0.4,0.9s-0.2,0.6-0.4,0.8
			c-0.2,0.2-0.6,0.4-1,0.4c-0.4,0-0.8-0.2-1-0.4C31.6-5.1,31.6-5.4,31.6-5.7z M34.1-3.6v7.7h-2.4v-7.7H34.1z M38.8-3.7
			c0.6,0,1.1,0.2,1.5,0.4c0.4,0.3,0.7,0.6,0.9,1.1v-1.3h2.3v7.6c0,0.7-0.2,1.4-0.4,1.9c-0.3,0.5-0.7,1-1.2,1.4s-1.2,0.5-2.1,0.5
			c-1.2,0-2.1-0.3-2.8-0.8c-0.7-0.5-1.2-1.3-1.2-2.2h2.3c0.1,0.3,0.2,0.5,0.5,0.7c0.3,0.2,0.6,0.3,1,0.3c0.5,0,0.8-0.2,1.2-0.4
			c0.3-0.3,0.5-0.7,0.5-1.3V2.8c-0.2,0.5-0.5,0.8-0.9,1.1c-0.4,0.3-0.9,0.4-1.5,0.4s-1.2-0.2-1.7-0.5c-0.5-0.3-0.9-0.8-1.2-1.4
			c-0.3-0.6-0.4-1.3-0.4-2.1s0.2-1.5,0.4-2.1c0.3-0.6,0.7-1.1,1.2-1.4C37.6-3.5,38.2-3.7,38.8-3.7z M39.5-1.6
			c-0.5,0-0.9,0.2-1.2,0.5s-0.5,0.8-0.5,1.4c0,0.5,0.2,1.1,0.5,1.4c0.3,0.3,0.7,0.5,1.2,0.5s0.9-0.2,1.2-0.5s0.5-0.8,0.5-1.4
			c0-0.5-0.2-1.1-0.5-1.4C40.5-1.5,40.1-1.6,39.5-1.6z M52.7,0.1c0,0.2,0,0.4-0.1,0.6h-5.3c0,0.5,0.2,1,0.5,1.2s0.6,0.4,1,0.4
			c0.4,0,0.6-0.1,0.8-0.3C49.8,1.8,50,1.6,50,1.3h2.5c-0.1,0.5-0.3,1-0.7,1.5c-0.4,0.4-0.8,0.8-1.3,1C50,4,49.4,4.1,48.7,4.1
			c-0.8,0-1.4-0.2-2-0.5c-0.5-0.3-1.1-0.8-1.4-1.4S44.9,1,44.9,0.2s0.2-1.5,0.5-2.1c0.3-0.6,0.8-1.1,1.4-1.4s1.2-0.5,2-0.5
			s1.5,0.2,2,0.5s1,0.8,1.3,1.3C52.6-1.4,52.7-0.7,52.7,0.1z M50.3-0.3c0-0.5-0.2-0.8-0.4-1.2c-0.3-0.2-0.6-0.4-1.1-0.4
			c-0.4,0-0.8,0.2-1.1,0.4s-0.5,0.6-0.5,1.2H50.3L50.3-0.3z M58.9-3.7c0.8,0,1.6,0.3,2.1,0.8c0.5,0.6,0.8,1.4,0.8,2.4V4h-2.4v-4.1
			c0-0.5-0.2-0.9-0.4-1.2c-0.3-0.3-0.6-0.4-1.1-0.4c-0.5,0-0.8,0.2-1.2,0.5c-0.3,0.3-0.4,0.7-0.4,1.3v4.1H54v-7.7h2.4v1.4
			c0.2-0.5,0.5-0.8,1-1.1C57.8-3.5,58.3-3.7,58.9-3.7z M67.8,2.1v2h-1.1c-0.9,0-1.6-0.2-2.1-0.7c-0.5-0.5-0.8-1.2-0.8-2.2v-2.8h-1
			v-2h1v-1.8h2.4v1.9h1.5v2h-1.5v2.8c0,0.3,0.1,0.5,0.2,0.6C66.6,2,66.8,2,67.1,2L67.8,2.1L67.8,2.1z M76.7,0.1c0,0.2,0,0.4-0.1,0.6
			h-5.3c0,0.5,0.2,1,0.5,1.2c0.3,0.2,0.6,0.4,1,0.4c0.4,0,0.6-0.1,0.8-0.3c0.2-0.2,0.4-0.4,0.5-0.7h2.5c-0.1,0.5-0.3,1-0.7,1.5
			c-0.4,0.4-0.8,0.8-1.3,1C74,4,73.4,4.1,72.7,4.1c-0.8,0-1.4-0.2-2-0.5c-0.5-0.3-1.1-0.8-1.4-1.4c-0.3-0.6-0.5-1.3-0.5-2.1
			s0.2-1.5,0.5-2.1c0.3-0.6,0.8-1.1,1.4-1.4s1.2-0.5,2-0.5c0.8,0,1.5,0.2,2,0.5c0.5,0.3,1,0.8,1.3,1.3C76.5-1.3,76.7-0.7,76.7,0.1z
			 M74.3-0.3c0-0.5-0.2-0.8-0.4-1.2c-0.3-0.2-0.6-0.4-1.1-0.4c-0.4,0-0.8,0.2-1.1,0.4c-0.3,0.2-0.5,0.6-0.5,1.2H74.3L74.3-0.3z"/>
	</g>
</g>
<g>
	<path class="st0" d="M14.6,14.8c0.2-0.2,0.2-0.3,0.4-0.4c0.7-1.2,0.4-2.6-0.8-3.4c-0.4-0.2-0.8-0.4-1.3-0.4l0,0
		c-0.8,0-1.6,0.5-2.1,1.2c-0.4,0.5-0.5,1.2-0.3,1.8c0.2,0.6,0.5,1.2,1.1,1.5c0.4,0.2,0.8,0.4,1.3,0.4C13.5,15.5,14.2,15.2,14.6,14.8
		z"/>
	<path class="st0" d="M8.3,19.7c-0.4-0.2-0.8-0.4-1.3-0.4c-0.8,0-1.6,0.5-2.1,1.2c-0.4,0.5-0.5,1.2-0.3,1.8c0.2,0.6,0.5,1.2,1.1,1.5
		c0.4,0.2,0.8,0.4,1.3,0.4c0.6,0,1.2-0.2,1.7-0.7c0.2-0.2,0.2-0.3,0.4-0.4C9.8,22,9.4,20.5,8.3,19.7z"/>
	<path class="st0" d="M18.9,16.6c-0.5-0.3-0.9-0.4-1.5-0.2c-0.5,0.2-0.9,0.4-1.2,0.8c-0.2,0.4-0.3,0.9-0.2,1.4
		c0.2,0.5,0.4,0.9,0.8,1.2c0.3,0.2,0.7,0.3,1,0.3c0.5,0,1-0.2,1.3-0.5c0.1-0.1,0.2-0.2,0.2-0.4C20.1,18.4,19.8,17.1,18.9,16.6z"/>
	<path class="st0" d="M14.6,22.8c-0.5-0.3-0.9-0.4-1.5-0.2c-0.5,0.2-0.9,0.4-1.2,0.8c-0.3,0.5-0.4,0.9-0.2,1.5
		c0.2,0.5,0.4,0.9,0.8,1.2c0.3,0.2,0.7,0.3,1,0.3c0.5,0,1-0.2,1.3-0.5c0.1-0.1,0.2-0.2,0.2-0.4C15.8,24.6,15.5,23.4,14.6,22.8z"/>
	<path class="st0" d="M13.2,30.6c-0.5-0.3-0.9-0.4-1.5-0.2c-0.5,0.2-0.9,0.4-1.2,0.8c-0.3,0.5-0.4,0.9-0.2,1.5
		c0.2,0.5,0.4,0.9,0.8,1.2c0.3,0.2,0.7,0.3,1,0.3c0.5,0,1-0.2,1.3-0.5c0.1-0.1,0.2-0.2,0.2-0.4C14.3,32.3,14.1,31.1,13.2,30.6z"/>
	<path class="st0" d="M14.6,37.9c-0.5-0.3-0.9-0.4-1.5-0.2c-0.5,0.2-0.9,0.4-1.2,0.8c-0.3,0.5-0.4,0.9-0.2,1.5
		c0.2,0.5,0.4,0.9,0.8,1.2c0.3,0.2,0.7,0.3,1,0.3c0.5,0,1-0.2,1.3-0.5c0.1-0.1,0.2-0.2,0.2-0.3C15.8,39.7,15.5,38.5,14.6,37.9z"/>
	<path class="st0" d="M8.3,40.2C7.9,40,7.5,39.8,7,39.8c-0.8,0-1.6,0.5-2.1,1.2c-0.4,0.6-0.5,1.2-0.4,1.8c0.1,0.6,0.5,1.2,1.1,1.5
		c0.4,0.2,0.8,0.4,1.3,0.4c0.6,0,1.2-0.2,1.7-0.7c0.2-0.2,0.2-0.3,0.4-0.4C9.8,42.4,9.4,41,8.3,40.2z"/>
	<path class="st0" d="M6.9,33.9c0.2-0.2,0.2-0.3,0.4-0.4c0.7-1.2,0.4-2.6-0.8-3.4c-0.4-0.2-0.8-0.4-1.3-0.4l0,0
		c-0.8,0-1.6,0.5-2.1,1.2c-0.4,0.5-0.5,1.2-0.3,1.8s0.5,1.2,1.1,1.5c0.4,0.2,0.8,0.4,1.3,0.4C5.9,34.6,6.6,34.3,6.9,33.9z"/>
	<path class="st0" d="M43.1,54.7c-0.4-0.2-0.8-0.4-1.3-0.4c-0.8,0-1.6,0.5-2.1,1.2l0,0c-0.4,0.5-0.5,1.2-0.3,1.8s0.5,1.2,1.1,1.5
		c0.4,0.2,0.8,0.4,1.3,0.4c0.6,0,1.2-0.2,1.7-0.7c0.2-0.2,0.2-0.3,0.4-0.4C44.6,56.9,44.2,55.4,43.1,54.7z"/>
	<path class="st0" d="M22.4,54.7c-0.4-0.2-0.8-0.4-1.3-0.4l0,0c-0.8,0-1.6,0.5-2.1,1.2c-0.4,0.5-0.5,1.2-0.3,1.8s0.5,1.2,1.1,1.5
		c0.4,0.2,0.8,0.4,1.3,0.4c0.6,0,1.2-0.2,1.7-0.7c0.2-0.2,0.2-0.3,0.4-0.4C23.8,56.9,23.4,55.4,22.4,54.7z"/>
	<g id="_xF672_-copy_2_">
		<path class="st0" d="M31.4,39.8c0.3,0,0.6-0.1,0.8-0.3c0.2-0.2,0.3-0.5,0.3-0.8s-0.1-0.6-0.3-0.8c-0.2-0.2-0.5-0.3-0.8-0.3
			c-1.5,0-2.8-0.5-3.8-1.6C26.5,35,26,33.8,26,32.2c0-0.3-0.1-0.6-0.3-0.8c-0.2-0.2-0.5-0.3-0.8-0.3s-0.6,0.1-0.8,0.3
			c-0.2,0.2-0.3,0.5-0.3,0.8c0,1.4,0.4,2.6,1,3.8c0.7,1.2,1.6,2.1,2.8,2.8C28.8,39.5,30,39.8,31.4,39.8z M31.4,44.1
			c2.1,0,4.2-0.5,6.1-1.6c1.8-1.1,3.3-2.5,4.4-4.4c1.1-1.8,1.6-3.8,1.6-6.1c0-1.5-0.2-2.9-0.8-4.2c-0.5-1.3-1.2-2.5-2.2-3.7
			c-0.8-0.9-1.6-2.1-2.3-3.5c-0.7-1.2-1.2-2.2-1.2-2.8H26c-0.1,0.5-0.5,1.5-1.2,2.8c-0.8,1.4-1.5,2.6-2.4,3.5
			c-1,1.1-1.7,2.3-2.2,3.7c-0.5,1.3-0.8,2.8-0.8,4.2c0,2.1,0.5,4.1,1.5,5.9c1,1.8,2.5,3.3,4.2,4.4C27.1,43.6,29.2,44.1,31.4,44.1z
			 M38.8,25.6c0.8,0.9,1.5,1.9,1.8,3.1c0.4,1.2,0.6,2.2,0.6,3.5c0,1.8-0.5,3.5-1.3,4.9c-0.8,1.5-2.1,2.7-3.6,3.6
			c-1.5,0.9-3.1,1.3-5,1.3s-3.5-0.5-5-1.3c-1.5-0.9-2.7-2.1-3.5-3.6c-0.8-1.5-1.2-3.1-1.2-4.8c0-2.5,0.8-4.6,2.5-6.5
			c0.5-0.6,1.2-1.4,1.7-2.3c0.7-1.1,1.2-2.1,1.7-3.2h7.9c0.5,1.1,1,2.1,1.7,3.2C37.8,24.2,38.3,25,38.8,25.6z"/>
	</g>
	<g id="Rectangle-Copy-2_2_">
		<path class="st0" d="M27.9,9.2H35c1,0,1.8,0.8,1.8,1.8v0.7H26.2V11C26.2,10,27,9.2,27.9,9.2z"/>
	</g>
	<g id="Rectangle-Copy_2_">
		<rect x="26.2" y="13.8" class="st0" width="10.6" height="2.5"/>
	</g>
	<path class="st0" d="M32.7,56.4c-0.4-0.2-0.8-0.4-1.3-0.4l0,0c-0.8,0-1.6,0.5-2.1,1.2C29,57.7,28.9,58.4,29,59
		c0.2,0.6,0.5,1.2,1.1,1.5c0.4,0.2,0.8,0.4,1.3,0.4c0.6,0,1.2-0.2,1.7-0.7c0.2-0.2,0.2-0.3,0.4-0.4C34.2,58.7,33.9,57.2,32.7,56.4z"
		/>
	<path class="st0" d="M30.4,53.1c0.3,0.2,0.7,0.3,1,0.3c0.5,0,1-0.2,1.3-0.5c0.1-0.1,0.2-0.2,0.2-0.4c0.5-0.9,0.3-2.1-0.6-2.6
		c-0.5-0.3-0.9-0.4-1.5-0.2c-0.5,0.2-0.9,0.4-1.2,0.8c-0.3,0.5-0.4,0.9-0.2,1.5C29.7,52.4,30,52.9,30.4,53.1z"/>
	<path class="st0" d="M40.5,51.3c0.5-0.9,0.3-2.1-0.6-2.6c-0.5-0.3-0.9-0.4-1.5-0.2c-0.5,0.2-0.9,0.4-1.2,0.8
		c-0.3,0.5-0.4,0.9-0.2,1.5c0.2,0.5,0.4,0.9,0.8,1.2c0.3,0.2,0.7,0.3,1,0.3c0.5,0,1-0.2,1.3-0.5C40.4,51.5,40.5,51.4,40.5,51.3z"/>
	<path class="st0" d="M24.9,48.7c-0.5-0.3-0.9-0.4-1.5-0.2c-0.5,0.2-0.9,0.4-1.2,0.8c-0.3,0.5-0.4,0.9-0.2,1.5
		c0.2,0.5,0.4,0.9,0.8,1.2c0.3,0.2,0.7,0.3,1,0.3c0.5,0,1-0.2,1.3-0.5c0.1-0.1,0.2-0.2,0.2-0.4c0.3-0.5,0.4-0.9,0.2-1.5
		C25.4,49.3,25.3,49,24.9,48.7z"/>
	<path class="st0" d="M13.9,49c-0.4-0.2-0.8-0.4-1.3-0.4c-0.8,0-1.6,0.5-2.1,1.2c-0.4,0.5-0.5,1.2-0.3,1.8c0.2,0.6,0.5,1.2,1.1,1.5
		c0.4,0.2,0.8,0.4,1.3,0.4c0.6,0,1.2-0.2,1.7-0.7c0.2-0.2,0.2-0.3,0.4-0.4C15.4,51.3,15.1,49.7,13.9,49z"/>
	<path class="st0" d="M51.5,49c-0.4-0.2-0.8-0.4-1.3-0.4c-0.8,0-1.6,0.5-2.1,1.2c-0.4,0.5-0.5,1.2-0.3,1.8c0.2,0.6,0.5,1.2,1.1,1.5
		c0.4,0.2,0.8,0.4,1.3,0.4c0.6,0,1.2-0.2,1.7-0.7c0.2-0.2,0.2-0.3,0.4-0.4C53,51.3,52.7,49.7,51.5,49z"/>
	<path class="st0" d="M18.7,44.4c-0.5-0.3-0.9-0.4-1.5-0.2c-0.5,0.2-0.9,0.4-1.2,0.8c-0.3,0.5-0.4,0.9-0.2,1.5s0.4,0.9,0.8,1.2
		c0.3,0.2,0.7,0.3,1,0.3c0.5,0,1-0.2,1.3-0.5c0.1-0.1,0.2-0.2,0.2-0.4C19.9,46.2,19.6,45,18.7,44.4z"/>
	<path class="st0" d="M46.2,44.4c-0.5-0.3-0.9-0.4-1.5-0.2c-0.5,0.2-0.9,0.4-1.2,0.8c-0.3,0.5-0.4,0.9-0.2,1.5
		c0.2,0.5,0.4,0.9,0.8,1.2c0.3,0.2,0.7,0.3,1,0.3c0.5,0,1-0.2,1.3-0.5c0.1-0.1,0.2-0.2,0.2-0.4C47.4,46.2,47.1,45,46.2,44.4z"/>
</g>
</svg>
