<?xml version="1.0" encoding="utf-8"?>
<!-- Generator: Adobe Illustrator 22.1.0, SVG Export Plug-In . SVG Version: 6.00 Build 0)  -->
<svg version="1.1" id="Layer_1" xmlns="http://www.w3.org/2000/svg" xmlns:xlink="http://www.w3.org/1999/xlink" x="0px" y="0px"
	 viewBox="0 0 180 89" style="enable-background:new 0 0 180 89;" xml:space="preserve">
<style type="text/css">
	.st0{fill:#FFFFFF;}
</style>
<title>Artboard 11</title>
<desc>Created with Sketch.</desc>
<g id="logo-fci">
	<g id="logo-ci" transform="translate(52.000000, 35.000000)">
		<path id="Ciudadanía-Inteligen" class="st0" d="M21-16.9c1.6,0,2.9,0.4,4,1.3c1.1,0.8,1.7,2,2,3.4h-3.2c-0.2-0.6-0.6-1-1.1-1.4
			c-0.5-0.3-1.1-0.5-1.7-0.5c-0.9,0-1.6,0.3-2.2,1c-0.5,0.6-0.8,1.5-0.8,2.6s0.3,2,0.8,2.6c0.5,0.6,1.3,1,2.2,1
			c0.7,0,1.3-0.2,1.7-0.5c0.5-0.3,0.9-0.8,1.1-1.4h3.2c-0.3,1.4-1,2.6-2,3.4c-1.1,0.8-2.4,1.3-4,1.3c-1.2,0-2.3-0.3-3.2-0.8
			s-1.6-1.3-2.2-2.3c-0.5-1-0.8-2.1-0.8-3.3s0.3-2.4,0.8-3.3c0.5-1,1.2-1.7,2.2-2.3C18.7-16.7,19.8-16.9,21-16.9z M28.7-16.9
			c0-0.5,0.2-0.8,0.5-1.2c0.3-0.3,0.8-0.5,1.3-0.5s1,0.2,1.3,0.5c0.3,0.3,0.5,0.7,0.5,1.2c0,0.5-0.2,0.8-0.5,1.1
			c-0.3,0.3-0.8,0.5-1.3,0.5s-1-0.2-1.3-0.5C28.9-16.1,28.7-16.5,28.7-16.9z M32.1-14.1v10H29v-10H32.1z M44.4-14.1v10h-3.1V-6
			c-0.3,0.6-0.7,1-1.3,1.4c-0.6,0.4-1.2,0.5-2,0.5c-1.1,0-2.1-0.4-2.7-1.1c-0.7-0.8-1-1.8-1-3.1v-5.8h3v5.4c0,0.7,0.2,1.2,0.5,1.6
			c0.4,0.4,0.8,0.5,1.4,0.5c0.6,0,1.1-0.2,1.5-0.6c0.4-0.4,0.5-0.9,0.5-1.7v-5.3H44.4z M50.5-14.2c0.8,0,1.4,0.2,2,0.5
			s0.9,0.8,1.2,1.4v-5.1h3.1v13.2h-3.1V-6c-0.3,0.6-0.6,1.1-1.2,1.4S51.3-4,50.5-4c-0.8,0-1.6-0.2-2.2-0.6c-0.6-0.4-1.2-1-1.6-1.8
			c-0.4-0.8-0.5-1.7-0.5-2.7c0-1,0.2-2,0.5-2.7c0.4-0.8,0.9-1.4,1.6-1.8C49-14,49.7-14.2,50.5-14.2z M51.5-11.6
			c-0.6,0-1.2,0.2-1.6,0.6c-0.4,0.4-0.6,1-0.6,1.8c0,0.8,0.2,1.4,0.6,1.8c0.4,0.4,0.9,0.6,1.6,0.6s1.2-0.2,1.6-0.6
			c0.4-0.4,0.6-1,0.6-1.8c0-0.7-0.2-1.4-0.6-1.8C52.7-11.4,52.1-11.6,51.5-11.6z M62.9-14.2c0.8,0,1.4,0.2,2,0.5
			c0.5,0.4,0.9,0.8,1.2,1.4v-1.8h3v10h-3V-6c-0.3,0.6-0.7,1.1-1.2,1.4S63.7-4,62.9-4c-0.8,0-1.6-0.2-2.2-0.6c-0.6-0.4-1.2-1-1.6-1.8
			c-0.4-0.8-0.5-1.7-0.5-2.7c0-1,0.2-2,0.5-2.7c0.4-0.8,0.9-1.4,1.6-1.8C61.3-14,62.1-14.2,62.9-14.2z M63.9-11.6
			c-0.6,0-1.2,0.2-1.6,0.6c-0.4,0.4-0.6,1-0.6,1.8c0,0.8,0.2,1.4,0.6,1.8c0.4,0.4,0.9,0.6,1.6,0.6S65-7,65.5-7.4
			c0.4-0.5,0.6-1,0.6-1.8c0-0.7-0.2-1.4-0.6-1.8S64.5-11.6,63.9-11.6z M75.2-14.2c0.8,0,1.4,0.2,2,0.5c0.5,0.4,0.9,0.8,1.2,1.4v-5.1
			h3.1v13.2h-3.1V-6c-0.3,0.6-0.6,1.1-1.2,1.4C76.7-4.2,76-4,75.2-4c-0.8,0-1.6-0.2-2.2-0.6c-0.6-0.4-1.2-1-1.6-1.8
			C71.1-7.2,71-8.1,71-9.1c0-1,0.2-2,0.5-2.7c0.4-0.8,0.9-1.4,1.6-1.8C73.7-14,74.4-14.2,75.2-14.2z M76.3-11.6
			c-0.6,0-1.2,0.2-1.6,0.6s-0.6,1-0.6,1.8c0,0.8,0.2,1.4,0.6,1.8c0.4,0.4,0.9,0.6,1.6,0.6s1.2-0.2,1.6-0.6c0.4-0.5,0.6-1,0.6-1.8
			c0-0.7-0.2-1.4-0.6-1.8C77.4-11.4,76.9-11.6,76.3-11.6z M87.6-14.2c0.8,0,1.4,0.2,2,0.5c0.5,0.4,0.9,0.8,1.2,1.4v-1.8h3v10h-3V-6
			c-0.3,0.6-0.7,1.1-1.2,1.4C89-4.2,88.4-4,87.6-4c-0.8,0-1.6-0.2-2.2-0.6c-0.6-0.4-1.2-1-1.6-1.8c-0.4-0.8-0.5-1.7-0.5-2.7
			c0-1,0.2-2,0.5-2.7c0.4-0.8,0.9-1.4,1.6-1.8C86.1-14,86.8-14.2,87.6-14.2z M88.6-11.6c-0.6,0-1.2,0.2-1.6,0.6
			c-0.4,0.4-0.6,1-0.6,1.8c0,0.8,0.2,1.4,0.6,1.8C87.4-7,88-6.7,88.6-6.7s1.2-0.2,1.6-0.6c0.4-0.4,0.6-1,0.6-1.8
			c0-0.7-0.2-1.4-0.6-1.8S89.2-11.6,88.6-11.6z M102.5-14.2c1.1,0,2.1,0.4,2.7,1.1s1,1.8,1,3.1v5.8h-3.1v-5.4c0-0.7-0.2-1.2-0.5-1.6
			c-0.4-0.4-0.8-0.5-1.4-0.5c-0.6,0-1.1,0.2-1.5,0.6c-0.4,0.4-0.5,0.9-0.5,1.7v5.3h-3.1v-10h3.1v1.8c0.3-0.6,0.7-1.1,1.3-1.4
			C101.1-14.1,101.8-14.2,102.5-14.2z M111.9-14.1v10h-3.1v-10H111.9z M113-16.7l-4.3,1.8v-2.1L113-19V-16.7z M118.4-14.2
			c0.8,0,1.4,0.2,2,0.5c0.5,0.4,0.9,0.8,1.2,1.4v-1.8h3v10h-3V-6c-0.3,0.6-0.7,1.1-1.2,1.4c-0.5,0.4-1.2,0.5-2,0.5
			c-0.8,0-1.6-0.2-2.2-0.6c-0.6-0.4-1.2-1-1.6-1.8c-0.4-0.8-0.5-1.7-0.5-2.7c0-1,0.2-2,0.5-2.7c0.4-0.8,0.9-1.4,1.6-1.8
			C116.9-14,117.6-14.2,118.4-14.2z M119.4-11.6c-0.6,0-1.2,0.2-1.6,0.6s-0.6,1-0.6,1.8c0,0.8,0.2,1.4,0.6,1.8
			c0.4,0.4,0.9,0.6,1.6,0.6s1.2-0.2,1.6-0.6c0.4-0.4,0.6-1,0.6-1.8c0-0.7-0.2-1.4-0.6-1.8S120-11.6,119.4-11.6z M18.3,2.1v12.6h-3.1
			V2.1C15.2,2.1,18.3,2.1,18.3,2.1z M27,4.6c1.1,0,2.1,0.4,2.7,1.1c0.7,0.8,1,1.8,1,3.1v5.8h-3.1V9.3c0-0.7-0.2-1.2-0.5-1.6
			c-0.4-0.4-0.8-0.5-1.4-0.5c-0.6,0-1.1,0.2-1.5,0.6c-0.4,0.4-0.5,0.9-0.5,1.7v5.3h-3.1v-10h3.1v1.8C24,6,24.4,5.5,25,5.1
			C25.6,4.8,26.2,4.6,27,4.6z M38.7,12.1v2.6h-1.4c-1.2,0-2.1-0.3-2.7-0.9c-0.6-0.6-1-1.5-1-2.9V7.3h-1.3V4.7h1.3V2.3h3.1v2.5h2v2.6
			h-2V11c0,0.4,0.1,0.7,0.2,0.8c0.2,0.2,0.4,0.2,0.8,0.2L38.7,12.1L38.7,12.1z M50.1,9.5c0,0.3,0,0.5-0.1,0.8h-6.9
			c0,0.7,0.2,1.3,0.6,1.6c0.4,0.3,0.8,0.5,1.3,0.5c0.5,0,0.8-0.1,1.1-0.4c0.3-0.2,0.5-0.5,0.6-0.9h3.2c-0.1,0.7-0.4,1.3-0.9,1.9
			c-0.5,0.5-1,1-1.7,1.3c-0.7,0.3-1.4,0.5-2.3,0.5c-1,0-1.8-0.2-2.6-0.6c-0.7-0.4-1.4-1-1.8-1.8c-0.4-0.8-0.6-1.7-0.6-2.7
			s0.2-2,0.6-2.7c0.4-0.8,1-1.4,1.8-1.8c0.8-0.4,1.6-0.6,2.6-0.6c1,0,1.9,0.2,2.6,0.6c0.7,0.4,1.3,1,1.7,1.7
			C49.9,7.7,50.1,8.5,50.1,9.5z M47,9c0-0.6-0.2-1.1-0.5-1.5C46.1,7.2,45.7,7,45.1,7s-1,0.2-1.4,0.5c-0.4,0.3-0.6,0.8-0.6,1.5L47,9
			L47,9z M55,1.5v13.2h-3.1V1.5H55z M57.1,2c0-0.5,0.2-0.8,0.5-1.2c0.3-0.3,0.8-0.5,1.3-0.5s1,0.2,1.3,0.5s0.5,0.7,0.5,1.2
			c0,0.5-0.2,0.8-0.5,1.1s-0.8,0.5-1.3,0.5s-1-0.2-1.3-0.5C57.2,2.8,57.1,2.4,57.1,2z M60.4,4.7v10h-3.1v-10H60.4z M66.6,4.6
			c0.8,0,1.4,0.2,2,0.5c0.5,0.4,0.9,0.8,1.2,1.4V4.8h3v9.9c0,0.9-0.2,1.8-0.5,2.5c-0.4,0.7-0.9,1.3-1.6,1.8
			c-0.7,0.5-1.6,0.6-2.7,0.6c-1.5,0-2.7-0.4-3.6-1.1c-0.9-0.7-1.5-1.7-1.6-2.9h3c0.1,0.4,0.3,0.7,0.6,0.9c0.4,0.2,0.8,0.4,1.3,0.4
			c0.6,0,1.1-0.2,1.5-0.5c0.4-0.4,0.6-0.9,0.6-1.7v-1.7c-0.3,0.6-0.7,1.1-1.2,1.4c-0.5,0.4-1.2,0.5-2,0.5c-0.8,0-1.6-0.2-2.2-0.6
			c-0.6-0.4-1.2-1-1.6-1.8c-0.4-0.8-0.5-1.7-0.5-2.7s0.2-2,0.5-2.7c0.4-0.8,0.9-1.4,1.6-1.8C65,4.8,65.7,4.6,66.6,4.6z M67.5,7.3
			c-0.6,0-1.2,0.2-1.6,0.6c-0.4,0.4-0.6,1-0.6,1.8c0,0.7,0.2,1.4,0.6,1.8c0.4,0.4,0.9,0.6,1.6,0.6s1.2-0.2,1.6-0.6s0.6-1,0.6-1.8
			c0-0.7-0.2-1.4-0.6-1.8C68.7,7.5,68.2,7.3,67.5,7.3z M84.6,9.5c0,0.3,0,0.5-0.1,0.8h-6.9c0,0.7,0.2,1.3,0.6,1.6
			c0.4,0.3,0.8,0.5,1.3,0.5c0.5,0,0.8-0.1,1.1-0.4c0.3-0.2,0.5-0.5,0.6-0.9h3.2c-0.1,0.7-0.4,1.3-0.9,1.9c-0.5,0.5-1,1-1.7,1.3
			c-0.7,0.3-1.4,0.5-2.3,0.5c-1,0-1.8-0.2-2.6-0.6c-0.7-0.4-1.4-1-1.8-1.8c-0.4-0.8-0.6-1.7-0.6-2.7s0.2-2,0.6-2.7
			c0.4-0.8,1-1.4,1.8-1.8c0.8-0.4,1.6-0.6,2.6-0.6c1,0,1.9,0.2,2.6,0.6c0.7,0.4,1.3,1,1.7,1.7C84.5,7.6,84.6,8.5,84.6,9.5z M81.5,9
			c0-0.6-0.2-1.1-0.5-1.5C80.6,7.2,80.2,7,79.6,7c-0.5,0-1,0.2-1.4,0.5c-0.4,0.3-0.6,0.8-0.6,1.5L81.5,9L81.5,9z M92.8,4.6
			c1.1,0,2.1,0.4,2.7,1.1c0.7,0.8,1,1.8,1,3.1v5.8h-3.1V9.3c0-0.7-0.2-1.2-0.5-1.6c-0.4-0.4-0.8-0.5-1.4-0.5c-0.6,0-1.1,0.2-1.5,0.6
			c-0.4,0.4-0.5,0.9-0.5,1.7v5.3h-3.1v-10h3.1v1.8c0.3-0.6,0.7-1.1,1.3-1.4C91.3,4.8,92,4.6,92.8,4.6z M104.4,12.1v2.6H103
			c-1.2,0-2.1-0.3-2.7-0.9c-0.6-0.6-1-1.5-1-2.9V7.3H98V4.7h1.3V2.3h3.1v2.5h2v2.6h-2V11c0,0.4,0.1,0.7,0.2,0.8
			c0.2,0.2,0.4,0.2,0.8,0.2L104.4,12.1L104.4,12.1z M115.9,9.5c0,0.3,0,0.5-0.1,0.8h-6.9c0,0.7,0.2,1.3,0.6,1.6
			c0.4,0.3,0.8,0.5,1.3,0.5c0.5,0,0.8-0.1,1.1-0.4c0.3-0.2,0.5-0.5,0.6-0.9h3.2c-0.1,0.7-0.4,1.3-0.9,1.9c-0.5,0.5-1,1-1.7,1.3
			c-0.7,0.3-1.4,0.5-2.3,0.5c-1,0-1.8-0.2-2.6-0.6c-0.7-0.4-1.4-1-1.8-1.8c-0.4-0.8-0.6-1.7-0.6-2.7s0.2-2,0.6-2.7
			c0.4-0.8,1-1.4,1.8-1.8c0.8-0.4,1.6-0.6,2.6-0.6c1,0,1.9,0.2,2.6,0.6c0.7,0.4,1.3,1,1.7,1.7C115.7,7.7,115.9,8.5,115.9,9.5z
			 M112.8,9c0-0.6-0.2-1.1-0.5-1.5c-0.4-0.3-0.8-0.5-1.4-0.5c-0.5,0-1,0.2-1.4,0.5c-0.4,0.3-0.6,0.8-0.6,1.5L112.8,9L112.8,9z"/>
	</g>
</g>
<g>
	<path class="st0" d="M19.2,18.1c0.2-0.2,0.3-0.4,0.5-0.5c0.9-1.5,0.5-3.4-1-4.4c-0.5-0.3-1.1-0.5-1.7-0.5l0,0
		c-1.1,0-2.1,0.6-2.7,1.5c-0.5,0.7-0.6,1.6-0.4,2.4c0.2,0.8,0.7,1.6,1.4,2c0.5,0.3,1.1,0.5,1.7,0.5C17.8,19,18.6,18.6,19.2,18.1z"/>
	<path class="st0" d="M11,24.5c-0.5-0.3-1.1-0.5-1.7-0.5c-1.1,0-2.1,0.6-2.7,1.5c-0.5,0.7-0.6,1.6-0.4,2.4c0.2,0.8,0.7,1.6,1.4,2
		c0.5,0.3,1.1,0.5,1.7,0.5c0.8,0,1.6-0.3,2.2-0.9c0.2-0.2,0.3-0.4,0.5-0.5C12.9,27.4,12.4,25.5,11,24.5z"/>
	<path class="st0" d="M24.8,20.4c-0.6-0.4-1.2-0.5-1.9-0.3c-0.6,0.2-1.2,0.5-1.6,1.1C21,21.7,20.9,22.4,21,23
		c0.2,0.6,0.5,1.2,1.1,1.6c0.4,0.3,0.9,0.4,1.3,0.4c0.6,0,1.3-0.3,1.7-0.7c0.1-0.1,0.3-0.3,0.3-0.5C26.3,22.7,25.9,21.1,24.8,20.4z"
		/>
	<path class="st0" d="M19.2,28.5c-0.6-0.4-1.2-0.5-1.9-0.3c-0.6,0.2-1.2,0.5-1.6,1.1c-0.4,0.6-0.5,1.2-0.3,1.9s0.5,1.2,1.1,1.6
		c0.4,0.3,0.9,0.4,1.3,0.4c0.6,0,1.3-0.3,1.7-0.7c0.1-0.1,0.3-0.3,0.3-0.5C20.7,30.8,20.4,29.3,19.2,28.5z"/>
	<path class="st0" d="M17.4,38.6c-0.6-0.4-1.2-0.5-1.9-0.3c-0.6,0.2-1.2,0.5-1.6,1.1c-0.4,0.6-0.5,1.2-0.3,1.9
		c0.2,0.6,0.5,1.2,1.1,1.6c0.4,0.3,0.9,0.4,1.3,0.4c0.6,0,1.3-0.3,1.7-0.7c0.1-0.1,0.3-0.3,0.3-0.5C18.8,40.9,18.5,39.3,17.4,38.6z"
		/>
	<path class="st0" d="M19.2,48.2c-0.6-0.4-1.2-0.5-1.9-0.3s-1.2,0.5-1.6,1.1c-0.4,0.6-0.5,1.2-0.3,1.9c0.2,0.6,0.5,1.2,1.1,1.6
		c0.4,0.3,0.9,0.4,1.3,0.4c0.6,0,1.3-0.3,1.7-0.7c0.1-0.1,0.3-0.3,0.3-0.4C20.7,50.5,20.4,48.9,19.2,48.2z"/>
	<path class="st0" d="M11,51.2c-0.5-0.3-1.1-0.5-1.7-0.5c-1.1,0-2.1,0.6-2.7,1.5C6.1,53,6,53.8,6.1,54.6s0.7,1.6,1.4,2
		c0.5,0.3,1.1,0.5,1.7,0.5c0.8,0,1.6-0.3,2.2-0.9c0.2-0.2,0.3-0.4,0.5-0.5C12.9,54.1,12.4,52.2,11,51.2z"/>
	<path class="st0" d="M9.2,42.9c0.2-0.2,0.3-0.4,0.5-0.5c0.9-1.5,0.5-3.4-1-4.4c-0.5-0.3-1.1-0.5-1.7-0.5l0,0
		c-1.1,0-2.1,0.6-2.7,1.5c-0.5,0.7-0.6,1.6-0.4,2.4s0.7,1.6,1.4,2c0.5,0.3,1.1,0.5,1.7,0.5C7.9,43.9,8.7,43.5,9.2,42.9z"/>
	<path class="st0" d="M56.4,70.1c-0.5-0.3-1.1-0.5-1.7-0.5c-1.1,0-2.1,0.6-2.7,1.5l0,0c-0.5,0.7-0.6,1.6-0.4,2.4
		c0.2,0.8,0.7,1.6,1.4,2c0.5,0.3,1.1,0.5,1.7,0.5c0.8,0,1.6-0.3,2.2-0.9c0.2-0.2,0.3-0.4,0.5-0.5C58.3,73,57.8,71,56.4,70.1z"/>
	<path class="st0" d="M29.3,70.1c-0.5-0.3-1.1-0.5-1.7-0.5l0,0c-1.1,0-2.1,0.6-2.7,1.5c-0.5,0.7-0.6,1.6-0.4,2.4
		c0.2,0.8,0.7,1.6,1.4,2c0.5,0.3,1.1,0.5,1.7,0.5c0.8,0,1.6-0.3,2.2-0.9c0.2-0.2,0.3-0.4,0.5-0.5C31.2,73,30.7,71,29.3,70.1z"/>
	<g id="_xF672_-copy_2_">
		<path class="st0" d="M41.1,50.7c0.4,0,0.8-0.1,1-0.4c0.3-0.3,0.4-0.6,0.4-1s-0.1-0.8-0.4-1c-0.3-0.3-0.6-0.4-1-0.4
			c-1.9,0-3.6-0.7-5-2.1c-1.4-1.4-2.1-3-2.1-5c0-0.4-0.1-0.8-0.4-1c-0.3-0.3-0.6-0.4-1-0.4c-0.4,0-0.8,0.1-1,0.4
			c-0.3,0.3-0.4,0.6-0.4,1c0,1.8,0.5,3.4,1.3,4.9c0.9,1.6,2.1,2.7,3.6,3.7C37.7,50.2,39.3,50.7,41.1,50.7z M41.1,56.3
			c2.8,0,5.5-0.7,7.9-2.1c2.4-1.4,4.3-3.3,5.7-5.7c1.4-2.4,2.1-5,2.1-7.9c0-1.9-0.3-3.8-1-5.5c-0.7-1.7-1.6-3.3-2.9-4.8
			c-1.1-1.2-2.1-2.7-3-4.5c-0.9-1.6-1.5-2.9-1.6-3.7H34.1c-0.1,0.7-0.6,1.9-1.5,3.7c-1,1.8-2,3.4-3.1,4.5c-1.3,1.4-2.2,3-2.9,4.8
			c-0.7,1.7-1,3.6-1,5.5c0,2.7,0.6,5.3,2,7.7c1.3,2.4,3.2,4.3,5.5,5.8C35.5,55.6,38.2,56.3,41.1,56.3z M50.8,32.1
			c1.1,1.2,1.9,2.5,2.4,4c0.5,1.5,0.8,2.9,0.8,4.5c0,2.3-0.6,4.5-1.7,6.4c-1.1,1.9-2.7,3.5-4.7,4.7c-1.9,1.2-4.1,1.7-6.5,1.7
			s-4.5-0.6-6.5-1.7c-1.9-1.2-3.5-2.7-4.6-4.7c-1.1-2-1.6-4.1-1.6-6.3c0-3.2,1.1-6,3.2-8.5c0.7-0.8,1.5-1.8,2.2-3
			c0.9-1.4,1.6-2.8,2.2-4.2h10.3c0.6,1.4,1.3,2.7,2.2,4.2C49.4,30.3,50.1,31.3,50.8,32.1z"/>
	</g>
	<g id="Rectangle-Copy-2_2_">
		<path class="st0" d="M36.5,10.8h9.3c1.3,0,2.3,1,2.3,2.3V14H34.3v-0.9C34.3,11.8,35.3,10.8,36.5,10.8z"/>
	</g>
	<g id="Rectangle-Copy_2_">
		<rect x="34.3" y="16.7" class="st0" width="13.8" height="3.2"/>
	</g>
	<path class="st0" d="M42.8,72.3c-0.5-0.3-1.1-0.5-1.7-0.5l0,0c-1.1,0-2.1,0.6-2.7,1.5c-0.5,0.7-0.6,1.6-0.4,2.4s0.7,1.6,1.4,2
		c0.5,0.3,1.1,0.5,1.7,0.5c0.8,0,1.6-0.3,2.2-0.9c0.2-0.2,0.3-0.4,0.5-0.5C44.7,75.3,44.3,73.3,42.8,72.3z"/>
	<path class="st0" d="M39.8,68c0.4,0.3,0.9,0.4,1.3,0.4c0.6,0,1.3-0.3,1.7-0.7c0.1-0.1,0.3-0.3,0.3-0.5c0.7-1.2,0.4-2.7-0.8-3.4
		c-0.6-0.4-1.2-0.5-1.9-0.3c-0.6,0.2-1.2,0.5-1.6,1.1c-0.4,0.6-0.5,1.2-0.3,1.9C38.9,67.1,39.2,67.7,39.8,68z"/>
	<path class="st0" d="M53,65.7c0.7-1.2,0.4-2.7-0.8-3.4c-0.6-0.4-1.2-0.5-1.9-0.3s-1.2,0.5-1.6,1.1c-0.4,0.6-0.5,1.2-0.3,1.9
		c0.2,0.6,0.5,1.2,1.1,1.6c0.4,0.3,0.9,0.4,1.3,0.4c0.6,0,1.3-0.3,1.7-0.7C52.8,65.9,53,65.8,53,65.7z"/>
	<path class="st0" d="M32.6,62.2c-0.6-0.4-1.2-0.5-1.9-0.3c-0.6,0.2-1.2,0.5-1.6,1.1c-0.4,0.6-0.5,1.2-0.3,1.9
		c0.2,0.6,0.5,1.2,1.1,1.6c0.4,0.3,0.9,0.4,1.3,0.4c0.6,0,1.3-0.3,1.7-0.7c0.1-0.1,0.3-0.3,0.3-0.5c0.4-0.6,0.5-1.2,0.3-1.9
		S33.2,62.6,32.6,62.2z"/>
	<path class="st0" d="M18.3,62.6c-0.5-0.3-1.1-0.5-1.7-0.5c-1.1,0-2.1,0.6-2.7,1.5c-0.5,0.7-0.6,1.6-0.4,2.4c0.2,0.8,0.7,1.6,1.4,2
		c0.5,0.3,1.1,0.5,1.7,0.5c0.8,0,1.6-0.3,2.2-0.9c0.2-0.2,0.3-0.4,0.5-0.5C20.2,65.6,19.8,63.6,18.3,62.6z"/>
	<path class="st0" d="M67.3,62.6c-0.5-0.3-1.1-0.5-1.7-0.5c-1.1,0-2.1,0.6-2.7,1.5c-0.5,0.7-0.6,1.6-0.4,2.4c0.2,0.8,0.7,1.6,1.4,2
		c0.5,0.3,1.1,0.5,1.7,0.5c0.8,0,1.6-0.3,2.2-0.9c0.2-0.2,0.3-0.4,0.5-0.5C69.2,65.6,68.8,63.6,67.3,62.6z"/>
	<path class="st0" d="M24.5,56.7c-0.6-0.4-1.2-0.5-1.9-0.3c-0.6,0.2-1.2,0.5-1.6,1.1c-0.4,0.6-0.5,1.2-0.3,1.9s0.5,1.2,1.1,1.6
		c0.4,0.3,0.9,0.4,1.3,0.4c0.6,0,1.3-0.3,1.7-0.7c0.1-0.1,0.3-0.3,0.3-0.5C26.1,59,25.7,57.4,24.5,56.7z"/>
	<path class="st0" d="M60.4,56.7c-0.6-0.4-1.2-0.5-1.9-0.3c-0.6,0.2-1.2,0.5-1.6,1.1c-0.4,0.6-0.5,1.2-0.3,1.9s0.5,1.2,1.1,1.6
		c0.4,0.3,0.9,0.4,1.3,0.4c0.6,0,1.3-0.3,1.7-0.7c0.1-0.1,0.3-0.3,0.3-0.5C61.9,59,61.5,57.4,60.4,56.7z"/>
</g>
</svg>
