<?xml version="1.0" encoding="UTF-8"?>
<svg width="168px" height="98px" viewBox="0 0 168 98" version="1.1" xmlns="http://www.w3.org/2000/svg" xmlns:xlink="http://www.w3.org/1999/xlink">
    <!-- Generator: Sketch 50.1 (55044) - http://www.bohemiancoding.com/sketch -->
    <title>Group Copy</title>
    <desc>Created with Sketch.</desc>
    <defs></defs>
    <g id="Page-1" stroke="none" stroke-width="1" fill="none" fill-rule="evenodd">
        <g id="Group-Copy" transform="translate(0.513444, 0.107100)" fill="#000000">
            <path d="M118.158183,53.3085845 C118.053477,60.8473926 114.912307,63.3603287 110.82922,63.3603287 C106.327311,63.3603287 103.709669,61.9987205 103.605398,53.3085845 L118.158183,53.3085845 Z M86.2255604,42.3157927 L86.2255604,45.1424113 C86.2255604,54.4603468 87.3768883,62.1034262 89.99453,66.8147468 C94.0776166,74.0390035 101.929673,75.9237055 111.038632,75.9237055 C127.161567,75.9237055 136.584642,66.6053355 136.584642,45.8753509 C136.584642,28.8100648 127.580824,19.1780122 109.258635,19.1780122 C103.814375,19.1780122 95.3340847,20.0156576 89.8902588,22.2144766 L89.8902588,35.7202045 C94.287028,34.1496194 98.8936429,32.9978571 104.756726,32.9978571 C112.085254,32.9978571 117.63422,34.8825591 118.367159,42.3157927 L86.2255604,42.3157927 Z M47.5926444,41.7922643 C47.6973501,34.2547596 50.8380857,31.7413891 54.9211723,31.7413891 C59.423516,31.7413891 62.0407233,33.1029972 62.1454289,41.7922643 L47.5926444,41.7922643 Z M79.5248321,52.7859251 L79.5248321,49.9584376 C79.5248321,40.640502 78.1640929,33.520951 75.5464511,28.8100648 C71.4633645,21.5858081 64.5536593,19.1780122 55.0258779,19.1780122 C39.007214,19.1780122 29.1657501,28.4959478 29.1657501,48.1788756 C29.1657501,66.2916529 38.1700032,75.9237055 57.3294027,75.9237055 C67.1708666,75.9237055 73.5570434,74.3531205 77.6405645,72.9919468 L77.6405645,58.8579849 C73.2433609,60.742687 66.8567496,62.1034262 60.9936666,62.1034262 C53.6651387,62.1034262 48.1161727,60.2191586 47.3832331,52.7859251 L79.5248321,52.7859251 Z" id="Fill-1-Copy"></path>
            <path d="M1.73555861,38.8606794 L20.0577472,38.8606794 L20.0577472,20.6436309 L1.73555861,20.6436309 L1.73555861,38.8606794 Z M2.99159217,45.4571365 C0.269679251,78.1222639 0.0602679137,94.0353532 0.0602679137,94.5597505 L21.8373091,94.5597505 C21.8373091,94.0353532 21.7326035,78.3316752 18.9055504,45.4571365 L2.99159217,45.4571365 Z M146.63517,74.5627056 L164.957793,74.5627056 L164.957793,56.3447882 L146.63517,56.3447882 L146.63517,74.5627056 Z M163.700891,49.7492 C166.423673,17.0845071 166.632649,1.17011439 166.632649,0.647020515 L144.856043,0.647020515 C144.856043,1.17011439 144.960314,16.8746613 147.787367,49.7492 L163.700891,49.7492 Z" id="Fill-3-Copy"></path>
            <path d="M132.248524,93.0216633 C132.83505,93.0216633 132.991457,92.800087 132.991457,92.5654768 C132.991457,92.3308666 132.887185,92.2005275 132.444033,92.0571546 L131.753236,91.8360128 C130.853897,91.5488325 130.22827,91.0405104 130.22827,89.9195949 C130.22827,88.4337303 131.205812,87.6651646 133.239101,87.6651646 C133.85126,87.6651646 134.464287,87.7564019 134.998677,87.8867409 L134.998677,89.6202497 C134.333948,89.4112728 133.721355,89.3200355 133.13483,89.3200355 C132.730344,89.3200355 132.483135,89.4768768 132.483135,89.7371203 C132.483135,90.0243006 132.613474,90.1155379 133.043592,90.2589108 L133.643152,90.4670188 C134.776667,90.8584702 135.298457,91.353324 135.298457,92.4095044 C135.298457,93.8167312 134.490355,94.7295387 132.170321,94.7295387 C131.596829,94.7295387 130.76266,94.6117992 130.123999,94.4293246 L130.123999,92.6310807 C130.892999,92.9178265 131.727168,93.0216633 132.248524,93.0216633 Z M125.848879,89.2161988 C125.118981,89.2161988 124.767065,89.7110525 124.767065,91.1578155 C124.767065,92.6567141 125.079879,93.1650362 125.809777,93.1650362 C126.604845,93.1650362 126.865089,92.6436802 126.865089,91.1317477 C126.865089,89.7245209 126.578778,89.2161988 125.848879,89.2161988 Z M125.744608,94.7295387 C123.594014,94.7295387 122.460065,93.6212227 122.460065,91.2103856 C122.460065,88.7730461 123.698285,87.6651646 125.861913,87.6651646 C128.15588,87.6651646 129.15949,88.6818088 129.15949,91.1452161 C129.15949,93.5951549 128.129812,94.7295387 125.744608,94.7295387 Z M120.400709,94.7030365 C119.827217,94.7030365 119.37103,94.572263 119.058651,94.3380873 C118.654166,94.0383075 118.419556,93.5299854 118.419556,92.2917649 L118.419556,89.3200355 L117.533685,89.3200355 L117.533685,87.8476392 L118.43259,87.8476392 C118.43259,87.8476392 118.43259,87.8346053 118.536861,86.0228931 L120.687889,86.0228931 L120.687889,87.8476392 L121.899607,87.8476392 L121.899607,89.3200355 L120.687889,89.3200355 L120.687889,92.0445552 C120.687889,92.3699683 120.73959,92.5654768 120.830827,92.6958158 C120.935099,92.8391887 121.130607,92.9039237 121.365217,92.9039237 C121.522059,92.9039237 121.704099,92.8913243 121.912641,92.8391887 L121.912641,94.5470641 C121.391285,94.6639348 120.922065,94.7030365 120.400709,94.7030365 Z M112.594271,94.5596636 L112.594271,90.0369 C112.594271,89.4112728 112.567769,88.5384359 112.476531,87.8476392 L114.666227,87.8476392 C114.717928,88.0952833 114.770498,88.5771032 114.770498,88.6818088 C115.121979,87.9645098 115.852312,87.743368 116.477505,87.743368 C116.64738,87.743368 116.829854,87.7564019 117.077498,87.8085375 L117.077498,89.6984531 C116.738617,89.5937474 116.399736,89.5546457 116.099956,89.5546457 C115.734572,89.5546457 115.330956,89.645883 115.135447,89.8804932 C114.913871,90.1542051 114.861301,90.4670188 114.861301,91.3928602 L114.861301,94.5596636 L112.594271,94.5596636 Z M109.205022,90.4800527 C109.192423,89.3986734 108.866575,89.2287982 108.306118,89.2287982 C107.797361,89.2287982 107.406344,89.5420463 107.39331,90.4800527 L109.205022,90.4800527 Z M107.367242,91.8486122 C107.45848,92.7744536 108.149276,93.0086294 109.06165,93.0086294 C109.791548,93.0086294 110.586616,92.8391887 111.133605,92.6045785 L111.133605,94.3641551 C110.625283,94.5331613 109.83065,94.7295387 108.605897,94.7295387 C106.220694,94.7295387 105.099778,93.5299854 105.099778,91.2751206 C105.099778,88.8251817 106.324965,87.6651646 108.319152,87.6651646 C109.504802,87.6651646 110.36504,87.9645098 110.873362,88.8642834 C111.199209,89.4503745 111.36865,90.3366798 111.36865,91.4966969 L111.36865,91.8486122 L107.367242,91.8486122 Z M101.580625,94.5596636 L103.861123,94.5596636 L103.861123,87.8476392 L101.580625,87.8476392 L101.580625,94.5596636 Z M101.580625,86.7918932 L103.861123,86.7918932 L103.861123,84.9671471 L101.580625,84.9671471 L101.580625,86.7918932 Z M96.275393,92.8522226 C96.4322342,93.0611995 96.6668444,93.1394029 96.9535903,93.1394029 C97.4875457,93.1394029 98.0349696,92.930426 98.0349696,91.2103856 C98.0349696,89.645883 97.578783,89.2678999 96.992692,89.2678999 C96.6794439,89.2678999 96.4709015,89.3591372 96.3018952,89.5546457 C96.1063867,89.776222 95.9760477,90.2193746 95.9760477,91.1187138 C95.9760477,92.0962563 96.0803189,92.591979 96.275393,92.8522226 Z M93.6686128,94.5596636 C93.7211829,93.6603244 93.7211829,92.9955955 93.7211829,92.2270298 L93.7211829,84.9671471 L96.001681,84.9671471 L96.001681,88.2512556 C96.588641,87.8476392 97.2138338,87.6521307 97.8785627,87.6521307 C99.4686986,87.6521307 100.34197,88.6162049 100.34197,91.1187138 C100.34197,93.842799 99.3253257,94.6769687 97.5661836,94.6769687 C96.9661897,94.6769687 96.3796642,94.4684263 95.9104437,94.0383075 C95.9104437,94.0778437 95.8978443,94.3380873 95.871342,94.5596636 L93.6686128,94.5596636 Z M89.9283178,91.6922054 C89.7849449,91.6791715 89.6281036,91.6661376 89.5242669,91.6661376 C88.6640294,91.6661376 88.2860463,91.8486122 88.2860463,92.4221039 C88.2860463,92.8135553 88.5467243,93.1394029 88.9764086,93.1394029 C89.3022561,93.1394029 89.6281036,93.0086294 89.7975443,92.7609853 C89.9018155,92.6045785 89.9283178,92.3960361 89.9283178,92.135358 L89.9283178,91.6922054 Z M86.7610799,88.0952833 C87.3993066,87.873707 88.3116797,87.6651646 89.2244872,87.6651646 C90.1364258,87.6651646 90.8928265,87.8211369 91.3225107,88.1213511 C91.8834029,88.5119337 92.1827482,89.0202558 92.1827482,90.3762159 L92.1827482,93.0477311 C92.1827482,93.5299854 92.2348838,94.1686465 92.3778222,94.5596636 L90.1755275,94.5596636 C90.0973241,94.3380873 90.032589,94.0383075 90.0191206,93.8167312 C89.5894364,94.4553924 89.0676459,94.6900026 88.2208768,94.6900026 C86.9044529,94.6900026 86.0702832,93.7910979 86.0702832,92.539409 C86.0702832,91.3402901 86.617707,90.3236459 89.2892222,90.3236459 C89.4981991,90.3236459 89.7584426,90.3366798 89.9283178,90.3501481 L89.9283178,90.1933068 C89.9283178,89.8935271 89.8627138,89.7245209 89.7067415,89.581148 C89.5633686,89.4503745 89.2501205,89.385205 88.924273,89.385205 C88.3116797,89.385205 87.5952496,89.4768768 86.7610799,89.841826 L86.7610799,88.0952833 Z M79.4755639,93.0216633 C80.061655,93.0216633 80.2184963,92.800087 80.2184963,92.5654768 C80.2184963,92.3308666 80.1137906,92.2005275 79.670638,92.0571546 L78.9802757,91.8360128 C78.0809366,91.5488325 77.4553093,91.0405104 77.4553093,89.9195949 C77.4553093,88.4337303 78.4328519,87.6651646 80.4657059,87.6651646 C81.0787337,87.6651646 81.6908926,87.7564019 82.2252825,87.8867409 L82.2252825,89.6202497 C81.560988,89.4112728 80.9479603,89.3200355 80.3618692,89.3200355 C79.9578183,89.3200355 79.7101742,89.4768768 79.7101742,89.7371203 C79.7101742,90.0243006 79.8405132,90.1155379 80.2706319,90.2589108 L80.8701913,90.4670188 C82.0041407,90.8584702 82.5250622,91.353324 82.5250622,92.4095044 C82.5250622,93.8167312 81.7169604,94.7295387 79.3973605,94.7295387 C78.8238689,94.7295387 77.9896993,94.6117992 77.3510381,94.4293246 L77.3510381,92.6310807 C78.1200383,92.9178265 78.9542079,93.0216633 79.4755639,93.0216633 Z M73.0759187,89.2161988 C72.3460203,89.2161988 71.994105,89.7110525 71.994105,91.1578155 C71.994105,92.6567141 72.3069186,93.1650362 73.036817,93.1650362 C73.831885,93.1650362 74.092563,92.6436802 74.092563,91.1317477 C74.092563,89.7245209 73.8058172,89.2161988 73.0759187,89.2161988 Z M72.9716475,94.7295387 C70.8210539,94.7295387 69.6871045,93.6212227 69.6871045,91.2103856 C69.6871045,88.7730461 70.9253251,87.6651646 73.0889526,87.6651646 C75.3829191,87.6651646 76.3865295,88.6818088 76.3865295,91.1452161 C76.3865295,93.5951549 75.3568513,94.7295387 72.9716475,94.7295387 Z M66.1683858,94.5596636 L68.4493184,94.5596636 L68.4493184,87.8476392 L66.1683858,87.8476392 L66.1683858,94.5596636 Z M66.1683858,86.7918932 L68.4493184,86.7918932 L68.4493184,84.9671471 L66.1683858,84.9671471 L66.1683858,86.7918932 Z M63.6263407,89.3726056 C62.8443067,89.3726056 62.0492388,89.5676796 62.0492388,91.1578155 C62.0492388,92.800087 62.8056395,92.9825616 63.6784763,92.9825616 C64.121629,92.9825616 64.5778155,92.8787248 65.0470359,92.6827819 L65.0470359,94.4427929 C64.6169172,94.572263 63.9521883,94.7295387 63.1180186,94.7295387 C60.7979843,94.7295387 59.7426728,93.5951549 59.7426728,91.2751206 C59.7426728,88.8642834 60.9939273,87.6651646 63.0919508,87.6651646 C63.9261205,87.6651646 64.4474765,87.743368 64.9949003,87.8867409 L64.9949003,89.645883 C64.6038833,89.4894762 64.2002668,89.3726056 63.6263407,89.3726056 Z M56.301723,91.6922054 C56.1583501,91.6791715 56.0019433,91.6661376 55.8976721,91.6661376 C55.0374347,91.6661376 54.6594516,91.8486122 54.6594516,92.4221039 C54.6594516,92.8135553 54.9201296,93.1394029 55.3502483,93.1394029 C55.6760958,93.1394029 56.0019433,93.0086294 56.171384,92.7609853 C56.2756552,92.6045785 56.301723,92.3960361 56.301723,92.135358 L56.301723,91.6922054 Z M53.1344852,88.0952833 C53.7731463,87.873707 54.6855194,87.6651646 55.5978924,87.6651646 C56.5102654,87.6651646 57.2662317,87.8211369 57.6963504,88.1213511 C58.2568081,88.5119337 58.5565878,89.0202558 58.5565878,90.3762159 L58.5565878,93.0477311 C58.5565878,93.5299854 58.6087235,94.1686465 58.7516619,94.5596636 L56.5493671,94.5596636 C56.4711637,94.3380873 56.4059942,94.0383075 56.3929603,93.8167312 C55.9628416,94.4553924 55.4414856,94.6900026 54.594282,94.6900026 C53.2778581,94.6900026 52.4436884,93.7910979 52.4436884,92.539409 C52.4436884,91.3402901 52.9911123,90.3236459 55.6630619,90.3236459 C55.8716043,90.3236459 56.1322823,90.3366798 56.301723,90.3501481 L56.301723,90.1933068 C56.301723,89.8935271 56.2365535,89.7245209 56.0801467,89.581148 C55.9367738,89.4503745 55.6239602,89.385205 55.2981127,89.385205 C54.6855194,89.385205 53.9686548,89.4768768 53.1344852,89.841826 L53.1344852,88.0952833 Z M47.5429418,92.8522226 C47.6993486,93.0346972 47.9600266,93.1394029 48.2598063,93.1394029 C48.8463319,93.1394029 49.3155523,92.8522226 49.3155523,91.222985 C49.3155523,89.6593514 48.8854336,89.2678999 48.3245414,89.2678999 C47.9860944,89.2678999 47.6993486,89.3986734 47.5555412,89.5676796 C47.3343994,89.8283576 47.2692299,90.2719447 47.2692299,91.1708494 C47.2692299,92.1874936 47.3469988,92.6176124 47.5429418,92.8522226 Z M45.0143651,97.3098166 L45.0143651,90.2975781 C45.0143651,89.6202497 45.0013312,88.7078766 44.9361617,87.8476392 L47.1910265,87.8476392 C47.2301282,88.134385 47.2431621,88.4080969 47.2431621,88.4471986 C47.6081113,88.0301138 48.3245414,87.6521307 49.1721794,87.6521307 C50.7879486,87.6521307 51.6221182,88.7078766 51.6221182,91.1708494 C51.6221182,93.8953691 50.5407389,94.6900026 48.9115014,94.6900026 C48.2598063,94.6900026 47.6993486,94.5470641 47.2692299,94.1816804 L47.2692299,97.3098166 L45.0143651,97.3098166 Z M40.8569852,93.0216633 C41.4435107,93.0216633 41.5994831,92.800087 41.5994831,92.5654768 C41.5994831,92.3308666 41.4952119,92.2005275 41.0520593,92.0571546 L40.3612625,91.8360128 C39.4623578,91.5488325 38.8367306,91.0405104 38.8367306,89.9195949 C38.8367306,88.4337303 39.8142732,87.6651646 41.8471272,87.6651646 C42.4597205,87.6651646 43.0723139,87.7564019 43.6067038,87.8867409 L43.6067038,89.6202497 C42.9419749,89.4112728 42.3293815,89.3200355 41.7432905,89.3200355 C41.3388051,89.3200355 41.0915954,89.4768768 41.0915954,89.7371203 C41.0915954,90.0243006 41.2215,90.1155379 41.6516187,90.2589108 L42.2511781,90.4670188 C43.3851275,90.8584702 43.9064835,91.353324 43.9064835,92.4095044 C43.9064835,93.8167312 43.0983817,94.7295387 40.7783474,94.7295387 C40.2052902,94.7295387 39.3711205,94.6117992 38.7320249,94.4293246 L38.7320249,92.6310807 C39.5010251,92.9178265 40.3351947,93.0216633 40.8569852,93.0216633 Z M35.643425,90.4800527 C35.6299566,89.3986734 35.3041091,89.2287982 34.7440858,89.2287982 C34.2353292,89.2287982 33.8443122,89.5420463 33.8317128,90.4800527 L35.643425,90.4800527 Z M33.805645,91.8486122 C33.8968823,92.7744536 34.5872445,93.0086294 35.4996176,93.0086294 C36.229516,93.0086294 37.024584,92.8391887 37.5720078,92.6045785 L37.5720078,94.3641551 C37.0636857,94.5331613 36.2686177,94.7295387 35.0438655,94.7295387 C32.6586617,94.7295387 31.5377463,93.5299854 31.5377463,91.2751206 C31.5377463,88.8251817 32.7629329,87.6651646 34.7566852,87.6651646 C35.9427702,87.6651646 36.8030077,87.9645098 37.3113298,88.8642834 C37.6371773,89.4503745 37.806618,90.3366798 37.806618,91.4966969 L37.806618,91.8486122 L33.805645,91.8486122 Z" id="Fill-5-Copy"></path>
        </g>
    </g>
</svg>