<?xml version="1.0" encoding="UTF-8" standalone="no"?>
<svg width="98px" height="89px" viewBox="0 0 98 89" version="1.1" xmlns="http://www.w3.org/2000/svg" xmlns:xlink="http://www.w3.org/1999/xlink" style="background: #000000;">
    <!-- Generator: Sketch 41.2 (35397) - http://www.bohemiancoding.com/sketch -->
    <title>Artboard 11 Copy</title>
    <desc>Created with Sketch.</desc>
    <defs>
        <polygon id="path-1" points="0 38.7155589 92.0685724 38.7155589 92.0685724 0 0 0"></polygon>
        <polygon id="path-3" points="0 38.7155589 92.0685724 38.7155589 92.0685724 0 0 0"></polygon>
        <polygon id="path-5" points="0 38.7155589 92.0685724 38.7155589 92.0685724 0 0 0"></polygon>
        <polygon id="path-7" points="0 38.7155589 92.0685724 38.7155589 92.0685724 0 0 0"></polygon>
        <polygon id="path-9" points="0 38.7155589 92.0685724 38.7155589 92.0685724 0 0 0"></polygon>
        <polygon id="path-11" points="0 38.7155589 92.0685724 38.7155589 92.0685724 0 0 0"></polygon>
        <polygon id="path-13" points="0 38.7155589 92.0685724 38.7155589 92.0685724 0 0 0"></polygon>
        <polygon id="path-15" points="0 38.7155589 92.0685724 38.7155589 92.0685724 0 0 0"></polygon>
        <polygon id="path-17" points="0 38.7155589 92.0685724 38.7155589 92.0685724 0 0 0"></polygon>
        <polygon id="path-19" points="0 38.7155589 92.0685724 38.7155589 92.0685724 0 0 0"></polygon>
        <polygon id="path-21" points="0 38.7155589 92.0685724 38.7155589 92.0685724 0 0 0"></polygon>
        <polygon id="path-23" points="0 38.7155589 92.0685724 38.7155589 92.0685724 0 0 0"></polygon>
        <polygon id="path-25" points="0 38.7155589 92.0685724 38.7155589 92.0685724 0 0 0"></polygon>
        <polygon id="path-27" points="0 38.7155589 92.0685724 38.7155589 92.0685724 0 0 0"></polygon>
        <polygon id="path-29" points="0 38.7155589 92.0685724 38.7155589 92.0685724 0 0 0"></polygon>
        <polygon id="path-31" points="0 38.7155589 92.0685724 38.7155589 92.0685724 0 0 0"></polygon>
        <polygon id="path-33" points="0 38.7155589 92.0685724 38.7155589 92.0685724 0 0 0"></polygon>
        <polygon id="path-35" points="0 38.7155589 92.0685724 38.7155589 92.0685724 0 0 0"></polygon>
        <polygon id="path-37" points="0 38.7155589 92.0685724 38.7155589 92.0685724 0 0 0"></polygon>
        <polygon id="path-39" points="0 38.7155589 92.0685724 38.7155589 92.0685724 0 0 0"></polygon>
        <polygon id="path-41" points="0 38.7155589 92.0685724 38.7155589 92.0685724 0 0 0"></polygon>
        <polygon id="path-43" points="0 38.7155589 92.0685724 38.7155589 92.0685724 0 0 0"></polygon>
        <polygon id="path-45" points="0 38.7155589 92.0685724 38.7155589 92.0685724 0 0 0"></polygon>
        <polygon id="path-47" points="0 38.7155589 92.0685724 38.7155589 92.0685724 0 0 0"></polygon>
        <polygon id="path-49" points="0 38.7155589 92.0685724 38.7155589 92.0685724 0 0 0"></polygon>
        <polygon id="path-51" points="0 38.7155589 92.0685724 38.7155589 92.0685724 0 0 0"></polygon>
        <polygon id="path-53" points="0 38.7155589 92.0685724 38.7155589 92.0685724 0 0 0"></polygon>
        <polygon id="path-55" points="0 38.7155589 92.0685724 38.7155589 92.0685724 0 0 0"></polygon>
        <polygon id="path-57" points="0 38.7155589 92.0685724 38.7155589 92.0685724 0 0 0"></polygon>
        <polygon id="path-59" points="0 38.7155589 92.0685724 38.7155589 92.0685724 0 0 0"></polygon>
        <polygon id="path-61" points="0 38.7155589 92.0685724 38.7155589 92.0685724 0 0 0"></polygon>
        <polygon id="path-63" points="0 38.7155589 92.0685724 38.7155589 92.0685724 0 0 0"></polygon>
        <polygon id="path-65" points="0 38.7155589 92.0685724 38.7155589 92.0685724 0 0 0"></polygon>
        <polygon id="path-67" points="0 38.7155589 92.0685724 38.7155589 92.0685724 0 0 0"></polygon>
    </defs>
    <g id="Page-1" stroke="none" stroke-width="1" fill="none" fill-rule="evenodd">
        <g id="Artboard-11-Copy">
            <g id="logo-pacifista-copy" transform="translate(3.000000, 28.000000)">
                <g id="Artboard-3-Copy-2">
                    <g id="Page-1">
                        <g id="Artboard-3-Copy-2">
                            <g id="Page-1">
                                <path d="M6.1461379,19.0977827 L6.1461379,21.1693569 C6.1461379,21.4525559 6.26941751,21.6001476 6.54474197,21.6001476 C6.81985021,21.6001476 6.94723914,21.4525559 6.94723914,21.1693569 L6.94723914,19.0977827 L7.5143254,19.0977827 L7.5143254,21.1735676 C7.5143254,21.8257998 7.12804925,22.1005774 6.54474197,22.1005774 C5.96121846,22.1005774 5.57915978,21.8257998 5.57915978,21.1735676 L5.57915978,19.0977827 L6.1461379,19.0977827 Z" id="Fill-1" fill="#FFFFFF"></path>
                                <polygon id="Fill-3" fill="#FFFFFF" points="8.08991148 22.0596684 8.08991148 19.0977935 8.71031072 19.0977935 9.49919218 20.8534545 9.50730269 20.8534545 9.50730269 19.0977935 10.0251852 19.0977935 10.0251852 22.0596684 9.48275486 22.0596684 8.61579636 20.1478863 8.60757771 20.1478863 8.60757771 22.0596684"></polygon>
                                <path d="M11.1759139,20.9354991 L11.7387827,20.9354991 L11.4634583,19.7377066 L11.4552396,19.7377066 L11.1759139,20.9354991 Z M10.3664859,22.0596576 L11.101838,19.0977827 L11.8291878,19.0977827 L12.5439933,22.0596576 L12.0017793,22.0596576 L11.857953,21.4361448 L11.0731809,21.4361448 L10.9129174,22.0596576 L10.3664859,22.0596576 Z" id="Fill-5" fill="#FFFFFF"></path>
                                <path d="M14.5947823,20.4024091 L14.8988719,20.4024091 C15.1783058,20.4024091 15.3179145,20.262807 15.3179145,19.9838187 C15.3179145,19.7050464 15.1783058,19.5654443 14.8988719,19.5654443 L14.5947823,19.5654443 L14.5947823,20.4024091 Z M14.0278041,22.0597116 L14.0278041,19.0978367 L14.8454508,19.0978367 C15.5439271,19.0978367 15.8850008,19.4260582 15.8850008,19.9838187 C15.8850008,20.5417952 15.5439271,20.8699088 14.8454508,20.8699088 L14.5947823,20.8699088 L14.5947823,22.0597116 L14.0278041,22.0597116 Z" id="Fill-7" fill="#FFFFFF"></path>
                                <polygon id="Fill-9" fill="#FFFFFF" points="16.2797227 22.0596684 16.2797227 19.0977935 16.8467008 19.0977935 16.8467008 21.5590227 17.7588618 21.5590227 17.7588618 22.0596684"></polygon>
                                <path d="M18.7123432,20.9354991 L19.275212,20.9354991 L18.9998875,19.7377066 L18.9916688,19.7377066 L18.7123432,20.9354991 Z M17.9029151,22.0596576 L18.6382673,19.0977827 L19.365617,19.0977827 L20.0804225,22.0596576 L19.5382085,22.0596576 L19.3943822,21.4361448 L18.6096101,21.4361448 L18.4493466,22.0596576 L17.9029151,22.0596576 Z" id="Fill-11" fill="#FFFFFF"></path>
                                <polygon id="Fill-13" fill="#FFFFFF" points="21.8807159 19.0977827 21.8807159 19.5983205 21.2192234 19.5983205 21.2192234 22.0596576 20.6522453 22.0596576 20.6522453 19.5983205 19.9906447 19.5983205 19.9906447 19.0977827"></polygon>
                                <path d="M22.6745502,20.9354991 L23.237419,20.9354991 L22.9620944,19.7377066 L22.9538758,19.7377066 L22.6745502,20.9354991 Z M21.8651221,22.0596576 L22.6004743,19.0977827 L23.327824,19.0977827 L24.0426295,22.0596576 L23.5004155,22.0596576 L23.3565892,21.4361448 L22.5718171,21.4361448 L22.4115536,22.0596576 L21.8651221,22.0596576 Z" id="Fill-15" fill="#FFFFFF"></path>
                                <polygon id="Fill-17" fill="#FFFFFF" points="24.3511422 22.0596684 24.3511422 19.0977935 25.8303895 19.0977935 25.8303895 19.5983313 24.9181203 19.5983313 24.9181203 20.2792828 25.6330339 20.2792828 25.6330339 20.7797126 24.9181203 20.7797126 24.9181203 22.0596684"></polygon>
                                <path d="M26.6933684,21.1818056 C26.6933684,21.509919 26.8371946,21.60018 27.0632073,21.60018 C27.2892199,21.60018 27.432938,21.509919 27.432938,21.1818056 L27.432938,19.9755916 C27.432938,19.6474781 27.2892199,19.5572172 27.0632073,19.5572172 C26.8371946,19.5572172 26.6933684,19.6474781 26.6933684,19.9755916 L26.6933684,21.1818056 Z M26.1263903,20.0496573 C26.1263903,19.3193646 26.5125583,19.0567874 27.0632073,19.0567874 C27.6137481,19.0567874 27.9999161,19.3193646 27.9999161,20.0496573 L27.9999161,21.1079557 C27.9999161,21.8380326 27.6137481,22.1006097 27.0632073,22.1006097 C26.5125583,22.1006097 26.1263903,21.8380326 26.1263903,21.1079557 L26.1263903,20.0496573 Z" id="Fill-19" fill="#FFFFFF"></path>
                                <path d="M29.0274626,20.3859656 L29.3191162,20.3859656 C29.5698929,20.3859656 29.7218296,20.2627746 29.7218296,19.9755808 C29.7218296,19.688603 29.5698929,19.5654119 29.3191162,19.5654119 L29.0274626,19.5654119 L29.0274626,20.3859656 Z M29.791688,22.0596792 L29.2986777,20.8534653 L29.0274626,20.8534653 L29.0274626,22.0596792 L28.4604845,22.0596792 L28.4604845,19.0978043 L29.2821323,19.0978043 C29.9642796,19.0978043 30.2888077,19.4260258 30.2888077,19.9837863 C30.2888077,20.3530355 30.1573095,20.6198234 29.8408918,20.7388037 L30.3997594,22.0596792 L29.791688,22.0596792 Z" id="Fill-21" fill="#FFFFFF"></path>
                                <polygon id="Fill-23" fill="#FFFFFF" points="30.7780872 22.0596684 30.7780872 19.0977935 31.571078 19.0977935 32.0846349 21.0421818 32.0928536 21.0421818 32.6064105 19.0977935 33.3994013 19.0977935 33.3994013 22.0596684 32.9146095 22.0596684 32.9146095 19.7295119 32.9064991 19.7295119 32.3024289 22.0596684 31.8751677 22.0596684 31.2712057 19.7295119 31.262879 19.7295119 31.262879 22.0596684"></polygon>
                                <path d="M34.550422,20.9354991 L35.1132908,20.9354991 L34.8379663,19.7377066 L34.8297476,19.7377066 L34.550422,20.9354991 Z M33.7409939,22.0596576 L34.4763461,19.0977827 L35.2036958,19.0977827 L35.9185013,22.0596576 L35.3762873,22.0596576 L35.2324611,21.4361448 L34.447689,21.4361448 L34.2874254,22.0596576 L33.7409939,22.0596576 Z" id="Fill-25" fill="#FFFFFF"></path>
                                <path d="M37.9692903,20.4024091 L38.27338,20.4024091 C38.5528138,20.4024091 38.6924226,20.262807 38.6924226,19.9838187 C38.6924226,19.7050464 38.5528138,19.5654443 38.27338,19.5654443 L37.9692903,19.5654443 L37.9692903,20.4024091 Z M37.4023122,22.0597116 L37.4023122,19.0978367 L38.2199588,19.0978367 C38.9184352,19.0978367 39.2595088,19.4260582 39.2595088,19.9838187 C39.2595088,20.5417952 38.9184352,20.8699088 38.2199588,20.8699088 L37.9692903,20.8699088 L37.9692903,22.0597116 L37.4023122,22.0597116 Z" id="Fill-27" fill="#FFFFFF"></path>
                                <path d="M40.1108627,20.9354991 L40.6737316,20.9354991 L40.398407,19.7377066 L40.3901884,19.7377066 L40.1108627,20.9354991 Z M39.3014347,22.0596576 L40.0367868,19.0977827 L40.7641365,19.0977827 L41.4789421,22.0596576 L40.9367281,22.0596576 L40.7929018,21.4361448 L40.0081297,21.4361448 L39.8478662,22.0596576 L39.3014347,22.0596576 Z" id="Fill-29" fill="#FFFFFF"></path>
                                <path d="M42.3544545,20.3859656 L42.6462162,20.3859656 C42.8968848,20.3859656 43.0489297,20.2627746 43.0489297,19.9755808 C43.0489297,19.688603 42.8968848,19.5654119 42.6462162,19.5654119 L42.3544545,19.5654119 L42.3544545,20.3859656 Z M43.11868,22.0596792 L42.6256696,20.8534653 L42.3544545,20.8534653 L42.3544545,22.0596792 L41.7874764,22.0596792 L41.7874764,19.0978043 L42.6092324,19.0978043 C43.2912715,19.0978043 43.6159078,19.4260258 43.6159078,19.9837863 C43.6159078,20.3530355 43.4844095,20.6198234 43.1679918,20.7388037 L43.7267513,22.0596792 L43.11868,22.0596792 Z" id="Fill-31" fill="#FFFFFF"></path>
                                <path d="M44.6804165,20.9354991 L45.2432853,20.9354991 L44.9679608,19.7377066 L44.9597421,19.7377066 L44.6804165,20.9354991 Z M43.8709884,22.0596576 L44.6063406,19.0977827 L45.3336903,19.0977827 L46.0484958,22.0596576 L45.5062818,22.0596576 L45.3624556,21.4361448 L44.5776835,21.4361448 L44.41742,22.0596576 L43.8709884,22.0596576 Z" id="Fill-33" fill="#FFFFFF"></path>
                                <polygon id="Fill-35" fill="#FFFFFF" points="47.4994429 22.0596684 47.4994429 19.0977935 48.066421 19.0977935 48.066421 21.5590227 48.9785821 21.5590227 48.9785821 22.0596684"></polygon>
                                <path d="M49.9320743,20.9354991 L50.494943,20.9354991 L50.2196185,19.7377066 L50.2113999,19.7377066 L49.9320743,20.9354991 Z M49.1226462,22.0596576 L49.8579983,19.0977827 L50.5853481,19.0977827 L51.3001536,22.0596576 L50.7579396,22.0596576 L50.6141133,21.4361448 L49.8293412,21.4361448 L49.6690777,22.0596576 L49.1226462,22.0596576 Z" id="Fill-37" fill="#FFFFFF"></path>
                                <path d="M54.1685351,21.8133727 C54.0165984,21.9856891 53.8521174,22.1005666 53.638649,22.1005666 C53.0880001,22.1005666 52.7018321,21.8380973 52.7018321,21.1080205 L52.7018321,20.0496142 C52.7018321,19.3193214 53.0880001,19.0567442 53.638649,19.0567442 C54.2178469,19.0567442 54.5301553,19.3890684 54.550702,20.0618145 L53.9837238,20.0618145 C53.9837238,19.680365 53.8440069,19.5572819 53.638649,19.5572819 C53.4126364,19.5572819 53.2688102,19.6474349 53.2688102,19.9756564 L53.2688102,21.1817623 C53.2688102,21.5098758 53.4126364,21.6001368 53.638649,21.6001368 C53.8521174,21.6001368 53.9837238,21.4443396 53.9837238,21.1900759 L53.9837238,21.009554 L53.5851197,21.009554 L53.5851197,20.5418384 L54.550702,20.5418384 L54.550702,22.0596468 L54.2548309,22.0596468 L54.1685351,21.8133727 Z" id="Fill-39" fill="#FFFFFF"></path>
                                <polygon id="Fill-41" fill="#FFFFFF" points="55.0357748 22.0596684 55.0357748 19.0977935 56.5888817 19.0977935 56.5888817 19.5983313 55.6027529 19.5983313 55.6027529 20.2792828 56.3546505 20.2792828 56.3546505 20.7797126 55.6027529 20.7797126 55.6027529 21.5590227 56.629975 21.5590227 56.629975 22.0596684"></polygon>
                                <polygon id="Fill-43" fill="#FFFFFF" points="57.1232772 22.0596684 57.1232772 19.0977935 57.7436765 19.0977935 58.532558 20.8534545 58.5407766 20.8534545 58.5407766 19.0977935 59.058551 19.0977935 59.058551 22.0596684 58.5162288 22.0596684 57.6491622 20.1478863 57.6410517 20.1478863 57.6410517 22.0596684"></polygon>
                                <polygon id="Fill-45" fill="#FFFFFF" points="59.6013057 22.0596684 59.6013057 19.0977935 61.1544127 19.0977935 61.1544127 19.5983313 60.1682839 19.5983313 60.1682839 20.2792828 60.9201814 20.2792828 60.9201814 20.7797126 60.1682839 20.7797126 60.1682839 21.5590227 61.1955059 21.5590227 61.1955059 22.0596684"></polygon>
                                <path d="M62.2229658,20.3859656 L62.5147276,20.3859656 C62.7653962,20.3859656 62.9173329,20.2627746 62.9173329,19.9755808 C62.9173329,19.688603 62.7653962,19.5654119 62.5147276,19.5654119 L62.2229658,19.5654119 L62.2229658,20.3859656 Z M62.9871913,22.0596792 L62.494181,20.8534653 L62.2229658,20.8534653 L62.2229658,22.0596792 L61.6559877,22.0596792 L61.6559877,19.0978043 L62.4776356,19.0978043 C63.1597828,19.0978043 63.484311,19.4260258 63.484311,19.9837863 C63.484311,20.3530355 63.3528127,20.6198234 63.0365032,20.7388037 L63.5952626,22.0596792 L62.9871913,22.0596792 Z" id="Fill-47" fill="#FFFFFF"></path>
                                <path d="M64.5487117,20.9354991 L65.1115802,20.9354991 L64.8363638,19.7377066 L64.8281453,19.7377066 L64.5487117,20.9354991 Z M63.7393915,22.0596576 L64.4747436,19.0977827 L65.2019853,19.0977827 L65.9168992,22.0596576 L65.3745769,22.0596576 L65.2308586,21.4361448 L64.446087,21.4361448 L64.285715,22.0596576 L63.7393915,22.0596576 Z" id="Fill-49" fill="#FFFFFF"></path>
                                <path d="M66.7431971,21.1818056 C66.7431971,21.509919 66.8870229,21.60018 67.1130358,21.60018 C67.3390482,21.60018 67.4828745,21.509919 67.4828745,21.1818056 L67.4828745,20.9848727 L68.0498529,20.9848727 L68.0498529,21.1079557 C68.0498529,21.8380326 67.6635766,22.1006097 67.1130358,22.1006097 C66.562387,22.1006097 66.1762188,21.8380326 66.1762188,21.1079557 L66.1762188,20.0496573 C66.1762188,19.3193646 66.562387,19.0567874 67.1130358,19.0567874 C67.6635766,19.0567874 68.0498529,19.3193646 68.0498529,20.0496573 L68.0498529,20.0578629 L67.4828745,20.0578629 L67.4828745,19.9755916 C67.4828745,19.6474781 67.3390482,19.5572172 67.1130358,19.5572172 C66.8870229,19.5572172 66.7431971,19.6474781 66.7431971,19.9755916 L66.7431971,21.1818056 Z" id="Fill-51" fill="#FFFFFF"></path>
                                <g id="Fill-53-Clipped">
                                    <mask id="mask-2" fill="white">
                                        <use xlink:href="#path-1"></use>
                                    </mask>
                                    <g id="path-1"></g>
                                    <polygon id="Fill-53" fill="#FFFFFF" mask="url(#mask-2)" points="68.543036 22.0596145 69.1100144 22.0596145 69.1100144 19.0977395 68.543036 19.0977395"></polygon>
                                </g>
                                <g id="Fill-55-Clipped">
                                    <mask id="mask-4" fill="white">
                                        <use xlink:href="#path-3"></use>
                                    </mask>
                                    <g id="path-1"></g>
                                    <path d="M71.2098876,18.330727 L70.6058175,18.9296231 L70.1908846,18.9296231 L70.572943,18.330727 L71.2098876,18.330727 Z M70.1703378,21.1818272 C70.1703378,21.5099406 70.3141642,21.6002015 70.5401765,21.6002015 C70.7660815,21.6002015 70.9100159,21.5099406 70.9100159,21.1818272 L70.9100159,19.9756132 C70.9100159,19.6474997 70.7660815,19.5572388 70.5401765,19.5572388 C70.3141642,19.5572388 70.1703378,19.6474997 70.1703378,19.9756132 L70.1703378,21.1818272 Z M69.6033601,20.049571 C69.6033601,19.3192782 69.9895277,19.056809 70.5401765,19.056809 C71.0906093,19.056809 71.4769936,19.3192782 71.4769936,20.049571 L71.4769936,21.1079773 C71.4769936,21.8380541 71.0906093,22.1006313 70.5401765,22.1006313 C69.9895277,22.1006313 69.6033601,21.8380541 69.6033601,21.1079773 L69.6033601,20.049571 Z" id="Fill-55" fill="#FFFFFF" mask="url(#mask-4)"></path>
                                </g>
                                <g id="Fill-56-Clipped">
                                    <mask id="mask-6" fill="white">
                                        <use xlink:href="#path-5"></use>
                                    </mask>
                                    <g id="path-1"></g>
                                    <polygon id="Fill-56" fill="#FFFFFF" mask="url(#mask-6)" points="71.9703501 22.0596684 71.9703501 19.0977935 72.5907492 19.0977935 73.3796306 20.8534545 73.3878497 20.8534545 73.3878497 19.0977935 73.905624 19.0977935 73.905624 22.0596684 73.3633017 22.0596684 72.4962349 20.1478863 72.4881244 20.1478863 72.4881244 22.0596684"></polygon>
                                </g>
                                <g id="Fill-57-Clipped">
                                    <mask id="mask-8" fill="white">
                                        <use xlink:href="#path-7"></use>
                                    </mask>
                                    <g id="path-1"></g>
                                    <path d="M76.1576076,21.5590551 L76.3548547,21.5590551 C76.6671628,21.5590551 76.8479729,21.4114634 76.8479729,20.9683644 L76.8479729,20.1890543 C76.8479729,19.7706799 76.7082564,19.5983636 76.3548547,19.5983636 L76.1576076,19.5983636 L76.1576076,21.5590551 Z M75.5906293,19.0978259 L76.3795107,19.0978259 C77.028675,19.0978259 77.3901873,19.3768141 77.4149513,20.1234101 L77.4149513,21.0340087 C77.3901873,21.7807126 77.028675,22.0597008 76.3795107,22.0597008 L75.5906293,22.0597008 L75.5906293,19.0978259 Z" id="Fill-57" fill="#FFFFFF" mask="url(#mask-8)"></path>
                                </g>
                                <g id="Fill-58-Clipped">
                                    <mask id="mask-10" fill="white">
                                        <use xlink:href="#path-9"></use>
                                    </mask>
                                    <g id="path-1"></g>
                                    <polygon id="Fill-58" fill="#FFFFFF" mask="url(#mask-10)" points="77.8754874 22.0596684 77.8754874 19.0977935 79.4285942 19.0977935 79.4285942 19.5983313 78.4424651 19.5983313 78.4424651 20.2792828 79.1943628 20.2792828 79.1943628 20.7797126 78.4424651 20.7797126 78.4424651 21.5590227 79.4696872 21.5590227 79.4696872 22.0596684"></polygon>
                                </g>
                                <g id="Fill-59-Clipped">
                                    <mask id="mask-12" fill="white">
                                        <use xlink:href="#path-11"></use>
                                    </mask>
                                    <g id="path-1"></g>
                                    <path d="M81.6724343,20.4024091 L81.9766327,20.4024091 C82.2559583,20.4024091 82.3955668,20.262807 82.3955668,19.9838187 C82.3955668,19.7050464 82.2559583,19.5654443 81.9766327,19.5654443 L81.6724343,19.5654443 L81.6724343,20.4024091 Z M81.1054566,22.0597116 L81.1054566,19.0978367 L81.9231033,19.0978367 C82.6215797,19.0978367 82.9626532,19.4260582 82.9626532,19.9838187 C82.9626532,20.5417952 82.6215797,20.8699088 81.9231033,20.8699088 L81.6724343,20.8699088 L81.6724343,22.0597116 L81.1054566,22.0597116 Z" id="Fill-59" fill="#FFFFFF" mask="url(#mask-12)"></path>
                                </g>
                                <g id="Fill-60-Clipped">
                                    <mask id="mask-14" fill="white">
                                        <use xlink:href="#path-13"></use>
                                    </mask>
                                    <g id="path-1"></g>
                                    <path d="M83.8138988,20.9354991 L84.3767679,20.9354991 L84.1015515,19.7377066 L84.0933331,19.7377066 L83.8138988,20.9354991 Z M83.0045792,22.0596576 L83.7399313,19.0977827 L84.467173,19.0977827 L85.1820863,22.0596576 L84.639764,22.0596576 L84.4960463,21.4361448 L83.711274,21.4361448 L83.5509027,22.0596576 L83.0045792,22.0596576 Z" id="Fill-60" fill="#FFFFFF" mask="url(#mask-14)"></path>
                                </g>
                                <g id="Fill-61-Clipped">
                                    <mask id="mask-16" fill="white">
                                        <use xlink:href="#path-15"></use>
                                    </mask>
                                    <g id="path-1"></g>
                                    <polygon id="Fill-61" fill="#FFFFFF" mask="url(#mask-16)" points="85.4864791 19.0977827 87.129991 19.0977827 87.129991 19.5737038 86.0082546 21.5590119 87.154647 21.5590119 87.154647 22.0596576 85.371526 22.0596576 85.371526 21.5797417 86.4931544 19.5983205 85.4864791 19.5983205"></polygon>
                                </g>
                                <g id="Fill-62-Clipped">
                                    <mask id="mask-18" fill="white">
                                        <use xlink:href="#path-17"></use>
                                    </mask>
                                    <g id="path-1"></g>
                                    <path d="M8.37303282,7.50044385 L9.45270274,7.50044385 C11.2745376,7.50044385 11.8368657,6.93901234 11.8368657,5.00779603 C11.8368657,3.07647175 11.2745376,2.51504027 9.45270274,2.51504027 L8.37303282,2.51504027 L8.37303282,7.50044385 Z M5.58399364,16.438109 L5.58399364,0.22450781 L9.5876615,0.22450781 C13.0290013,0.22450781 14.6259049,1.5494861 14.6259049,5.00779603 C14.6259049,8.46599797 13.0290013,9.79097627 9.5876615,9.79097627 L8.37303282,9.79097627 L8.37303282,16.438109 L5.58399364,16.438109 Z" id="Fill-62" fill="#FFFFFF" mask="url(#mask-18)"></path>
                                </g>
                                <g id="Fill-63-Clipped">
                                    <mask id="mask-20" fill="white">
                                        <use xlink:href="#path-19"></use>
                                    </mask>
                                    <g id="path-1"></g>
                                    <path d="M19.3497745,10.4197903 L21.5989787,10.4197903 L20.4968157,3.45825595 L20.4518294,3.45825595 L19.3497745,10.4197903 Z M18.4500495,16.4381198 L15.7509829,16.4381198 L18.7424601,0.224518607 L22.206293,0.224518607 L25.1976622,16.4381198 L22.4985955,16.4381198 L22.003855,12.8450663 L18.9448983,12.8450663 L18.4500495,16.4381198 Z" id="Fill-63" fill="#FFFFFF" mask="url(#mask-20)"></path>
                                </g>
                                <g id="Fill-64-Clipped">
                                    <mask id="mask-22" fill="white">
                                        <use xlink:href="#path-21"></use>
                                    </mask>
                                    <g id="path-1"></g>
                                    <path d="M32.4402101,5.63652371 L32.4402101,4.37902516 C32.4402101,3.00913236 31.8105108,2.42535159 31.0907308,2.42535159 C29.9660747,2.42535159 29.6061847,3.00913236 29.6061847,4.22171638 L29.6061847,12.4408572 C29.6061847,13.6535492 29.9660747,14.23733 31.0907308,14.23733 C32.1029214,14.23733 32.4402101,13.6535492 32.4402101,12.5980581 L32.4402101,10.6443845 L35.2292493,10.6443845 L35.2292493,12.5082291 C35.2292493,14.7987615 33.87977,16.662714 31.0907308,16.662714 C28.1666248,16.662714 26.8171455,14.7987615 26.8171455,12.5082291 L26.8171455,4.1543446 C26.8171455,1.86392011 28.1666248,-3.23902777e-05 31.0907308,-3.23902777e-05 C33.87977,-3.23902777e-05 35.2292493,2.02112093 35.2292493,4.44639694 L35.2292493,5.63652371 L32.4402101,5.63652371 Z" id="Fill-64" fill="#FFFFFF" mask="url(#mask-22)"></path>
                                </g>
                                <g id="Fill-65-Clipped">
                                    <mask id="mask-24" fill="white">
                                        <use xlink:href="#path-23"></use>
                                    </mask>
                                    <g id="path-1"></g>
                                    <polygon id="Fill-65" fill="#FFFFFF" mask="url(#mask-24)" points="38.4460472 16.4381738 41.2350864 16.4381738 41.2350864 0.224572591 38.4460472 0.224572591"></polygon>
                                </g>
                                <g id="Fill-66-Clipped">
                                    <mask id="mask-26" fill="white">
                                        <use xlink:href="#path-25"></use>
                                    </mask>
                                    <g id="path-1"></g>
                                    <polygon id="Fill-66" fill="#FFFFFF" mask="url(#mask-26)" points="44.3168173 16.4381306 44.3168173 0.224529404 52.0992218 0.224529404 52.0992218 2.64980542 47.1058565 2.64980542 47.1058565 6.82674765 50.8396069 6.82674765 50.8396069 9.25202368 47.1058565 9.25202368 47.1058565 16.4381306"></polygon>
                                </g>
                                <g id="Fill-67-Clipped">
                                    <mask id="mask-28" fill="white">
                                        <use xlink:href="#path-27"></use>
                                    </mask>
                                    <g id="path-1"></g>
                                    <polygon id="Fill-67" fill="#FFFFFF" mask="url(#mask-28)" points="54.685758 16.4381738 57.4747972 16.4381738 57.4747972 0.224572591 54.685758 0.224572591"></polygon>
                                </g>
                                <g id="Fill-68-Clipped">
                                    <mask id="mask-30" fill="white">
                                        <use xlink:href="#path-29"></use>
                                    </mask>
                                    <g id="path-1"></g>
                                    <path d="M65.6398338,4.22177037 C65.5273677,2.82942031 64.7850946,2.42529761 64.1552876,2.42529761 C63.2555624,2.42529761 62.7608219,3.00918634 62.7608219,4.01965503 C62.7608219,6.78178994 68.4288727,8.10676824 68.4288727,12.508175 C68.4288727,15.1805889 66.6294228,16.662768 64.0203285,16.662768 C61.4336194,16.662768 59.9491814,14.5967002 59.8368239,12.1714242 L62.4909043,11.7896508 C62.6033699,13.4289227 63.2555624,14.237384 64.1552876,14.237384 C65.1224916,14.237384 65.7746843,13.720867 65.7746843,12.7552049 C65.7746843,9.54403277 60.1066333,8.69065693 60.1066333,4.04211229 C60.1066333,1.45963547 61.6811519,-8.63740738e-05 64.4252047,-8.63740738e-05 C66.696902,-8.63740738e-05 68.0464897,1.63929354 68.2939142,3.929826 L65.6398338,4.22177037 Z" id="Fill-68" fill="#FFFFFF" mask="url(#mask-30)"></path>
                                </g>
                                <g id="Fill-69-Clipped">
                                    <mask id="mask-32" fill="white">
                                        <use xlink:href="#path-31"></use>
                                    </mask>
                                    <g id="path-1"></g>
                                    <polygon id="Fill-69" fill="#FFFFFF" mask="url(#mask-32)" points="72.1625475 2.64980542 69.4634809 2.64980542 69.4634809 0.224529404 77.6506531 0.224529404 77.6506531 2.64980542 74.9515865 2.64980542 74.9515865 16.4381306 72.1625475 16.4381306"></polygon>
                                </g>
                                <g id="Fill-70-Clipped">
                                    <mask id="mask-34" fill="white">
                                        <use xlink:href="#path-33"></use>
                                    </mask>
                                    <g id="path-1"></g>
                                    <path d="M81.4071457,10.4197903 L83.656458,10.4197903 L82.5542949,3.45825595 L82.5093087,3.45825595 L81.4071457,10.4197903 Z M80.5075284,16.4381198 L77.8084618,16.4381198 L80.7999391,0.224518607 L84.2636639,0.224518607 L87.2551412,16.4381198 L84.5560746,16.4381198 L84.0612261,12.8450663 L81.0023775,12.8450663 L80.5075284,16.4381198 Z" id="Fill-70" fill="#FFFFFF" mask="url(#mask-34)"></path>
                                </g>
                                <g id="Fill-71-Clipped">
                                    <mask id="mask-36" fill="white">
                                        <use xlink:href="#path-35"></use>
                                    </mask>
                                    <g id="path-1"></g>
                                    <path d="M89.3245197,16.4381738 L91.9786001,16.4381738 L91.9786001,13.7883252 L89.3245197,13.7883252 L89.3245197,16.4381738 Z M89.2345473,0.224572591 L92.0685724,0.224572591 L91.5737239,11.6773429 L89.7292878,11.6773429 L89.2345473,0.224572591 Z" id="Fill-71" fill="#FFFFFF" mask="url(#mask-36)"></path>
                                </g>
                                <g id="Fill-72-Clipped">
                                    <mask id="mask-38" fill="white">
                                        <use xlink:href="#path-37"></use>
                                    </mask>
                                    <g id="path-1"></g>
                                    <path d="M0.0898643543,2.87388135 L2.74048432,2.87388135 L2.74048432,0.227595683 L0.0898643543,0.227595683 L0.0898643543,2.87388135 Z M2.83024054,16.4194954 L0,16.4194954 L0.49409174,4.98194859 L2.3361488,4.98194859 L2.83024054,16.4194954 Z" id="Fill-72" fill="#FFFFFF" mask="url(#mask-38)"></path>
                                </g>
                                <g id="Fill-73-Clipped">
                                    <mask id="mask-40" fill="white">
                                        <use xlink:href="#path-39"></use>
                                    </mask>
                                    <g id="path-1"></g>
                                    <path d="M39.1926242,30.027558 L39.1926242,31.3362331 C39.1926242,31.5148115 39.270485,31.6083115 39.4443742,31.6083115 C39.6182634,31.6083115 39.6987195,31.5148115 39.6987195,31.3362331 L39.6987195,30.027558 L40.0568792,30.027558 L40.0568792,31.3388244 C40.0568792,31.7508287 39.8129154,31.9243326 39.4443742,31.9243326 C39.0757249,31.9243326 38.8343563,31.7508287 38.8343563,31.3388244 L38.8343563,30.027558 L39.1926242,30.027558 Z" id="Fill-73" fill="#FFFFFF" mask="url(#mask-40)"></path>
                                </g>
                                <g id="Fill-74-Clipped">
                                    <mask id="mask-42" fill="white">
                                        <use xlink:href="#path-41"></use>
                                    </mask>
                                    <g id="path-1"></g>
                                    <polygon id="Fill-74" fill="#FFFFFF" mask="url(#mask-42)" points="40.4200783 31.8984311 40.4200783 30.0275688 40.8120859 30.0275688 41.3103951 31.1365039 41.3155858 31.1365039 41.3155858 30.0275688 41.6427094 30.0275688 41.6427094 31.8984311 41.3000136 31.8984311 40.7522845 30.6909216 40.7470937 30.6909216 40.7470937 31.8984311"></polygon>
                                </g>
                                <g id="Fill-75-Clipped">
                                    <mask id="mask-44" fill="white">
                                        <use xlink:href="#path-43"></use>
                                    </mask>
                                    <g id="path-1"></g>
                                    <path d="M43.0855567,30.851437 L43.2776134,30.851437 C43.4540979,30.851437 43.5424483,30.7635514 43.5424483,30.5872403 C43.5424483,30.4109293 43.4540979,30.3228277 43.2776134,30.3228277 L43.0855567,30.3228277 L43.0855567,30.851437 Z M42.7272888,31.8983988 L42.7272888,30.0275364 L43.2438737,30.0275364 C43.6851931,30.0275364 43.900608,30.2348341 43.900608,30.5872403 C43.900608,30.9395386 43.6851931,31.1468364 43.2438737,31.1468364 L43.0855567,31.1468364 L43.0855567,31.8983988 L42.7272888,31.8983988 Z" id="Fill-75" fill="#FFFFFF" mask="url(#mask-44)"></path>
                                </g>
                                <g id="Fill-76-Clipped">
                                    <mask id="mask-46" fill="white">
                                        <use xlink:href="#path-45"></use>
                                    </mask>
                                    <g id="path-1"></g>
                                    <path d="M44.5077493,30.8411045 L44.6920199,30.8411045 C44.850445,30.8411045 44.9464734,30.7634759 44.9464734,30.5819823 C44.9464734,30.4005967 44.850445,30.3227521 44.6920199,30.3227521 L44.5077493,30.3227521 L44.5077493,30.8411045 Z M44.9905945,31.8984311 L44.6791513,31.1365039 L44.5077493,31.1365039 L44.5077493,31.8984311 L44.1495896,31.8984311 L44.1495896,30.0275688 L44.6686617,30.0275688 C45.0995996,30.0275688 45.3046331,30.2348665 45.3046331,30.5871647 C45.3046331,30.8204828 45.2215816,30.9889122 45.0217388,31.0639496 L45.3747079,31.8984311 L44.9905945,31.8984311 Z" id="Fill-76" fill="#FFFFFF" mask="url(#mask-46)"></path>
                                </g>
                                <g id="Fill-77-Clipped">
                                    <mask id="mask-48" fill="white">
                                        <use xlink:href="#path-47"></use>
                                    </mask>
                                    <g id="path-1"></g>
                                    <path d="M45.919593,31.343834 C45.919593,31.5513478 46.0105387,31.6082466 46.1531754,31.6082466 C46.2959202,31.6082466 46.3868659,31.5513478 46.3868659,31.343834 L46.3868659,30.5819067 C46.3868659,30.374609 46.2959202,30.31771 46.1531754,30.31771 C46.0105387,30.31771 45.919593,30.374609 45.919593,30.5819067 L45.919593,31.343834 Z M45.5614332,30.6287646 C45.5614332,30.1674191 45.8053971,30.0015809 46.1531754,30.0015809 C46.5010619,30.0015809 46.7450257,30.1674191 46.7450257,30.6287646 L46.7450257,31.297192 C46.7450257,31.7586455 46.5010619,31.9243758 46.1531754,31.9243758 C45.8053971,31.9243758 45.5614332,31.7586455 45.5614332,31.297192 L45.5614332,30.6287646 Z" id="Fill-77" fill="#FFFFFF" mask="url(#mask-48)"></path>
                                </g>
                                <g id="Fill-78-Clipped">
                                    <mask id="mask-50" fill="white">
                                        <use xlink:href="#path-49"></use>
                                    </mask>
                                    <g id="path-1"></g>
                                    <polygon id="Fill-78" fill="#FFFFFF" mask="url(#mask-50)" points="47.6014622 30.781636 47.9051194 30.0275904 48.2866373 30.0275904 47.7752432 31.1418159 47.7752432 31.8984527 47.4171916 31.8984527 47.4171916 31.1418159 46.9057975 30.0275904 47.2874236 30.0275904"></polygon>
                                </g>
                                <g id="Fill-79-Clipped">
                                    <mask id="mask-52" fill="white">
                                        <use xlink:href="#path-51"></use>
                                    </mask>
                                    <g id="path-1"></g>
                                    <polygon id="Fill-79" fill="#FFFFFF" mask="url(#mask-52)" points="48.4786183 31.8984311 48.4786183 30.0275688 49.4596646 30.0275688 49.4596646 30.3436979 48.8367781 30.3436979 48.8367781 30.7738408 49.311729 30.7738408 49.311729 31.0899699 48.8367781 31.0899699 48.8367781 31.582302 49.4857263 31.582302 49.4857263 31.8984311"></polygon>
                                </g>
                                <g id="Fill-80-Clipped">
                                    <mask id="mask-54" fill="white">
                                        <use xlink:href="#path-53"></use>
                                    </mask>
                                    <g id="path-1"></g>
                                    <path d="M50.1032599,31.343834 C50.1032599,31.5513478 50.1942057,31.6082466 50.3368423,31.6082466 C50.4795872,31.6082466 50.5705329,31.5513478 50.5705329,31.343834 L50.5705329,31.2196713 L50.9286927,31.2196713 L50.9286927,31.297192 C50.9286927,31.7586455 50.6847288,31.9243758 50.3368423,31.9243758 C49.989064,31.9243758 49.7451002,31.7586455 49.7451002,31.297192 L49.7451002,30.6287646 C49.7451002,30.1674191 49.989064,30.0015809 50.3368423,30.0015809 C50.6847288,30.0015809 50.9286927,30.1674191 50.9286927,30.6287646 L50.9286927,30.6338391 L50.5705329,30.6338391 L50.5705329,30.5819067 C50.5705329,30.374609 50.4795872,30.31771 50.3368423,30.31771 C50.1942057,30.31771 50.1032599,30.374609 50.1032599,30.5819067 L50.1032599,31.343834 Z" id="Fill-80" fill="#FFFFFF" mask="url(#mask-54)"></path>
                                </g>
                                <g id="Fill-81-Clipped">
                                    <mask id="mask-56" fill="white">
                                        <use xlink:href="#path-55"></use>
                                    </mask>
                                    <g id="path-1"></g>
                                    <polygon id="Fill-81" fill="#FFFFFF" mask="url(#mask-56)" points="52.3041796 30.027558 52.3041796 30.3436871 51.8863266 30.3436871 51.8863266 31.8984204 51.5280587 31.8984204 51.5280587 30.3436871 51.1102057 30.3436871 51.1102057 30.027558"></polygon>
                                </g>
                                <g id="Fill-82-Clipped">
                                    <mask id="mask-58" fill="white">
                                        <use xlink:href="#path-57"></use>
                                    </mask>
                                    <g id="path-1"></g>
                                    <path d="M52.8440362,31.343834 C52.8440362,31.5513478 52.9348738,31.6082466 53.0776187,31.6082466 C53.2203634,31.6082466 53.3112011,31.5513478 53.3112011,31.343834 L53.3112011,30.5819067 C53.3112011,30.374609 53.2203634,30.31771 53.0776187,30.31771 C52.9348738,30.31771 52.8440362,30.374609 52.8440362,30.5819067 L52.8440362,31.343834 Z M52.4857683,30.6287646 C52.4857683,30.1674191 52.7297322,30.0015809 53.0776187,30.0015809 C53.4253969,30.0015809 53.6694689,30.1674191 53.6694689,30.6287646 L53.6694689,31.297192 C53.6694689,31.7586455 53.4253969,31.9243758 53.0776187,31.9243758 C52.7297322,31.9243758 52.4857683,31.7586455 52.4857683,31.297192 L52.4857683,30.6287646 Z" id="Fill-82" fill="#FFFFFF" mask="url(#mask-58)"></path>
                                </g>
                                <g id="Fill-83-Clipped">
                                    <mask id="mask-60" fill="white">
                                        <use xlink:href="#path-59"></use>
                                    </mask>
                                    <g id="path-1"></g>
                                    <path d="M55.0395705,31.5823344 L55.1641478,31.5823344 C55.3615034,31.5823344 55.4756992,31.4891584 55.4756992,31.2090905 L55.4756992,30.7166503 C55.4756992,30.4524536 55.387457,30.3436222 55.1641478,30.3436222 L55.0395705,30.3436222 L55.0395705,31.5823344 Z M54.6813027,30.0276011 L55.1798281,30.0276011 C55.5897869,30.0276011 55.8182868,30.2035883 55.8339671,30.6754066 L55.8339671,31.250658 C55.8182868,31.7223684 55.5897869,31.8984635 55.1798281,31.8984635 L54.6813027,31.8984635 L54.6813027,30.0276011 Z" id="Fill-83" fill="#FFFFFF" mask="url(#mask-60)"></path>
                                </g>
                                <g id="Fill-84-Clipped">
                                    <mask id="mask-62" fill="white">
                                        <use xlink:href="#path-61"></use>
                                    </mask>
                                    <g id="path-1"></g>
                                    <polygon id="Fill-84" fill="#FFFFFF" mask="url(#mask-62)" points="56.1243555 31.8984311 56.1243555 30.0275688 57.1054017 30.0275688 57.1054017 30.3436979 56.4826234 30.3436979 56.4826234 30.7738408 56.9575743 30.7738408 56.9575743 31.0899699 56.4826234 31.0899699 56.4826234 31.582302 57.1314635 31.582302 57.1314635 31.8984311"></polygon>
                                </g>
                                <g id="Fill-85-Clipped">
                                    <mask id="mask-64" fill="white">
                                        <use xlink:href="#path-63"></use>
                                    </mask>
                                    <g id="path-1"></g>
                                    <path d="M50.6425866,34.4972435 C50.7909547,34.6658889 51.1154829,34.658763 51.3088372,34.7823859 C51.0482198,34.8494338 50.720123,34.8492179 50.4840533,34.9406664 C50.5393129,34.7952341 50.5894898,34.6448352 50.6425866,34.4972435" id="Fill-85" fill="#FFFFFF" mask="url(#mask-64)"></path>
                                </g>
                                <g id="Fill-86-Clipped">
                                    <mask id="mask-66" fill="white">
                                        <use xlink:href="#path-65"></use>
                                    </mask>
                                    <g id="path-1"></g>
                                    <path d="M48.8026166,35.0832592 C48.7247558,35.4383646 48.5612481,35.8451865 48.4695454,36.2392682 C48.973586,36.2463941 49.5052023,36.1437169 50.0240581,36.1127302 C50.0940247,36.0189064 50.1288458,35.890101 50.166803,35.7642108 C50.2709418,35.9113706 50.3440445,36.1861481 50.2460696,36.3978726 C49.4591347,36.386428 48.8929136,37.0302388 48.1205776,37.0311025 C47.7746376,37.0317503 47.4809294,36.8326581 47.6446533,36.4452704 C47.876073,35.8980906 48.4496476,35.5159933 48.8026166,35.0832592" id="Fill-86" fill="#FFFFFF" mask="url(#mask-66)"></path>
                                </g>
                                <g id="Fill-87-Clipped">
                                    <mask id="mask-68" fill="white">
                                        <use xlink:href="#path-67"></use>
                                    </mask>
                                    <g id="path-1"></g>
                                    <path d="M51.2136957,33.863776 C51.0124471,33.8885006 50.8695941,34.1077828 50.7378796,34.1805529 C50.747504,34.1796892 50.7565878,34.1781777 50.7535599,34.1646817 C50.7776751,34.0567141 50.8235264,33.970448 50.8329347,33.8480128 C49.7771637,33.4768202 48.7499416,34.0195733 47.9937185,34.4339529 C47.3891076,34.7650895 46.8493808,35.1543126 46.4708908,35.5425641 C46.6075797,35.309786 46.7531362,35.0792752 46.9150218,34.8616125 C47.0793947,34.6406028 47.2624757,34.4407548 47.4067345,34.24393 C47.0907494,34.1615506 46.773791,34.0739889 46.4549942,34.0062933 C46.0016712,33.9102021 45.3712149,33.7505181 44.9957528,33.9588955 C44.887072,34.0191414 44.7982891,34.167057 44.6942584,34.1805529 C44.6085034,34.1916736 44.4669481,34.1290524 44.3611872,34.117284 C43.9736133,34.0742049 43.6170757,34.110482 43.266702,34.1805529 C42.9386053,34.2463052 42.2449952,34.3626943 42.1563204,34.6715896 C42.0994387,34.8693862 42.2261788,35.0617845 42.2040101,35.2574217 C42.1819495,35.4505757 41.9967057,35.7055952 41.9025157,35.859233 C41.7871304,36.0478524 41.6700147,36.2152022 41.4742813,36.302764 C41.3555435,35.712721 41.4846627,35.1881065 41.585341,34.6872448 C41.6473053,34.3788894 41.7727477,34.063732 41.6646077,33.7531092 C41.3622482,33.7111099 41.1074703,33.9500421 40.8080306,34.0695623 C40.2455944,34.2943508 39.6185985,34.4993812 39.5391156,35.146539 C39.4943457,35.5111456 39.6316835,35.74306 39.7294421,36.0018582 C39.9393418,36.5578914 40.1990942,37.0287381 40.5066444,37.4587729 C40.4230521,37.6129507 40.2253722,37.6532226 40.2052581,37.8705613 C40.2946899,37.9966675 40.4812315,38.0136184 40.6652858,38.0131865 C41.197551,38.011675 41.6337878,37.7442393 42.0294721,37.5222579 C42.8902666,37.038887 43.4684913,36.2945584 44.0756975,35.5901778 C44.1824317,35.466231 44.2704577,35.3166959 44.4087688,35.2418744 C44.5452415,35.8673307 44.2800822,36.2021381 44.0915941,36.7145523 C44.0188158,36.9119171 43.7893427,37.5295997 43.9011595,37.8229476 C44.0237903,38.144691 45.067774,38.1586188 45.3446125,37.9499175 C45.4841131,37.8446491 45.5396971,37.6067965 45.6144218,37.4587729 C45.7100176,37.26875 45.7927447,37.1043154 45.8681183,36.9362098 C45.8726602,37.6302255 46.3884881,37.8340683 46.9467069,37.981552 C48.1330028,38.2946581 49.3291396,37.7353859 49.9764657,37.3478902 C49.8956851,37.8623558 50.095636,37.9140723 50.4997553,37.9973153 C51.5460099,38.2130345 52.59951,37.9643852 53.4503556,37.7598946 C54.229937,37.5722469 54.8572572,37.4399866 54.9729671,36.6669386 C54.8479572,36.559187 54.5362977,36.5722511 54.322613,36.6036696 C53.6935625,36.695658 53.0843017,37.0131907 52.2447026,36.952081 C52.0919008,36.9408524 51.760776,36.8873005 51.7372015,36.7936926 C51.7003257,36.6481522 51.9624571,36.5454751 52.1813325,36.5085502 C52.8112481,36.402526 53.7208138,36.5100617 54.2274498,36.3183113 C54.4710892,36.2266468 54.7644731,35.9620182 54.735059,35.6693181 C54.7151613,35.4710896 54.4568148,35.3677646 54.2116614,35.3525412 C53.5175106,35.3093541 53.0213642,35.7138007 52.2923923,35.5741987 C52.3834462,35.4594291 52.4002079,35.2700539 52.5142956,35.1783894 C53.0469934,35.1671608 53.5645515,35.2728611 54.0688084,35.2418744 C54.769772,35.1981475 55.1653482,34.9029641 55.4964729,34.5133091 C55.5322672,34.4710937 55.6210502,34.4259633 55.5916361,34.3547047 C54.3740877,34.170188 52.7150035,33.6801231 51.2136957,33.863776 M56.7337028,33.927045 C56.7528437,34.0040259 56.6673049,34.077228 56.6227512,34.1330472 C56.24956,34.6016266 55.8354919,35.1553923 55.3379397,35.5109296 C55.3739503,35.6970658 55.3550257,35.9446354 55.2902499,36.0811065 C55.4201261,36.2470527 55.5584371,36.4045773 55.6392178,36.6194329 C55.5334568,37.1815122 55.2868975,37.6175933 54.8937004,37.9024117 C54.5099115,38.1802124 53.9911639,38.2891517 53.4025577,38.424759 C52.2646004,38.6871202 50.3923722,38.9451628 49.5482312,38.2665865 C48.6340155,38.8017818 46.7864433,38.8722847 45.9314883,38.234952 C45.3236333,39.0026015 42.9259529,38.9353377 43.2825986,37.4112672 C42.8381431,37.7474783 42.1809763,38.2109831 41.5535479,38.4722647 C40.8263063,38.7754377 39.4488187,38.7413199 39.5865891,37.7122808 C39.6030264,37.5897377 39.6549336,37.5200985 39.7135455,37.4112672 C39.5008341,37.0406145 39.3663079,36.7837596 39.2377294,36.4609364 C39.1144498,36.1521491 38.9262862,35.8002828 38.9046582,35.3684124 C38.8583742,34.450256 39.5750182,33.8679868 40.284633,33.5947208 C40.646902,33.4551187 40.9413672,33.2531113 41.2997433,33.1511899 C41.8356852,32.9989557 42.2954966,33.2933833 42.3307502,33.7847438 C42.953853,33.6000112 43.7126715,33.3964923 44.5357252,33.5153646 C45.1912699,33.0069452 46.4706745,33.3212389 47.3115713,33.5628704 C47.5017896,33.617502 47.757757,33.7589395 47.8984471,33.7531092 C48.0178337,33.7480348 48.2333568,33.5867312 48.3585829,33.5312359 C48.9484867,33.2701702 49.7199576,32.9920457 50.5633416,33.1352107 C50.7231726,33.1624185 50.8692697,33.2467413 51.0391577,33.2621806 C51.1545431,33.2724375 51.2957739,33.2362684 51.4198105,33.2303302 C53.3909867,33.1345629 55.0316871,33.6626324 56.7337028,33.927045" id="Fill-87" fill="#FFFFFF" mask="url(#mask-68)"></path>
                                </g>
                            </g>
                        </g>
                    </g>
                </g>
            </g>
        </g>
    </g>
</svg>