<?xml version="1.0" encoding="utf-8"?>
<!-- Generator: Adobe Illustrator 22.0.1, SVG Export Plug-In . SVG Version: 6.00 Build 0)  -->
<svg version="1.1" id="Capa_1" xmlns="http://www.w3.org/2000/svg" xmlns:xlink="http://www.w3.org/1999/xlink" x="0px" y="0px"
	 viewBox="0 0 924 1045" style="enable-background:new 0 0 924 1045;" xml:space="preserve">
<style type="text/css">
	.st0{fill:none;stroke:#1D1D1B;stroke-width:6;stroke-linecap:round;stroke-linejoin:round;}
	.st1{fill:none;stroke:#000000;stroke-width:6;stroke-linecap:round;stroke-linejoin:round;}
	.st2{opacity:0.8;fill:#F8BD3A;}
	.st3{opacity:0.8;fill:#32AEC1;}
	.st4{opacity:0.9;fill:#EA5350;enable-background:new    ;}
	.st5{fill:#FFFFFF;}
	.st6{fill:#32AEC1;}
</style>
<title>Group 13</title>
<desc>Created with Sketch.</desc>
<g id="Page-1">
	<g id="Group-13" transform="translate(3.000000, 3.000000)">
		<path id="Stroke-201" class="st0" d="M433.7,933.6c0,1,0.8,1.9,1.9,1.9c1,0,1.9-0.8,1.9-1.9c0-1-0.8-1.9-1.9-1.9
			C434.5,931.7,433.7,932.5,433.7,933.6z"/>
		<path id="Stroke-203" class="st0" d="M426.1,966.8c1,0,1.9-0.8,1.9-1.9c0-1-0.8-1.9-1.9-1.9s-1.9,0.8-1.9,1.9
			C424.3,966,425.1,966.8,426.1,966.8z"/>
		<path id="Stroke-205" class="st0" d="M424.9,974.3c0,0.6,0.2,1.1,0.6,1.5h0c0.4,0.4,0.7,0.9,0.7,1.6c0,0.4-0.1,0.7-0.3,1.1h0
			c-0.2,0.3-0.3,0.7-0.3,1.1c0,1.2,1,2.2,2.2,2.2c1.2,0,2.2-1,2.2-2.2c0-0.6-0.2-1.1-0.6-1.5h0c-0.4-0.4-0.7-1-0.7-1.6
			c0-0.4,0.1-0.8,0.3-1.1h0c0.2-0.3,0.3-0.7,0.3-1.1c0-1.2-1-2.2-2.2-2.2C425.9,972.2,424.9,973.2,424.9,974.3z"/>
		<path id="Stroke-207" class="st0" d="M426.1,990.4c0-1-0.8-1.9-1.9-1.9c-1,0-1.9,0.8-1.9,1.9c0,1,0.8,1.9,1.9,1.9
			C425.3,992.3,426.1,991.5,426.1,990.4z"/>
		<path id="Stroke-209" class="st0" d="M430.5,994.4c-0.7-0.7-1.9-0.7-2.6,0l-2.7,2.7c-0.7,0.7-0.7,1.9,0,2.6c0.7,0.7,1.9,0.7,2.6,0
			l2.7-2.7C431.2,996.3,431.2,995.1,430.5,994.4z"/>
		<path id="Stroke-211" class="st0" d="M428.3,1004.5c-1,0-1.9,0.8-1.9,1.9v3.7c0,1,0.8,1.9,1.9,1.9c1,0,1.9-0.8,1.9-1.9v-3.7
			C430.2,1005.4,429.3,1004.5,428.3,1004.5z"/>
		<path id="Stroke-213" class="st0" d="M436.9,1023.8l-3.2-3.2c-0.7-0.7-1.9-0.7-2.6,0c-0.7,0.7-0.7,1.9,0,2.6l3.2,3.2
			c0.7,0.7,1.9,0.7,2.6,0C437.7,1025.7,437.7,1024.5,436.9,1023.8z"/>
		<path id="Stroke-215" class="st0" d="M454.1,1035.1l-1.9-1.9c-0.7-0.7-1.9-0.7-2.6,0c-0.7,0.7-0.7,1.9,0,2.6l1.9,1.9
			c0.7,0.7,1.9,0.7,2.6,0C454.8,1037,454.8,1035.8,454.1,1035.1z"/>
		<path id="Stroke-217" class="st0" d="M419,971.8c-0.4,0-0.8,0.2-1.1,0.4l0,0l-2.2,1.8c-0.3,0.3-0.3,0.9,0,1.3
			c0.2,0.2,0.4,0.3,0.6,0.3h2.7c1,0,1.9-0.8,1.9-1.9C420.9,972.6,420.1,971.8,419,971.8z"/>
		<path id="Stroke-219" class="st0" d="M440.7,1029.1c-1-1-2.6-1-3.5,0c-1,1-1,2.6,0,3.5l3.3,3.3c1,1,2.6,1,3.5,0c1-1,1-2.6,0-3.5
			L440.7,1029.1z"/>
		<path id="Stroke-3" class="st1" d="M289.3,235.2c-0.5-0.4-0.9-0.8-1.2-1.2C288.5,234.4,288.9,234.8,289.3,235.2z"/>
		<path id="Stroke-5" class="st1" d="M292.9,240.5c0-2-1.1-3.8-2.8-4.8c-0.3-0.2-0.5-0.4-0.7-0.6c-0.5-0.4-0.9-0.8-1.2-1.2
			c0,0-0.1-0.1-0.1-0.1c-0.1-0.1-0.2-0.2-0.2-0.3c-0.1-0.1-0.1-0.2-0.2-0.2c-0.1-0.1-0.1-0.2-0.2-0.3c-0.1-0.1-0.1-0.2-0.2-0.3
			c0-0.1-0.1-0.2-0.1-0.3c-0.1-0.1-0.1-0.3-0.1-0.4c0-0.1-0.1-0.2-0.1-0.2c-0.1-0.2-0.1-0.5-0.2-0.7c-0.3,2.3-2.3,4.1-4.7,4.1
			c-0.1,0-0.1,0-0.2,0v0c-2.7,0-5.1,1.7-6.1,4.1c-1.8,4.1-5.5,7.1-10.1,7.8c0.5-0.1,1.1-0.2,1.6-0.2c2.3,0,4.3,0.9,5.9,2.3
			c1.6,1.8,3.9,2.9,6.5,2.9c3.3,0,6.1-1.8,7.7-4.5h0c0.4-0.7,1-1.3,1.8-1.6v0c1.3-0.5,2.4-1.5,3.1-2.7c0.1-0.1,0.1-0.2,0.2-0.4
			C292.7,242,292.9,241.3,292.9,240.5z"/>
		<path id="Stroke-7" class="st1" d="M292.3,243c0.1-0.1,0.1-0.2,0.2-0.4C292.4,242.7,292.3,242.9,292.3,243z"/>
		<path id="Stroke-9" class="st1" d="M344.1,281.8L344.1,281.8c-2.6-1.6-4.3-4.4-4.3-7.6c0-0.5,0-1,0.1-1.5c-1.3,2-3.5,3.3-6.1,3.3
			c-1.8,0-3.5-0.7-4.8-1.8h0c-1.3-1.3-3.1-2-5-2h-9.9c-2.6,0-5-1.1-6.8-2.8v0c-0.8-0.8-1.9-1.3-3.1-1.3v0c-1.2,0-2.3-0.2-3.4-0.6
			v0.1c4.8,1.1,8.4,5.5,8.4,10.6c0,0.3,0,1,0,1.3h0c0,0.1,0,0.3,0,0.4c0,4.9,4,8.8,8.8,8.8h3.8c0.9,0,1.7,0.4,2.3,1l16.2,17.4v0
			c1,1.1,2.5,1.8,4.1,1.8c0.2,0,0.3,0,0.5,0c1.5-0.1,2.9-0.9,3.8-2l0,0c0.1-0.2,0.2-0.3,0.4-0.5l2.7-3.8l7.2-9.9L344.1,281.8z"/>
		<path id="Stroke-11" class="st1" d="M345,239.1c0-1.8-0.5-3.4-1.3-4.8l0,0l-3.9-7.7h0c0.5,1,0.8,2.1,0.8,3.2
			c0,3.8-3.1,6.9-6.9,6.9c-1.4,0-2.7-0.4-3.8-1.1c-0.8-0.3-1.7-0.5-2.6-0.5c-2.5,0-4.7,1.4-5.9,3.5c-0.8,2.9-3.5,5-6.6,5
			c-0.6,0-1.2-0.1-1.7-0.2v0c-0.4-0.1-0.9-0.1-1.4-0.1c-3.1,0-5.7,2-6.6,4.8h0c-0.8,2.1-2.5,3.7-4.7,4.3l0,0l-8.7,2.8v0
			c0,5.8,3.8,10.7,9.1,12.3c1.1,0.3,2.2,0.5,3.4,0.6v0c1.2,0,2.3,0.5,3.1,1.3v0c1.7,1.7,4.1,2.8,6.8,2.8h9.9c2,0,3.7,0.8,5,2h0
			c1.3,1.1,2.9,1.8,4.8,1.8c2.5,0,4.8-1.3,6.1-3.3c0.5-0.8,0.9-1.6,1-2.5h0l0-0.1c0-0.2,0.1-0.5,0.1-0.7l3.9-28.8h0
			C345,240.1,345,239.6,345,239.1z"/>
		<path id="Stroke-13" class="st1" d="M400.3,307.1C400.3,307.1,400.3,307.1,400.3,307.1C400.3,307.2,400.3,307.2,400.3,307.1
			C400.3,307.2,400.3,307.2,400.3,307.1z M400,308.1C400,308,400,308,400,308.1c0-0.1,0-0.1,0-0.2C400,308,400,308,400,308.1
			C400,308.1,400,308.1,400,308.1z M399.8,308.7c0,0.1,0,0.1,0,0.2C399.8,308.8,399.8,308.8,399.8,308.7z M399.6,309.8
			C399.6,309.8,399.6,309.8,399.6,309.8C399.6,309.8,399.6,309.8,399.6,309.8z M407.9,299c0-1.6-1.1-2.9-2.5-3.3v0l-0.5-0.2
			l-0.6-0.2l-13.2-4.6c-0.2-0.1-0.4-0.2-0.6-0.2l0,0v0c-0.7-0.2-1.4-0.3-2.1-0.3c-1,0-2,0.2-2.8,0.6l0,0l0,0c-0.1,0-0.2,0.1-0.2,0.1
			L374,296v0c-1.1,0.4-2.3,0.6-3.6,0.6c-2.3,0-4.5-0.7-6.2-2c-1.4-1.2-3.3-2-5.3-2c-4.5,0-8.1,3.6-8.1,8.1c0,0.7,0.1,1.3,0.2,1.9h0
			c0,0.2,0.1,0.3,0.1,0.5c0,0.4-0.1,0.8-0.4,1.2l-1.4,2c-0.1,0.2-0.2,0.3-0.4,0.5l0,0c-0.9,1.1-2.3,1.9-3.8,2v0h7.4
			c3.2,0.6,5.8,3,6.7,6h0.1c0.7,2.3,2.3,4.3,4.4,5.4l0,0l6,3.2l0,0c1.1,0.5,2.3,0.8,3.6,0.8c4.9,0,8.8-4,8.8-8.8v-1.2
			c0-0.1,0-0.3,0-0.4c0-4.5,3.3-8.1,7.5-8.8v0c0.4-0.1,0.9-0.1,1.3-0.1c4.3,0,7.8,3,8.7,7h0c0-0.2-0.1-0.4-0.1-0.6
			c0-0.1,0-0.2,0-0.3c0-0.1,0-0.1,0-0.2c0-2.2,0.7-4.2,1.9-5.8c1-1.3,2.4-2.3,3.9-2.8C406.9,301.9,407.9,300.5,407.9,299z"/>
		<path id="Stroke-15" class="st1" d="M515.5,551.1l0,0.1v0C515.5,551.2,515.5,551.2,515.5,551.1z"/>
		<path id="Stroke-17" class="st1" d="M519.1,544.3c0.2-0.1,0.3-0.2,0.5-0.3C519.5,544.1,519.3,544.2,519.1,544.3z"/>
		<path id="Stroke-19" class="st1" d="M519.1,544.4c-0.5,0.4-1,0.9-1.4,1.4C518.1,545.2,518.5,544.8,519.1,544.4z"/>
		<path id="Stroke-21" class="st1" d="M516.9,546.8c0.1-0.2,0.2-0.3,0.3-0.5C517.1,546.5,517,546.7,516.9,546.8z"/>
		<path id="Stroke-23" class="st1" d="M521.5,543c-0.6,0.2-1.2,0.5-1.8,0.9C520.3,543.6,520.9,543.3,521.5,543L521.5,543z"/>
		<path id="Stroke-25" class="st1" d="M517.3,546.2c0.1-0.2,0.2-0.3,0.4-0.5C517.5,545.9,517.4,546,517.3,546.2z"/>
		<path id="Stroke-27" class="st1" d="M516.5,547.5c0.1-0.2,0.2-0.3,0.3-0.5C516.7,547.1,516.6,547.3,516.5,547.5z"/>
		<path id="Stroke-29" class="st1" d="M515.6,550.1c0-0.2,0.1-0.3,0.1-0.5C515.7,549.7,515.7,549.9,515.6,550.1z"/>
		<path id="Stroke-31" class="st1" d="M515.5,550.9c0-0.2,0-0.3,0.1-0.5C515.6,550.5,515.5,550.7,515.5,550.9z"/>
		<path id="Stroke-33" class="st1" d="M516,548.6c0.1-0.4,0.3-0.7,0.5-1.1C516.3,547.9,516.1,548.2,516,548.6z"/>
		<path id="Stroke-35" class="st1" d="M515.8,549.3c0-0.2,0.1-0.3,0.1-0.5C515.9,549,515.8,549.1,515.8,549.3z"/>
		<path id="Stroke-37" class="st1" d="M519.6,544c0,0,0.1,0,0.1-0.1L519.6,544z"/>
		<path id="Stroke-39" class="st1" d="M519.1,544.4C519.1,544.4,519.1,544.3,519.1,544.4C519.1,544.3,519.1,544.4,519.1,544.4z"/>
		<path id="Stroke-41" class="st1" d="M517.6,545.7C517.6,545.7,517.6,545.7,517.6,545.7C517.6,545.7,517.6,545.7,517.6,545.7z"/>
		<path id="Stroke-43" class="st1" d="M516.5,547.5C516.5,547.5,516.5,547.5,516.5,547.5C516.5,547.5,516.5,547.5,516.5,547.5z"/>
		<path id="Stroke-45" class="st1" d="M517.2,546.3c0,0,0.1-0.1,0.1-0.2C517.2,546.2,517.2,546.3,517.2,546.3z"/>
		<path id="Stroke-47" class="st1" d="M516.8,547c0-0.1,0.1-0.1,0.1-0.2C516.8,546.9,516.8,546.9,516.8,547z"/>
		<path id="Stroke-49" class="st1" d="M515.9,548.8c0-0.1,0-0.1,0.1-0.2C516,548.7,516,548.7,515.9,548.8z"/>
		<path id="Stroke-51" class="st1" d="M515.7,549.6c0-0.1,0-0.2,0.1-0.3C515.8,549.4,515.8,549.5,515.7,549.6z"/>
		<path id="Stroke-53" class="st1" d="M515.5,551.1c0-0.1,0-0.2,0-0.3C515.5,551,515.5,551,515.5,551.1z"/>
		<path id="Stroke-55" class="st1" d="M515.6,550.4c0-0.1,0-0.2,0-0.3C515.6,550.2,515.6,550.3,515.6,550.4z"/>
		<path id="Stroke-57" class="st1" d="M515.5,535.8L515.5,535.8L515.5,535.8L515.5,535.8z"/>
		<path id="Stroke-59" class="st1" d="M515.5,551.6v19.5h0L515.5,551.6L515.5,551.6l0-0.4C515.5,551.4,515.5,551.5,515.5,551.6
			L515.5,551.6z"/>
		<path id="Stroke-61" class="st1" d="M511.8,532L511.8,532L511.8,532z"/>
		<path id="Stroke-63" class="st1" d="M511.8,532L511.8,532c2,0,3.7,1.7,3.7,3.8c0,0,0,0,0,0h0v15.8c0-0.1,0-0.3,0-0.4v-15.4l0,0v0
			C515.5,533.7,513.9,532,511.8,532z"/>
		<path id="Stroke-65" class="st1" d="M425,401.7c-2-0.9-3.8-2.2-5.1-3.9c-0.5-0.6-0.9-1.2-1.3-1.9c-0.7-1.5-2.3-2.6-4.1-2.6
			c-0.4,0-0.8,0-1.2,0.1c-1.6,0.6-3.3,1-5,1c-7.3,0-13.2-5.9-13.2-13.2c0-0.2,0-0.4,0-0.6h0c-0.2,3.5-2.9,6.3-6.3,6.7v0
			c-5.7,0.5-10.3,4.8-11.3,10.3c-0.1,0.7-0.2,1.5-0.2,2.2c0,0.7,0.1,1.4,0.2,2.1h0c0.1,0.5,0.1,1.1,0.1,1.7c0,3.6-2,6.8-4.9,8.5
			c0,0,0,0,0,0c0,0,0,0,0,0v0c-3.6,2.2-6,6.2-6,10.8c0,1.9,0.4,3.6,1.1,5.2c0.2,0.5,0.4,1.2,0.4,1.8c0,0.5-0.1,1-0.2,1.4
			c-0.2,0.4-0.2,0.9-0.2,1.4c0,2.5,2,4.4,4.4,4.4c3.2,0,4.8,1.4,5.3,3.3c0.1,0.4,0.2,0.8,0.2,1.3c0,1.2-0.5,2.3-1.2,3.1h0
			c-2,2.1-2.1,5.3-0.5,7.6c0.2,0.3,0.4,0.5,0.6,0.7c0.3,0.3,0.5,0.5,0.8,0.7h0l15.7,11.5l0,0c1.7,1.3,4.2,1.1,5.8-0.4
			c0.4-0.4,0.6-0.8,0.8-1.2l0,0c0,0,16-30.3,18.7-34.9c0.6-1.1,2.8-3.6,4.9-4.5c4.8-1.8,8.2-6.4,8.2-11.8
			C431.4,408,428.8,403.9,425,401.7z"/>
		<path id="Stroke-67" class="st1" d="M624.9,640.5c0.2,0,0.4-0.1,0.6-0.1C625.3,640.4,625.1,640.4,624.9,640.5z"/>
		<path id="Stroke-69" class="st1" d="M628.5,639.3c0.8-0.3,1.5-0.7,2.2-1.2C630,638.6,629.2,639,628.5,639.3z"/>
		<path id="Stroke-71" class="st1" d="M609.9,590.7c0,0.1,0.1,0.3,0.1,0.4C610,591,609.9,590.9,609.9,590.7z"/>
		<path id="Stroke-73" class="st1" d="M626,640.2c0.3-0.1,0.7-0.2,1-0.3C626.7,640,626.4,640.1,626,640.2z"/>
		<path id="Stroke-75" class="st1" d="M609.4,589.3c0,0.2,0.1,0.4,0.1,0.6C609.5,589.6,609.5,589.5,609.4,589.3z"/>
		<path id="Stroke-77" class="st1" d="M627.5,639.7c0.2-0.1,0.5-0.2,0.7-0.3C627.9,639.5,627.7,639.6,627.5,639.7z"/>
		<path id="Stroke-79" class="st1" d="M613.5,597.2C613.5,597.2,613.5,597.2,613.5,597.2C613.5,597.2,613.5,597.2,613.5,597.2z"/>
		<path id="Stroke-81" class="st1" d="M611.8,594.8c0,0,0.1,0.1,0.1,0.1C611.9,594.9,611.8,594.9,611.8,594.8z"/>
		<path id="Stroke-83" class="st1" d="M621.1,640.9C621.1,640.9,621,640.9,621.1,640.9L621.1,640.9
			C621,640.9,621.1,640.9,621.1,640.9z"/>
		<path id="Stroke-85" class="st1" d="M611.1,593.5c0,0.1,0.1,0.1,0.1,0.2C611.1,593.7,611.1,593.6,611.1,593.5z"/>
		<path id="Stroke-87" class="st1" d="M610.4,592.2c0,0.1,0.1,0.2,0.1,0.3C610.5,592.4,610.5,592.3,610.4,592.2z"/>
		<path id="Stroke-89" class="st1" d="M622.2,640.9c0.1,0,0.3,0,0.4,0C622.5,640.8,622.4,640.9,622.2,640.9z"/>
		<path id="Stroke-91" class="st1" d="M623.5,640.7c0.2,0,0.4-0.1,0.6-0.1C623.9,640.7,623.7,640.7,623.5,640.7z"/>
		<path id="Stroke-93" class="st1" d="M612.6,596C612.6,596,612.7,596.1,612.6,596C612.7,596.1,612.6,596,612.6,596z"/>
		<path id="Stroke-95" class="st1" d="M608.8,586.1c0,0.3,0.1,0.6,0.1,0.9C608.9,586.7,608.9,586.4,608.8,586.1z"/>
		<path id="Stroke-97" class="st1" d="M519.1,544.4c-0.5,0.4-1,0.9-1.4,1.4C518.1,545.2,518.5,544.8,519.1,544.4z"/>
		<path id="Stroke-99" class="st1" d="M609.1,587.7c0,0.2,0.1,0.5,0.1,0.7C609.2,588.2,609.1,588,609.1,587.7z"/>
		<path id="Stroke-101" class="st1" d="M608.7,584c0,0.5,0,1,0.1,1.5C608.7,585,608.7,584.5,608.7,584z"/>
		<path id="Stroke-103" class="st1" d="M521.5,543c-0.6,0.2-1.2,0.5-1.8,0.9C520.3,543.6,520.9,543.3,521.5,543L521.5,543z"/>
		<path id="Stroke-105" class="st1" d="M631.3,637.7C631.3,637.7,631.3,637.7,631.3,637.7c-0.2,0.1-0.4,0.2-0.6,0.4
			C630.9,638,631.1,637.8,631.3,637.7z"/>
		<path id="Stroke-107" class="st1" d="M611.2,593.7c0.2,0.4,0.4,0.7,0.6,1.1C611.6,594.5,611.4,594.1,611.2,593.7z"/>
		<path id="Stroke-109" class="st1" d="M516,548.6c0.1-0.4,0.3-0.7,0.5-1.1C516.3,547.9,516.1,548.2,516,548.6z"/>
		<path id="Stroke-111" class="st1" d="M609.6,589.8c0.1,0.3,0.2,0.6,0.3,0.9C609.8,590.4,609.7,590.1,609.6,589.8z"/>
		<path id="Stroke-113" class="st1" d="M612.7,596.1c0.3,0.4,0.6,0.7,0.8,1.1C613.2,596.8,612.9,596.5,612.7,596.1z"/>
		<path id="Stroke-115" class="st1" d="M611.9,594.9c0.2,0.4,0.5,0.7,0.7,1.1C612.4,595.7,612.1,595.3,611.9,594.9z"/>
		<path id="Stroke-117" class="st1" d="M609.2,588.4c0.1,0.3,0.1,0.6,0.2,0.8C609.3,589,609.3,588.7,609.2,588.4z"/>
		<path id="Stroke-119" class="st1" d="M610,591.2c0.1,0.3,0.3,0.7,0.4,1C610.3,591.8,610.1,591.5,610,591.2z"/>
		<path id="Stroke-121" class="st1" d="M610.6,592.5c0.2,0.4,0.3,0.7,0.5,1C610.9,593.2,610.7,592.8,610.6,592.5z"/>
		<path id="Stroke-123" class="st1" d="M608.9,587c0,0.3,0.1,0.5,0.1,0.8C609,587.5,609,587.2,608.9,587z"/>
		<path id="Stroke-125" class="st1" d="M608.8,585.5c0,0.2,0,0.4,0.1,0.6C608.8,585.9,608.8,585.7,608.8,585.5z"/>
		<path id="Stroke-127" class="st1" d="M621.1,640.9c0.4,0,0.8,0,1.2,0C621.8,640.9,621.5,640.9,621.1,640.9z"/>
		<path id="Stroke-129" class="st1" d="M624.1,640.6c0.3,0,0.5-0.1,0.8-0.2C624.7,640.5,624.4,640.6,624.1,640.6z"/>
		<path id="Stroke-131" class="st1" d="M627.1,639.9c0.1,0,0.3-0.1,0.4-0.1C627.3,639.8,627.2,639.8,627.1,639.9z"/>
		<path id="Stroke-133" class="st1" d="M625.5,640.3c0.2,0,0.4-0.1,0.6-0.2C625.9,640.2,625.7,640.3,625.5,640.3z"/>
		<path id="Stroke-135" class="st1" d="M628.2,639.4c0.1,0,0.2-0.1,0.3-0.1C628.4,639.4,628.3,639.4,628.2,639.4z"/>
		<path id="Stroke-137" class="st1" d="M630.7,638.1C630.7,638.1,630.7,638.1,630.7,638.1C630.7,638.1,630.7,638.1,630.7,638.1z"/>
		<path id="Stroke-139" class="st1" d="M621,640.9c-0.3,0-0.5,0-0.7,0c-3.7-0.2-7.1-1.4-9.9-3.4v0C613.4,639.6,617,640.9,621,640.9
			L621,640.9z"/>
		<path id="Stroke-141" class="st1" d="M622.7,640.8c0.3,0,0.6-0.1,0.9-0.1C623.3,640.8,623,640.8,622.7,640.8z"/>
		<path id="Stroke-143" class="st1" d="M662.7,721.1L662.7,721.1c-4.3-2.5-7.2-7.2-7.2-12.6c0-4.5,2-8.5,5.2-11.2h0
			c0.9-0.9,1.5-2.1,1.5-3.5c0-1.9-1.1-3.6-2.7-4.3v0c-3.3-1.2-5.8-4.2-6.4-7.8h-0.1c-0.6-5-4.7-9-9.8-9c-3.4,0-6.4,1.8-8.2,4.6v-0.1
			c-1,1.2-2.5,2-4.2,2c-3.1,0-5.6-2.6-5.6-5.8c0-2,1-3.8,2.5-4.8v0c1.4-1,2.3-2.6,2.3-4.4c0-1.3-0.5-2.5-1.2-3.4h0
			c-0.7-0.9-1.1-2.1-1.1-3.4c0-1,0.3-2,0.7-2.8c0.6-1.1,1.5-1.9,2.6-2.4v0c1.5-0.7,2.6-2.3,2.6-4.2c0-0.9-0.3-1.8-0.7-2.5h0.1
			c-1.2-1.7-1.9-3.8-1.9-6c0-0.6,0.1-1.2,0.2-1.8c-0.2,0.1-0.4,0.3-0.6,0.4c0,0-0.1,0-0.1,0.1c-0.7,0.4-1.4,0.8-2.2,1.2
			c-0.1,0-0.2,0.1-0.3,0.1c-0.2,0.1-0.4,0.2-0.7,0.3c-0.1,0.1-0.3,0.1-0.4,0.1c-0.3,0.1-0.7,0.2-1,0.3c-0.2,0.1-0.4,0.1-0.6,0.2
			c-0.2,0-0.4,0.1-0.6,0.1c-0.3,0.1-0.5,0.1-0.8,0.2c-0.2,0-0.4,0.1-0.6,0.1c-0.3,0-0.6,0.1-0.9,0.1c-0.1,0-0.3,0-0.4,0
			c-0.4,0-0.8,0-1.2,0c0,0,0,0-0.1,0h0h0c-4,0-7.6-1.3-10.6-3.4v0.1c-1-0.6-2.2-0.9-3.5-0.9h-7.2c-2.5,0-4.8,1.3-6.1,3.4
			c-0.8,1.2-1.2,2.6-1.2,4.2v10.4v1.6c0,1.4-0.7,2.7-1.7,3.5v0c-0.8,0.6-1.4,1.4-2,2.3c-1,1.6-1.6,3.5-1.6,5.6c0,1,0.2,2,0.4,3
			c1.2,4.2,5,7.2,9.4,7.2c0.1,0,0.3,0,0.4,0v0c0.1,0,0.2,0,0.3,0c2.6,0,4.7,2.1,4.7,4.7h0c0.2,7,5.7,12.5,12.5,12.5
			c0.5,0,1,0,1.5-0.1v0c0.2,0,0.5,0,0.7,0c3.6,0,6.6,2.9,7.1,6.5c0,0.3,0.1,0.6,0.1,0.9c0,2.8-1.6,5.3-3.8,6.5h0
			c-1.3,0.8-2.4,1.9-3.2,3.2c-1,1.6-1.6,3.5-1.6,5.6c0,5.6,4.4,10.2,9.9,10.2c1.4,0,2.7-0.3,3.9-0.8v0c1.1-0.4,2.3-0.6,3.5-0.6
			c3,0,5.8,1.3,7.7,3.3h0c1.1,1.1,2.5,1.8,4.1,1.8c1.9,0,3.5-0.9,4.6-2.3v0l5.3-6.9h10C663.9,721.9,663.3,721.5,662.7,721.1z"/>
		<path id="Stroke-145" class="st1" d="M618.2,300.4c-0.3,0-0.6,0-0.9,0.1v-0.1c-5.9,0-11.1-4.1-13.1-9.3l0,0
			c-0.7-2.5-2.9-4.3-5.5-4.4v0h-9.4v0c-1.1,0-2-0.9-2-2c0-1.1,0.9-2,2-2v0c1.4,0.1,2.9-0.4,4-1.5c2-2,2-5.3,0-7.3c-2-2-5.3-2-7.3,0
			l-12.9,9.1c-0.5,0.2-1,0.4-1.5,0.4c-0.7,0-1.4-0.2-2-0.6v0c-1.7-1.3-3.8-2-6.1-2c-2.3,0-4.5,0.8-6.2,2.1v0
			c-0.5,0.4-1.1,0.6-1.7,0.6c-0.9,0-1.6-0.4-2.2-1c-1.2-1.7-3.1-2.8-5.3-2.8c-1.8,0-3.5,0.8-4.7,2c-0.6,0.5-1.3,0.8-2.1,0.8
			c-0.8,0-1.6-0.3-2.2-0.8h0v0c-2.1-1.8-4.8-2.8-7.7-2.8c-0.2,0-0.4,0-0.5,0v0l0,0c-0.1,0-0.2,0-0.2,0c-1.1,0-2-0.6-2.4-1.5
			c-1.9-4.1-6.1-7-10.9-7c-0.9,0-1.7,0.1-2.5,0.3v0c-0.5,0.1-1,0.2-1.5,0.2c-1.9,0-3.6-0.8-4.8-2.1c-0.2-0.2-0.3-0.4-0.5-0.6
			c-0.7-1-1.1-2.1-1.2-3.4h0c-0.4-2.1-2.2-3.6-4.4-3.6c-2.5,0-4.5,2-4.5,4.5c0,2.5,2,4.5,4.5,4.5c0.2,0,0.4,0,0.7-0.1v0
			c0.1,0,0.2,0,0.3,0c1.3,0,2.4,1.1,2.4,2.4c0,0.4-0.1,0.8-0.3,1.1c0,0.1-0.1,0.2-0.2,0.3c-0.4,0.6-1.1,1-1.9,1
			c-0.3,0-0.7-0.1-0.9-0.2c-1.3-0.8-2.9-1.2-4.5-1.2c-5,0-9.1,4.1-9.1,9.1c0,2.9,1.3,5.4,3.4,7.1v0.1c0.9,0.9,1.5,2.2,1.5,3.6
			c0,1.4-0.6,2.7-1.5,3.6c-0.9,0.9-2.1,1.4-3.5,1.4c-2.7,0-5-2.2-5-5v-13.7c0-1.2-0.3-2.3-0.9-3.3h0c-0.4-0.7-0.6-1.5-0.6-2.4
			c0-2.7,2.1-4.8,4.8-4.8v0c-0.2,0-0.4,0-0.6,0h-3.3c-0.1,0-0.3,0-0.4,0c-5.4,0-9.8,4.4-9.8,9.8v4.9c0,3-1,5.7-2.6,7.9h0
			c-2.7,3.3-4.4,7.6-4.4,12.3c0,10.7,8.7,19.4,19.4,19.4c0.3,0,1.4,0,2,0c0.1,0,0.2,0,0.3,0c5.5,0,10.1,3.3,12.1,8
			c0.9,2.3,3.2,3.9,5.9,3.9c0.1,0,0.1,0,0.2,0v0h16.4c3.5,0,6.3,2.8,6.3,6.3v4.8v36.7c0,1.7-0.7,3.2-1.7,4.3l13.1,10.3l0,0
			c2.2,1.8,5.1,2.9,8.2,2.9c2.3,0,4.5-0.6,6.4-1.7l35.9-17.7c1.6-0.5,2.8-2.1,2.8-3.9c0-2.3-1.8-4.1-4.1-4.1h-10.8v0
			c-0.1,0-0.2,0-0.3,0c-2.3,0-4.1-1.8-4.1-4.1h0c-0.2-5-3.9-9-8.7-9.6c-1.8-0.6-3-2.3-3-4.2c0-0.9,0.2-1.6,0.7-2.3
			c0.7-1.1,1.9-1.9,3.3-2.1c0.2,0,0.4,0,0.6,0c1,0,1.9,0.3,2.6,0.8v0c4.2,3.3,9.4,5.2,15.1,5.2c7.8,0,14.8-3.7,19.3-9.4
			c1.8-2.3,3.2-4.9,4.1-7.7c0.3-0.9,0.5-1.8,0.7-2.7h0c0.2-1,0.7-1.8,1.4-2.4v0c3-2.3,4.9-5.9,4.9-10c0-1.5-0.2-2.9-0.7-4.2h0
			c-0.2-0.6-0.3-1.3-0.3-2c0-2.9,2.2-5.3,4.9-5.7v0c2.9-0.3,5.2-2.6,5.4-5.6c0-0.1,0-0.3,0-0.4C624.3,303.1,621.6,300.4,618.2,300.4
			z"/>
		<path id="Stroke-147" class="st1" d="M648.9,393c-0.3,0.1-0.6,0.1-1,0.2C648.2,393.2,648.6,393.1,648.9,393z"/>
		<path id="Stroke-149" class="st1" d="M647.7,393.2c-0.1,0-0.3,0-0.4,0C647.5,393.3,647.6,393.3,647.7,393.2z"/>
		<path id="Stroke-151" class="st1" d="M647,393.3c-0.1,0-0.2,0-0.3,0C646.7,393.3,646.9,393.3,647,393.3z"/>
		<path id="Stroke-153" class="st1" d="M649.9,392.8c-0.1,0-0.2,0-0.2,0.1C649.8,392.8,649.8,392.8,649.9,392.8z"/>
		<path id="Stroke-155" class="st1" d="M649.3,392.9c-0.1,0-0.3,0.1-0.4,0.1C649,393,649.2,393,649.3,392.9z"/>
		<path id="Stroke-157" class="st1" d="M661.1,375.7c-1-4.2-3.8-7.6-7.7-9.3v0c-2.6-1.4-4.4-4.2-4.4-7.3c0-1.8,0.6-3.4,1.5-4.8h-0.1
			c3.5-3.3,5.7-7.9,5.7-13.1c0-4.2-1.4-8-3.8-11.1c-2.6-3.3-6.4-5.7-10.8-6.5v-0.1c-7.9-2.1-14-8.5-15.7-16.5h-1.7
			c-0.2,2.9-2.5,5.3-5.4,5.6v0c-2.8,0.4-4.9,2.8-4.9,5.7c0,0.7,0.1,1.4,0.3,2h0c0.5,1.3,0.7,2.7,0.7,4.2c0,4.1-1.9,7.7-4.9,10v0
			c-0.7,0.6-1.2,1.4-1.4,2.4h0c-0.2,0.9-0.4,1.8-0.7,2.7l17.9,14.2c0,0,0,0,0,0l0.2,0.2l0,0c0.2,0.1,0.3,0.3,0.5,0.4
			c2,1.8,3.2,4.4,3.2,7.3c0,2.6-1,5-2.6,6.7h0c-1.8,2.4-2.9,5.4-2.9,8.6c0,7.3,5.5,13.3,12.5,14.1v0c1.4,0.2,2.7,0.6,3.8,1.2
			c1.7,0.7,3.5,1.1,5.5,1.1c0.2,0,0.5,0,0.7,0c0.1,0,0.2,0,0.3,0c0.1,0,0.2,0,0.3,0c0.1,0,0.3,0,0.4,0c0.1,0,0.1,0,0.2,0
			c0.3,0,0.7-0.1,1-0.2c0,0,0,0,0,0c0.1,0,0.3-0.1,0.4-0.1c0.1,0,0.2-0.1,0.4-0.1c0.1,0,0.2,0,0.2-0.1c0.7-0.2,1.4-0.5,2.1-0.8
			c0.4-0.2,0.7-0.4,1.1-0.6v0.1c0.3-0.2,0.7-0.4,1-0.6c0.4-0.2,0.8-0.4,1.1-0.5c0.6-0.4,1.2-0.8,1.7-1.3c2.7-2.6,4.5-6.3,4.5-10.2
			C661.4,377.7,661.3,376.7,661.1,375.7z"/>
		<path id="Stroke-159" class="st1" d="M677.5,385.1c0.6-0.5,1.2-1,1.8-1.5c-0.7,0.3-1.3,0.7-1.8,1.2V385.1z"/>
		<path id="Stroke-161" class="st1" d="M676.6,385.4L676.6,385.4c-0.3,0.3-0.6,0.6-0.9,0.9c0.6-0.4,1.2-0.8,1.8-1.2v-0.4
			C677.2,384.9,676.9,385.2,676.6,385.4z"/>
		<path id="Stroke-163" class="st1" d="M684.5,353.8c0.3,1.8,0.7,3.6,1.4,5.2h-0.1c0.7,2.3,1.1,4.7,1.1,7.2c0,6.8-2.9,13-7.5,17.3
			c1.4-0.7,3-1.1,4.6-1.1c2.2,0,4.2,0.7,5.9,1.8v0c2.7,1.8,6,2.9,9.6,2.9c9.5,0,17.3-7.7,17.3-17.3c0-1.2-0.1-2.5-0.4-3.6h0
			c0-0.3-0.1-0.7-0.1-1c0-3.8,2.8-6.9,6.4-7.4v0c-0.7,0.1-1.9,0.2-2.7,0.2c-6.5,0-11.7-5.3-11.7-11.7h-0.1c-0.7-4.5-4.6-8-9.4-8
			c-0.2,0-0.4,0-0.7,0v0c-0.3,0-0.5,0-0.8,0c-2.7,0-5.2-1.2-6.9-3c-3.8,3.9-6.1,9.3-6.1,15.1C684.2,351.5,684.3,352.7,684.5,353.8z"
			/>
		<path id="Stroke-165" class="st1" d="M674.8,335.2v0.8c0.9-0.2,1.7-0.5,2.6-0.8H674.8z"/>
		<path id="Stroke-167" class="st1" d="M690.3,335.2c-1.2-1.8-3.2-2.9-5.5-2.9c-1.1,0-2.1,0.3-3,0.7c-0.1,0.1-0.3,0.1-0.4,0.2
			c-0.2,0.1-0.4,0.2-0.6,0.4c-1.1,0.6-2.2,1.1-3.4,1.6c-0.8,0.3-1.7,0.6-2.6,0.8c-1.9,0.5-3.9,0.8-5.9,0.8c-6.4,0-12.3-2.6-16.5-6.8
			h0c2.4,3,3.8,6.9,3.8,11.1c0,5.2-2.2,9.9-5.7,13.1h0.1c-1,1.4-1.5,3-1.5,4.8c0,3.2,1.8,5.9,4.4,7.3v0c3.8,1.7,6.7,5.1,7.7,9.3
			c0.2,1,0.4,2,0.4,3.1c0,4-1.7,7.7-4.5,10.2c-0.5,0.5-1.1,0.9-1.7,1.3c1.1-0.5,2.4-0.8,3.6-0.9c0.5,0,1-0.1,1.4-0.1
			c0.9,0,1.8,0.1,2.6,0.3v0c0.4,0.1,0.8,0.2,1.2,0.2c0.7,0.1,1.3,0.2,2,0.2c3.2,0,6.2-1.1,8.6-2.9c0.3-0.2,0.6-0.5,0.9-0.7
			c0.6-0.4,1.2-0.8,1.8-1.2c0.6-0.5,1.2-1,1.8-1.5c4.6-4.3,7.5-10.5,7.5-17.3c0-2.5-0.4-4.9-1.1-7.2h0.1c-0.6-1.7-1.1-3.4-1.4-5.2
			c-0.2-1.1-0.3-2.3-0.3-3.5C684.2,344.5,686.5,339.1,690.3,335.2C690.3,335.2,690.3,335.2,690.3,335.2z"/>
		<path id="Stroke-169" class="st1" d="M653.1,391.4L653.1,391.4c-0.4,0.2-0.7,0.4-1.1,0.5c0.7-0.2,1.4-0.5,2.1-0.9v-0.2
			C653.8,391,653.5,391.2,653.1,391.4z"/>
		<path id="Stroke-171" class="st1" d="M646.6,393.3c-0.2,0-0.5,0-0.7,0C646.2,393.4,646.4,393.3,646.6,393.3z"/>
		<path id="Stroke-173" class="st1" d="M652,391.9c-0.7,0.3-1.4,0.6-2.1,0.8C651.2,392.4,652,391.9,652,391.9z"/>
		<path id="Stroke-175" class="st1" d="M649.7,392.8c-0.1,0-0.2,0.1-0.4,0.1C649.4,392.9,649.6,392.9,649.7,392.8z"/>
		<path id="Stroke-177" class="st1" d="M647.9,393.2c-0.1,0-0.1,0-0.2,0C647.8,393.2,647.9,393.2,647.9,393.2z"/>
		<path id="Stroke-179" class="st1" d="M648.9,393C648.9,393,648.9,393,648.9,393C648.9,393,648.9,393,648.9,393z"/>
		<path id="Stroke-181" class="st1" d="M647.3,393.3c-0.1,0-0.2,0-0.3,0C647.1,393.3,647.2,393.3,647.3,393.3z"/>
		<path id="Stroke-183" class="st1" d="M654.1,390.8v0.2c0.4-0.2,0.8-0.5,1.1-0.7C654.9,390.5,654.5,390.7,654.1,390.8z"/>
		<path id="Stroke-185" class="st1" d="M665.9,811.4L665.9,811.4c-0.9,0.4-1.9,0.7-3,0.7c0,0,0,0,0,0c-1,0-1.9-0.2-2.8-0.6
			c-2.4-1.1-4.2-3.5-4.2-6.4c0-1.6,0.6-3.1,1.5-4.3c0.2-0.2,0.4-0.4,0.6-0.6c0,0,0.1-0.1,0.1-0.1c0,0,0.1-0.1,0.2-0.1l0,0
			c0.7-0.9,1.3-1.8,1.8-2.8c0.8-1.7,1.2-3.5,1.2-5.5c0-2-0.4-3.8-1.2-5.5c-1-2.1-2.5-3.9-4.5-5.3c0,0,0,0,0,0l0,0
			c-0.3-0.2-0.5-0.3-0.8-0.5l-5.8-3.9c-0.1-0.1-0.2-0.2-0.4-0.3c-0.3-0.2-0.7-0.3-1.1-0.3c0,0,0,0,0,0c0,0,0,0,0,0
			c-0.8,0-1.4,0.4-1.7,1h0c-0.6,1.1-1.8,1.8-3.1,1.8c-1.9,0-3.5-1.6-3.5-3.5c0-0.4,0.1-0.8,0.2-1.2h0c0.2-0.6,0.3-1.2,0.3-1.9
			c0-3.3-2.7-5.9-5.9-5.9c-0.7,0-1.4,0.1-2.1,0.4v0c-0.5,0.2-1,0.3-1.5,0.3c-2.2,0-4.1-1.7-4.3-3.9c-4.2,0.9-6.2,3.5-6.7,6.8H619
			c-0.6,5.5-3,10.5-6.6,14.3c-3.9,5.6-6.2,12.3-6.2,19.6c0,2,0.2,4,0.5,5.9c0.2,0.9,0.3,1.8,0.6,2.6c0.6,2.2,1.3,4.3,2.3,6.3h0
			c0.9,1.4,1.5,3,1.5,4.8c0,1-0.2,1.9-0.5,2.8c1.7-3.3,5.2-5.6,9.1-5.6c2.2,0,4.2,0.7,5.9,1.9l0.1,0.1c0.1,0.1,0.2,0.2,0.3,0.3v0
			c3.1,2.2,6.8,3.5,10.9,3.5c2.9,0,5.7-0.7,8.1-1.8l0,0l0,0c1.2-0.6,2.2-1.2,3.3-2L665.9,811.4z"/>
		<path id="Stroke-187" class="st1" d="M515.5,551.6v19.5h0L515.5,551.6L515.5,551.6l0-0.4C515.5,551.4,515.5,551.5,515.5,551.6
			L515.5,551.6z"/>
		<path id="Stroke-189" class="st1" d="M639.6,619.2c-1.1-9.6-9-17-18.6-17c-0.3,0-0.6,0-1,0c-2.2-1-4.2-2.5-5.8-4.2
			c-0.2-0.3-0.5-0.5-0.7-0.8c0,0,0,0,0,0c-0.3-0.3-0.6-0.7-0.8-1.1c0,0,0,0,0-0.1c-0.3-0.4-0.5-0.7-0.7-1.1c0,0-0.1-0.1-0.1-0.1
			c-0.2-0.3-0.4-0.7-0.6-1.1c0-0.1-0.1-0.1-0.1-0.2c-0.2-0.3-0.4-0.7-0.5-1c0-0.1-0.1-0.2-0.1-0.3c-0.1-0.3-0.3-0.7-0.4-1
			c-0.1-0.1-0.1-0.3-0.1-0.4c-0.1-0.3-0.2-0.6-0.3-0.9c-0.1-0.2-0.1-0.4-0.1-0.6c-0.1-0.3-0.2-0.6-0.2-0.8c0-0.2-0.1-0.5-0.1-0.7
			c0-0.2-0.1-0.5-0.1-0.8c0-0.3-0.1-0.6-0.1-0.9c0-0.2,0-0.4-0.1-0.6c0-0.5-0.1-1-0.1-1.5v-10.7c0-2-1.6-3.8-3.7-3.8v0h-5.6
			c-4.8,0-8.9-2.6-11.3-6.5h0c-0.7-1.1-1.8-1.8-3.1-1.8c-0.2,0-0.5,0-0.7,0.1c-0.8,0.2-1.7,0.3-2.6,0.3c-3.9,0-7.3-2-9.2-5.1h0
			c-0.6-1.1-1.9-1.9-3.3-1.9h-7.9c-4.2,0-7.6-3.4-7.6-7.6v-10.1h0c0-2.6-2.1-4.6-4.7-4.6c-1.6,0-3,0.8-3.9,2.1
			c-2.7,5-7.8,8.3-13.7,8.3h-7.3v0c-1,0-1.9,0.2-2.7,0.5v0c-0.6,0.2-1.2,0.5-1.8,0.9c0,0-0.1,0-0.1,0.1c-0.2,0.1-0.3,0.2-0.5,0.3
			c0,0-0.1,0-0.1,0.1c-0.5,0.4-1,0.8-1.4,1.4c0,0,0,0,0,0c-0.1,0.1-0.2,0.3-0.4,0.5c0,0-0.1,0.1-0.1,0.2c-0.1,0.1-0.2,0.3-0.3,0.5
			c0,0.1-0.1,0.1-0.1,0.2c-0.1,0.2-0.2,0.3-0.3,0.5c0,0,0,0,0,0c-0.2,0.4-0.3,0.7-0.5,1.1c0,0.1,0,0.1-0.1,0.2
			c-0.1,0.2-0.1,0.3-0.1,0.5c0,0.1,0,0.2-0.1,0.3c0,0.2-0.1,0.3-0.1,0.5c0,0.1,0,0.2,0,0.3c0,0.2,0,0.3-0.1,0.5c0,0.1,0,0.2,0,0.3
			c0,0,0,0.1,0,0.1v0.4v0v19.5h0v6.3c-4.5,2.5-7.6,7.4-7.6,13v0v10.2h0c0,0,0,0,0,0c0,0.3-0.1,0.5-0.1,0.7c-0.3,0.7-1,1.3-1.8,1.3
			h-0.4c-1.9,0-3.7,0.8-4.9,2l0,0l-1,1.2c-0.7,1.1-1.1,2.3-1.1,3.7v8v4v0c0,6.1,3,11.4,7.5,14.6c2,1.5,3.3,4,3.3,6.7
			c0,1.3-0.3,2.6-0.8,3.7c-1.1,2.1-1.7,4.4-1.7,7v0c0,8,6.2,14.4,13.9,14.4c0.2,0,0.3,0,0.5,0c1.2,0,2.5-0.3,3.6-0.6
			c0.6-0.2,1.2-0.4,1.8-0.7c1.2-0.6,2.3-1.4,3.3-2.3c2.3-1.7,5-2.8,8.1-2.9c0.1,0,0.2,0,0.4,0c4,0,7.6,1.7,10.2,4.4
			c0.1,0.1,0.2,0.3,0.4,0.4c0,0,0.1,0.1,0.1,0.1v0c2.5,2.7,6,4.3,9.9,4.3h28.4c-0.3-0.9-0.4-1.9-0.4-3c0-2.1,0.6-4,1.6-5.6
			c0.6-0.9,1.2-1.6,2-2.3v0c1.1-0.8,1.7-2.1,1.7-3.5v-1.6v-10.4c0-1.5,0.5-3,1.2-4.2c1.3-2,3.5-3.4,6.1-3.4h7.2
			c1.3,0,2.4,0.3,3.5,0.9v0v0c2.8,2,6.2,3.2,9.9,3.4c0.2,0,0.5,0,0.7,0c0,0,0,0,0.1,0c0.4,0,0.8,0,1.2,0c0.1,0,0.3,0,0.4,0
			c0.3,0,0.6-0.1,0.9-0.1c0.2,0,0.4-0.1,0.6-0.1c0.3,0,0.5-0.1,0.8-0.2c0.2,0,0.4-0.1,0.6-0.1c0.2,0,0.4-0.1,0.6-0.2
			c0.3-0.1,0.7-0.2,1-0.3c0.1,0,0.3-0.1,0.4-0.1c0.2-0.1,0.5-0.2,0.7-0.3c0.1,0,0.2-0.1,0.3-0.1c0.8-0.3,1.5-0.7,2.2-1.2
			c0,0,0.1,0,0.1,0c0.2-0.1,0.4-0.3,0.6-0.4c1-0.7,2-1.5,2.9-2.4c3.4-3.5,5.5-8.4,5.5-13.7C639.8,620.7,639.7,620,639.6,619.2z"/>
		<path id="Stroke-191" class="st1" d="M667.6,729.7c0-2.8-1.2-5.4-3.1-7.2h-10l-5.3,6.9v0c-1.1,1.4-2.7,2.3-4.6,2.3
			c-1.6,0-3.1-0.7-4.1-1.8h0c-2-2-4.7-3.3-7.7-3.3c-1.2,0-2.4,0.2-3.5,0.6v0c-1.2,0.5-2.5,0.8-3.9,0.8c-5.4,0-9.9-4.6-9.9-10.2
			c0-2.1,0.6-4,1.6-5.6c0.8-1.3,1.9-2.4,3.2-3.2h0c2.2-1.2,3.8-3.7,3.8-6.5c0-0.3,0-0.6-0.1-0.9c-0.4-3.6-3.4-6.5-7-6.5
			c-0.2,0-0.5,0-0.7,0v0c-0.5,0.1-1,0.1-1.5,0.1c-6.8,0-12.3-5.6-12.5-12.5h0c0-2.6-2.1-4.7-4.7-4.7c-0.1,0-0.2,0-0.3,0l0,0
			c-0.1,0-0.3,0-0.4,0c-4.4,0-8.2-3-9.4-7.2H559c-3.9,0-7.4-1.6-9.9-4.3v0c0,0-0.1-0.1-0.1-0.1c-0.1-0.1-0.2-0.3-0.4-0.4
			c-2.6-2.7-6.2-4.4-10.2-4.4c-0.1,0-0.2,0-0.4,0c-3,0.1-5.8,1.1-8.1,2.9c-1,0.9-2.1,1.7-3.3,2.3c-0.6,0.3-1.2,0.5-1.8,0.7
			c-1.1,0.4-2.3,0.6-3.6,0.6c-2.3,1.5-3.9,4-4.1,6.9h0c0,0.2,0,0.3,0,0.5c0,6.4-4,11.9-9.7,14v0c-4.3,1.4-7.5,5.5-7.5,10.3
			c0,0.6,0.1,1.2,0.2,1.7h-0.1c0.5,2.2,0.8,4.5,0.8,6.8c0,2.7-0.4,5.4-1,7.9c-1.6,6.1-5,11.4-9.6,15.4c-1.2,1.1-2.6,2-4,2.9v0
			c-2.3,1.2-4.1,3.2-5,5.7c-0.5,1.2-0.7,2.5-0.7,3.8c0,1,0.2,2,0.4,3c0.2,0.6,0.4,1.1,0.6,1.7h0c0.7,1.5,1,3.1,1,4.8
			c0,2.8-1,5.5-2.6,7.5c-0.3,0.3-0.5,0.6-0.8,0.9c0,0,0,0-0.1,0.1v0c-0.9,1.1-1.5,2.4-1.9,3.8c-0.2,0.9-0.4,1.8-0.4,2.8
			c0,0.8,0.1,1.6,0.3,2.4c0.1,0.5,0.3,1,0.4,1.5c2.7,6.2,4,13,4,20.2c0,11.3-3.8,21.8-10.1,30.2c-0.2,0.2-0.4,0.5-0.6,0.7
			c-0.4,0.6-0.9,1.1-1.3,1.6c-0.5,0.6-1.1,1.2-1.6,1.8v0.1c-0.6,0.7-1.1,1.5-1.5,2.4c-0.6,1.4-1,2.9-1,4.5c0,1.3,0.2,2.5,0.6,3.6
			c0.6,1.3,0.9,2.8,0.9,4.4c0,2.9-1.1,5.6-3,7.5c-0.4,0.4-0.7,0.9-1.1,1.4c-0.4,0.6-0.6,1-1,1.9c-0.4,0.9-0.6,1.9-0.7,2.9
			c0,0.4-0.1,0.7-0.1,1.1c0,0.7,0.1,1.3,0.2,2h0c0.1,0.5,0.2,1,0.2,1.5c0,2.5-1.1,4.8-2.7,6.4v0c-1.6,1.9-2.6,4.3-2.6,7
			c0,1.8,0.4,3.4,1.2,4.9h0c0.7,1.2,1.1,2.7,1.1,4.2c0,0,0,0,0,0.1c0,1.8-0.6,3.5-1.6,4.9h0c-2.6,3.7-4.2,8.2-4.2,13.1
			c0,3.8,0.9,7.3,2.5,10.4c0,0,0,0.1,0,0.1c0.4,0.9,0.6,1.9,0.6,2.9c0,0.2,0,0.5,0,0.7c-0.2,1.6-0.8,3-1.8,4.1h0
			c-1.3,1.4-2.2,3.3-2.2,5.4c0,1.8,0.6,3.5,1.7,4.8c1.4,1.4,2.3,3.4,2.3,5.5c0,0.4,0,0.9-0.1,1.3v2.5v7.3c0,1.6-0.7,2.9-1.8,3.9
			c-2.1,1.5-3.7,3.5-4.8,5.8c-0.8,1.7-1.2,3.7-1.2,5.7c0,1.5,0.2,2.9,0.7,4.3c0.2,0.7,0.2,1.4,0.2,2.2c0,1.8-0.5,3.4-1.2,4.9
			c-0.3,0.5-0.6,1-1,1.5c-0.6,0.8-1.4,1.5-2.3,2.1v0c-0.6,0.4-1.2,0.9-1.7,1.4c-1.7,1.8-2.8,4.3-2.8,7c0,3.8,2.1,7.1,5.2,8.9
			c1.7,1,2.9,3.3,2.9,5.4c0,0.2,0,0.3,0,0.5c0,0.7,0.1,1.3,0.2,1.9c0.1,0.6,0.3,1.1,0.5,1.6c0.3,0.7,0.6,1.3,0.9,1.9
			c1.7,2.6,4.6,4.4,7.9,4.6c0,0,0.1,0,0.3,0c0.1,0,0.2,0,0.3,0c0.6,0,1.2,0.1,1.7,0.3c0.5,0.2,1,0.4,1.5,0.7c0.5,0.4,1,0.9,1.4,1.4
			c0.6,0.9,1,1.9,1,3.1c0,0.4,0,0.7-0.1,1.1c-0.3,1.4-1.1,2.6-2.2,3.4l0,0.1l0.4-0.3l6.7-4.2l0,0c1.9-1.2,3.2-3.4,3.2-5.9
			c0-0.2,0-0.3,0-0.5h0c0-9.6,4.8-18.1,12.1-23.2v-0.1c2.1-1.4,3.7-3.5,4.4-6h0c2-5.5,6.6-9.8,12.3-11.4v0c4.5-1,7.8-5.1,7.8-9.9
			c0-4.4-2.8-8.1-6.6-9.5h0.1c-1.9-0.9-3.2-2.9-3.2-5.2c0-2.8,2-5.1,4.6-5.7c6.9-0.7,12.6-5,15.4-11l0,0l7.5-16.5
			c0.4-1.3,1.5-2.2,2.9-2.2c0.2,0,0.4,0,0.6,0.1c0.6,0.2,1.1,0.3,1.8,0.3c3,0,5.4-2.4,5.4-5.5c0-2.6-1.8-4.7-4.2-5.3l0,0l-0.2,0
			c0,0,0,0,0,0l-4.9-1.1c-1.6-0.4-2.7-1.8-2.7-3.5c0-2,1.6-3.6,3.6-3.6c0.9,0,1.7,0.3,2.3,0.9l0,0c1.7,1.4,4,2.3,6.4,2.3
			c3.6,0,6.7-1.9,8.5-4.7l0,0l0.1-0.1c0.2-0.3,0.3-0.6,0.5-0.9l9.8-17.6h0c0.7-1.2,2-2,3.4-2h0.3h22.2c13.8,0,24.9-11.2,24.9-24.9
			c0-2-0.2-4-0.7-5.8c-0.1-0.5-0.1-1-0.1-1.5c0-2.5,1.1-4.7,2.8-6.3V829c0.8-0.9,1.5-1.9,1.9-3c0.3-0.9,0.5-1.8,0.5-2.8
			c0-1.8-0.5-3.4-1.5-4.8h0c-1-2-1.7-4.1-2.3-6.3c-0.2-0.9-0.4-1.7-0.6-2.6c-0.3-1.9-0.5-3.9-0.5-5.9c0-7.3,2.3-14.1,6.2-19.6
			c3.6-3.8,6-8.8,6.6-14.3h0.1c0.5-3.3,2.5-5.9,6.7-6.8c0-0.1,0-0.3,0-0.4c0-0.1,0-0.1,0-0.2l0,0c0-1.2,0.1-2.4,0.4-3.5
			c0.4-1.6,0.9-3.2,1.7-4.6c1.9-3.4,4.9-6,8.5-7.5c1.9-0.7,4-1.2,6.1-1.2h8.5l0,0c1.3,0,2.5-0.2,3.7-0.4c0.6-0.1,1.2-0.3,1.8-0.5
			c6-2.1,10.4-7.6,11-14.1C667.6,730.1,667.6,729.9,667.6,729.7z"/>
		<path id="Stroke-193" class="st1" d="M520.8,668c-7.7,0-13.9-6.5-13.9-14.4v0c0-2.5,0.6-4.9,1.7-7c0.5-1.1,0.8-2.4,0.8-3.7
			c0-2.8-1.3-5.2-3.3-6.7c-4.5-3.2-7.5-8.5-7.5-14.6v0v-4v-8c0-1.4,0.4-2.6,1.1-3.7l-7.1,8.9l0,0c-0.2,0.3-0.4,0.5-0.6,0.7
			c-0.2,0.1-0.3,0.3-0.5,0.4c-1.3,1-2.8,1.6-4.4,1.6c-0.2,0-0.5,0-0.7,0c-1.3-0.1-2.5-0.6-3.5-1.4c1.5,8.4,2.3,16.9,2.3,25.7
			c0,14.3-2.1,28.1-6,41.2c-0.6,1.3-0.9,2.7-0.9,4.2c0,2,0.5,3.8,1.4,5.4h0c1.1,2.1,1.6,4.5,1.6,7.1c0,4.2-1.7,8-4.3,10.8v0
			c-2.1,2-3.3,4.9-3.3,8c0,0.6,0.1,1.1,0.1,1.7h0c0.2,0.7,0.2,1.5,0.2,2.2c0,4.2-2.4,7.8-5.9,9.6c-2.5,1.1-4.2,3.6-4.2,6.5
			c0,1.7,0.6,3.3,1.6,4.5h0c0,0,0,0,0,0c0,0,0,0,0,0c0.9,1,1.4,2.2,1.4,3.6c0,1.6-0.7,3-1.8,4h0c-2,1.7-3.3,4.2-3.3,7
			c0,1.2,0.2,2.4,0.7,3.4h0c2.3,6,3.6,12.6,3.6,19.4c0,12-3.9,23.1-10.5,32.1v0.4c-2.2,1.8-3.5,4.5-3.5,7.6c0,0.9,0.1,1.7,0.3,2.5h0
			c0.4,1.1,0.5,2.3,0.5,3.5c0,4.2-2.3,7.9-5.7,9.9c0,0,0,0,0,0c-0.1,0.1-0.2,0.1-0.3,0.2v0c-3.3,2-5.6,5.6-5.6,9.7
			c0,1.3,0.2,2.5,0.6,3.7h0c1.2,3.3,1.9,6.9,1.9,10.6c0,5.2-1.3,10.2-3.6,14.5c0,0.1-0.1,0.1-0.1,0.2c0,0.1-0.1,0.2-0.1,0.2h0
			c-0.6,1.2-0.9,2.5-0.9,4c0,2.2,0.8,4.2,2,5.7h0c0,0,0,0,0,0c0,0,0.1,0.1,0.1,0.1c3.2,3.5,5.1,8.1,5.1,13.2c0,4.3-1.3,8.3-3.7,11.5
			h0c-0.8,1.2-1.3,2.6-1.3,4.2c0,1.7,0.6,3.3,1.6,4.6h-0.1c1.2,1.4,1.9,3.2,1.9,5.1c0,1.9-0.7,3.7-1.8,5c-1.6,1.4-2.7,3.5-2.7,5.9
			c0,1.3,0.3,2.6,0.9,3.7h0c0.2,0.4,0.2,0.9,0.2,1.4c0,0.5-0.1,1-0.3,1.5c-0.3,0.8-0.9,1.5-1.7,1.9c-0.3,0.2-0.6,0.3-0.9,0.4h-1.9
			c-1-0.3-1.9-0.9-2.4-1.8c-0.1-0.1-0.1-0.2-0.2-0.4c0,0,0,0,0,0h0c-0.9-1.5-2.5-2.6-4.4-2.6c-2.8,0-5.1,2.3-5.1,5.1
			s2.3,5.1,5.1,5.1c0.2,0,0.4,0,0.7,0v0c0.1,0,0.2,0,0.4,0c1.5,0,2.7,1.2,2.7,2.7c0,1.2-0.8,2.2-1.9,2.6l0,0c-2,0.8-3.5,2.8-3.5,5.1
			c0,2.4,1.5,4.4,3.7,5.2v0c1.1,0.4,1.9,1.4,2,2.6h0v21.3c0,1.8,1.2,3.4,2.9,4v0c0.7,0.2,1.3,0.8,1.3,1.6v10.3
			c0,2.1,1.7,3.7,3.7,3.7c0,0,0.1,0,0.1,0c1.3,0,2.3,1.1,2.3,2.3c0,0,0,0,0,0h0v10.5c0,3.2,2.6,5.8,5.8,5.8c1.3,0,2.5-0.4,3.5-1.2
			l0,0l8.2-6.1l0.4-0.3l-0.3,0.3c1.1-0.8,1.9-2.1,2.2-3.5c0.1-0.4,0.1-0.7,0.1-1.1c0-1.1-0.4-2.2-1-3.1c-0.4-0.5-0.8-1-1.4-1.4
			c-0.4-0.3-0.9-0.6-1.5-0.7c-0.5-0.2-1.1-0.3-1.7-0.3c-0.1,0-0.2,0-0.3,0c-0.2,0-0.3,0-0.3,0c-3.3-0.2-6.2-2-7.9-4.6
			c-0.4-0.6-0.7-1.2-0.9-1.9c-0.2-0.5-0.4-1.1-0.5-1.6c-0.1-0.6-0.2-1.3-0.2-1.9c0-0.2,0-0.3,0-0.5c0-2.1-1.1-4.4-2.9-5.4
			c-3.1-1.7-5.2-5.1-5.2-8.9c0-2.7,1.1-5.1,2.8-7c0.5-0.5,1.1-1,1.7-1.4v0c0.9-0.6,1.6-1.3,2.3-2.1c0.4-0.5,0.7-1,1-1.5
			c0.8-1.4,1.2-3.1,1.2-4.9c0-0.7-0.1-1.5-0.2-2.2c-0.4-1.3-0.7-2.8-0.7-4.3c0-2,0.4-4,1.2-5.7c1-2.3,2.7-4.3,4.8-5.8
			c1.1-0.9,1.8-2.3,1.8-3.9v-7.3v-2.5c0.1-0.4,0.1-0.9,0.1-1.3c0-2.1-0.9-4.1-2.3-5.5c-1-1.3-1.7-3-1.7-4.8c0-2.1,0.8-4,2.2-5.4h0
			c1-1.1,1.7-2.6,1.8-4.1c0-0.2,0-0.5,0-0.7c0-1-0.2-2-0.6-2.9c0,0,0-0.1,0-0.1c-1.6-3.1-2.5-6.7-2.5-10.4c0-4.9,1.5-9.4,4.2-13.1h0
			c1-1.4,1.6-3.1,1.6-4.9c0,0,0,0,0-0.1c0-1.5-0.4-3-1.1-4.2h0c-0.8-1.5-1.2-3.1-1.2-4.9c0-2.7,1-5.1,2.6-7v0
			c1.6-1.6,2.7-3.9,2.7-6.4c0-0.5-0.1-1-0.2-1.5h0c-0.1-0.6-0.2-1.3-0.2-2c0-0.4,0-0.8,0.1-1.1c0.1-1,0.4-2,0.7-2.9
			c0.4-0.8,0.6-1.2,1-1.9c0.3-0.5,0.7-0.9,1.1-1.4c1.8-1.9,3-4.6,3-7.5c0-1.6-0.3-3.1-0.9-4.4c-0.4-1.1-0.6-2.4-0.6-3.6
			c0-1.6,0.4-3.2,1-4.5c0.4-0.9,0.9-1.7,1.5-2.4c0.6-0.6,1.1-1.3,1.6-1.9c0.5-0.5,0.9-1.1,1.3-1.6c0.2-0.2,0.4-0.5,0.6-0.7
			c6.3-8.4,10.1-18.9,10.1-30.2c0-7.2-1.3-14-4-20.2c-0.2-0.5-0.3-1-0.4-1.5c-0.2-0.8-0.3-1.6-0.3-2.4c0-1,0.1-1.9,0.4-2.8
			c0.4-1.4,1-2.7,1.9-3.8v0c0,0,0,0,0.1-0.1c0.2-0.3,0.5-0.6,0.8-0.9c1.6-2.1,2.6-4.7,2.6-7.5c0-1.7-0.3-3.4-1-4.8h0
			c-0.3-0.5-0.5-1.1-0.6-1.7c-0.3-0.9-0.4-2-0.4-3c0-1.3,0.2-2.6,0.7-3.8c0.9-2.5,2.7-4.5,5-5.7v0c1.4-0.9,2.7-1.8,4-2.9
			c4.6-4,8-9.3,9.6-15.4c0.7-2.5,1-5.2,1-7.9c0-2.4-0.3-4.6-0.8-6.8h0.1c-0.1-0.6-0.2-1.1-0.2-1.7c0-4.8,3.1-8.9,7.5-10.3v0
			c5.7-2.2,9.7-7.6,9.7-14c0-0.2,0-0.3,0-0.5h0c0.2-2.9,1.7-5.4,4.1-6.9C521.1,668,520.9,668,520.8,668z"/>
		<path id="Stroke-195" class="st1" d="M500.6,604.8c-0.4,0.4-0.7,0.8-1,1.3L500.6,604.8L500.6,604.8z"/>
		<path id="Stroke-197" class="st1" d="M433.3,909.7c0.9,0,1.7-0.5,2.2-1.2v0l3.6-4.5l0,0c0.4-0.5,0.6-1,0.8-1.6v0l0,0
			c0,0,0-0.1,0-0.1l1.2-6.5l0.1-0.4l0-0.1h0c0-0.2,0-0.3,0-0.5c0-2.1-1.7-3.8-3.8-3.8c-2.1,0-3.8,1.7-3.8,3.8c0,0.6,0.2,1.2,0.4,1.8
			h0c0.3,0.5,0.5,0.9,0.6,1.5c0.1,0.5,0.2,1,0.2,1.5c0,1.7-0.7,3.2-1.8,4.2c-0.3,0.3-0.7,0.6-1.1,0.8c-0.1,0-0.1,0.1-0.2,0.1
			c0,0-0.1,0-0.1,0.1c-0.7,0.5-1.2,1.3-1.2,2.2C430.6,908.5,431.8,909.7,433.3,909.7z"/>
		<path id="Stroke-199" class="st1" d="M437.4,923c0,1,0.8,1.9,1.9,1.9c1,0,1.9-0.8,1.9-1.9c0-1-0.8-1.9-1.9-1.9
			C438.3,921.1,437.4,921.9,437.4,923z"/>
		<path id="Stroke-221" class="st1" d="M260.8,220.3c-0.2,0.2-0.4,0.3-0.7,0.4C260.4,220.6,260.6,220.5,260.8,220.3z"/>
		<polygon id="Stroke-223" class="st1" points="252.7,221.4 252.7,221.4 252.7,221.4 		"/>
		<path id="Stroke-225" class="st1" d="M242.3,232.3c-0.5,0.2-1,0.4-1.5,0.6C241.3,232.7,241.8,232.5,242.3,232.3z"/>
		<path id="Stroke-227" class="st1" d="M260.9,199.9c0.9-0.5,2-0.7,3.1-0.7C262.9,199.2,261.9,199.4,260.9,199.9z"/>
		<path id="Stroke-229" class="st1" d="M260.5,200.1c-0.5,0.3-0.9,0.6-1.3,1C259.5,200.8,260,200.4,260.5,200.1z"/>
		<path id="Stroke-231" class="st1" d="M259.7,211.6c-0.6-0.4-1.1-1-1.5-1.6C258.6,210.6,259.1,211.2,259.7,211.6z"/>
		<path id="Stroke-233" class="st1" d="M262.7,216.4c0,1.5-0.7,2.9-1.8,3.8C262,219.3,262.7,217.9,262.7,216.4
			c0-1.7-0.9-3.3-2.3-4.2l0,0l0,0C261.8,213.1,262.7,214.6,262.7,216.4z"/>
		<path id="Stroke-235" class="st1" d="M258.5,201.9c0.2-0.2,0.4-0.5,0.6-0.7C258.9,201.4,258.7,201.7,258.5,201.9z"/>
		<path id="Stroke-237" class="st1" d="M242.3,232.3c1.5-0.7,2.7-1.7,3.7-3C245,230.6,243.7,231.6,242.3,232.3z"/>
		<path id="Stroke-239" class="st1" d="M258.2,210c-0.8-1.1-1.2-2.4-1.2-3.9C257,207.6,257.5,208.9,258.2,210z"/>
		<path id="Stroke-243" class="st1" d="M267.2,199.2L267.2,199.2L267.2,199.2z"/>
		<path id="Stroke-247" class="st1" d="M259.1,201.2C259.1,201.2,259.1,201.2,259.1,201.2C259.1,201.2,259.1,201.2,259.1,201.2z"/>
		<path id="Stroke-249" class="st1" d="M264.2,199.2L264.2,199.2L264.2,199.2z"/>
		<path id="Stroke-251" class="st1" d="M264,199.2c0.1,0,0.1,0,0.2,0C264.2,199.2,264.1,199.2,264,199.2z"/>
		<path id="Stroke-253" class="st1" d="M257,206.2c0-1.6,0.5-3.1,1.5-4.3C257.6,203.1,257,204.5,257,206.2z"/>
		<path id="Stroke-255" class="st1" d="M260.9,220.2c-0.1,0-0.1,0.1-0.2,0.1C260.8,220.3,260.9,220.2,260.9,220.2z"/>
		<path id="Stroke-257" class="st1" d="M252.7,221.4L252.7,221.4L252.7,221.4h5c0.9,0,1.7-0.2,2.4-0.6c-0.7,0.4-1.5,0.6-2.4,0.6
			H252.7z"/>
		<path id="Stroke-259" class="st1" d="M260.9,199.9c-0.2,0.1-0.3,0.2-0.4,0.2C260.6,200.1,260.8,200,260.9,199.9z"/>
		<path id="Stroke-261" class="st1" d="M260.5,212.1c-0.3-0.2-0.5-0.3-0.8-0.6C259.9,211.8,260.2,212,260.5,212.1z"/>
		<path id="Stroke-263" class="st1" d="M247.7,225.6L247.7,225.6c0.4-2.4,2.5-4.2,5-4.2c0,0,0,0,0,0c0,0,0,0,0,0
			C250.1,221.4,248.1,223.2,247.7,225.6z"/>
		<path id="Stroke-265" class="st1" d="M246.8,227.9c0.4-0.7,0.7-1.5,0.8-2.3C247.5,226.4,247.2,227.2,246.8,227.9z"/>
		<path id="Stroke-267" class="st1" d="M267.2,199.2L267.2,199.2L267.2,199.2z"/>
		<path id="Stroke-269" class="st1" d="M238.2,233.1L238.2,233.1c0.6,0,1.1,0,1.7-0.1C239.4,233.1,238.8,233.1,238.2,233.1z"/>
		<path id="Stroke-271" class="st1" d="M259.7,211.6c-0.4-0.3-0.8-0.7-1.1-1.1C258.9,210.9,259.3,211.3,259.7,211.6z"/>
		<path id="Stroke-273" class="st1" d="M257.5,208.7c0.1,0.3,0.3,0.6,0.4,0.9C257.8,209.3,257.7,209,257.5,208.7z"/>
		<path id="Stroke-275" class="st1" d="M270,200c-0.7-0.4-1.6-0.7-2.4-0.8C268.4,199.4,269.4,199.8,270,200z"/>
		<path id="Stroke-277" class="st1" d="M260.1,220.8c-0.5,0.3-1.1,0.5-1.8,0.6C259,221.3,259.6,221.1,260.1,220.8z"/>
		<path id="Stroke-279" class="st1" d="M242.8,232c1.2-0.7,2.3-1.6,3.2-2.7C245.1,230.4,244,231.3,242.8,232z"/>
		<path id="Stroke-281" class="st1" d="M242.3,232.3c-0.5,0.2-1,0.4-1.5,0.6C241.3,232.7,241.8,232.5,242.3,232.3z"/>
		<path id="Stroke-283" class="st1" d="M257.2,207.7c0.1,0.3,0.2,0.7,0.3,1C257.4,208.4,257.3,208.1,257.2,207.7z"/>
		<path id="Stroke-287" class="st1" d="M270.5,200.4L270.5,200.4c0-0.1-0.2-0.2-0.5-0.3C270.2,200.1,270.3,200.2,270.5,200.4z"/>
		<path id="Stroke-289" class="st1" d="M339.8,226.6c-1.2-2.2-3.5-3.7-6.1-3.7v-0.1h-31.3h-4.2h-4.6c-1.3,0-2.6,0.4-3.6,1
			c-1.8,1.1-3.1,3.1-3.3,5.4c0,0,0,0,0,0.1c0.1,0.3,0.1,0.6,0.1,1c0,0.1,0,0.3,0,0.4c0,0.1,0,0.1,0,0.2c0,0.2,0.1,0.5,0.2,0.7
			c0,0.1,0.1,0.2,0.1,0.2c0,0.1,0.1,0.3,0.1,0.4c0,0.1,0.1,0.2,0.1,0.3c0,0.1,0.1,0.2,0.2,0.3s0.1,0.2,0.2,0.3
			c0,0.1,0.1,0.2,0.2,0.2c0.1,0.1,0.2,0.2,0.2,0.3c0,0,0.1,0.1,0.1,0.1c0.4,0.5,0.8,0.9,1.2,1.2c0.2,0.2,0.5,0.4,0.7,0.6
			c1.7,1,2.8,2.7,2.8,4.8c0,0.7-0.1,1.4-0.4,2.1c0,0.1-0.1,0.2-0.2,0.4c-0.3,0.8-0.5,1.7-0.5,2.6c0,0.2,0,0.3,0,0.5l0,0v9.1l0,0
			l8.7-2.8l0,0c2.2-0.6,3.9-2.2,4.7-4.3h0c0.9-2.8,3.5-4.8,6.6-4.8c0.5,0,0.9,0,1.4,0.1v0c0.6,0.1,1.1,0.2,1.7,0.2
			c3.2,0,5.8-2.1,6.6-5c1.1-2.1,3.3-3.5,5.9-3.5c0.9,0,1.8,0.2,2.6,0.5c1.1,0.7,2.4,1.1,3.8,1.1c3.8,0,6.9-3.1,6.9-6.9
			C340.6,228.7,340.3,227.6,339.8,226.6z"/>
		<path id="Stroke-291" class="st1" d="M267.6,199.2c-0.1,0-0.2,0-0.4,0C267.3,199.2,267.5,199.2,267.6,199.2z"/>
		<path id="Stroke-293" class="st1" d="M300,154.7c-0.3,0-21.2,1.7-21.2,1.7c-7.3,0-13.1,5.9-13.1,13.1c0,1,0.1,1.9,0.3,2.8h0
			c0.1,0.3,0.2,0.7,0.2,1c0,1.1-0.4,2.1-1.1,2.8h0c-1.5,1.7-2.5,3.9-2.5,6.4c0,0.1,0,0.1,0,0.2c-0.2,5.3-4.5,9.6-9.9,9.6
			c-1.9,0-3.7-0.6-5.2-1.5v0c-1.5-1-3.3-1.6-5.3-1.6c-2.3,0-4.3,0.8-6,2.1v0c-1.3,1.1-3,1.8-4.9,1.8v0h-12.9v0c0,0,0,0,0,0
			c-4.1,0-7.3-3.1-7.6-7.1h-0.1c-0.4-4.5-3.2-8.2-7.1-10v-0.1c-4.4-1.8-7.6-6.2-7.6-11.3c0-0.6,0.1-1.2,0.2-1.8H196
			c0.1-0.7,0.2-1.4,0.2-2.1c0-4-1.8-7.5-4.6-9.9v-0.2c-0.8-0.7-1.6-1.4-2.3-2.2c-2-2.2-3.4-4.8-4.2-7.7c-0.4-1.6-0.7-3.2-0.7-4.9
			c0-4.9,1.8-9.3,4.9-12.6v-0.2c1.4-2.1,2.3-4.6,2.3-7.4c0-0.6-0.1-1.2-0.2-1.8h0.1c-0.1-0.6-0.2-1.2-0.2-1.8c0-3.5,1.5-6.6,3.9-8.7
			v0c1.6-1.3,2.6-3.3,2.6-5.5c0-4-3.2-7.2-7.2-7.2c-0.8,0-2.3,0.3-2.3,0.3c-1,0.3-2,0.5-3,0.5c-6,0-10.8-4.7-11.2-10.5h0
			c-0.6-3-2.5-5.5-5.1-6.9c-2.7-1.5-4.6-4.8-4.6-8.1c0-0.2,0,0,0-0.2h0c0-7.3-5.9-13.1-13.1-13.1c-1.2,0-2.4,0.2-3.5,0.5
			c-1.3,0.3-2.7,0.5-4.1,0.5c-8.3,0-15.3-5.3-18-12.6h-0.1c-3.3-9.4-12.2-16.1-22.7-16.1c-2.6,0-5,0.4-7.3,1.1v-0.1
			c-3.9,1.4-8,2.2-12.4,2.2c-11,0-20.8-4.8-27.6-12.5h-0.1c-0.5-0.6-1.1-1.1-1.7-1.5l0,0l0,0c-0.1-0.1-0.3-0.1-0.4-0.2
			c0,0-19.3-11-20.4-11.3l-0.1,0l-0.1,0c-0.5-0.1-1.1-0.2-1.6-0.2c-0.1,0-26.9-2.3-26.9-2.3C2.2,0.2,0.3,2,0.3,4.3
			c0,1.2,0.5,2.3,1.4,3c1.8,1.8,3,4.2,3,7c0,2.1-0.7,4-1.8,5.6h0c-1.2,1.6-1.9,3.6-1.9,5.7c0,3.9,2.3,7.2,5.6,8.8v0
			c2.6,1.2,4.5,3.9,4.7,6.9c0.1,1.7,0.7,3.2,1.7,4.5v0c1.8,2,2.9,4.6,2.9,7.5c0,2.7-1,5.1-2.5,7h0.1c-1.5,1.9-2.5,4.2-2.5,6.8
			c0,5.2,3.7,9.6,8.6,10.5v0c5.7,0.9,10.1,5.8,10.1,11.8c0,1.1-0.2,2.1-0.5,3.1c-0.2,0.7-0.3,1.5-0.3,2.3c0,2,0.7,3.8,1.8,5.2l0,0
			l16.3,27.6l0,0c1.3,2.6,4,4.3,7.1,4.3c4.4,0,8-3.6,8-8c0-1.3-0.4-2.6-0.9-3.7l0,0L45.6,92l0,0c0,0,0,0,0,0h0
			c-0.5-1.1-0.8-2.3-0.8-3.5c0-1.1,0.2-2.1,0.6-3h0c0.5-1.1,0.8-2.2,0.8-3.5c0-3.4-2-6.4-5-7.7v0c-2.8-1.4-4.8-4.3-4.8-7.6
			c0-0.2,0-0.3,0-0.5h-0.1c0-0.1,0-0.2,0-0.3c0-3.9-2.1-7.3-5.2-9.2v0c-3-1.9-4.9-5.3-4.9-9.1c0-1.2,0.3-2.4,0.6-3.5
			c0.5-1,0.7-2.2,0.7-3.4c0-3-1.6-5.5-4-7v-0.1c-2-1.2-3.3-3.3-3.3-5.8c0-0.2,0.2-2.8,0.1-3c0,0,0.1,0,0.1,0c0-4.3,3.5-7.8,7.8-7.8
			s6.5,2.8,7.8,7.8l7.1,31.8c0,0,0,0,0,0l0,0h0c0.8,3.9,3.4,7,7.1,8.3c3.1,1.4,5.4,4.6,6.3,8c0.2,3.7,1.8,7,4.2,9.5l0,0l24.7,43
			c0.5,1.1,1.1,2.2,1.8,3.1l0.2,0.3l0,0c1.5,1.9,3.6,3.5,6,4.3c4.7,2.1,8,6.9,8,12.4c0,3.2-1.2,6.1-3,8.5h0.1
			c-2.1,2.3-3.3,5.3-3.3,8.7c0,4.9,2.7,9.1,6.6,11.3c2.5,1.4,4.4,3.8,5,6.7h0.1c1.5,5.6,6.6,9.8,12.6,9.8c0.7,0,1.3,0,1.9-0.1
			c1.6-0.3,3.2-0.5,4.9-0.5c9.2,0,17.3,4.3,22.6,11h0.1c2.3,3.7,6.4,6.2,11.1,6.2c1.1,0,2.1-0.1,3.1-0.3c0.8-0.2,1.6-0.4,2.5-0.4
			c3.2,0,5.9,1.8,7.3,4.4c3.3,5.2,9,8.6,15.6,8.6H217c1.3,0,2.5,0.5,3.3,1.3h0l11,9.3c0.3,0.3,0.7,0.6,1.1,0.9l0.3,0.3l0,0
			c1.6,1.1,3.4,1.7,5.5,1.7c0.6,0,1.1-0.1,1.7-0.1c0.3,0,0.5-0.1,0.8-0.2c0.5-0.1,1-0.3,1.5-0.6c0.2-0.1,0.4-0.2,0.5-0.3
			c1.2-0.7,2.3-1.6,3.2-2.7c0.3-0.4,0.6-0.9,0.9-1.4c0.4-0.7,0.7-1.5,0.8-2.3h0c0.4-2.4,2.5-4.2,5-4.2c0,0,0,0,0,0h0v0h5
			c0.2,0,0.4,0,0.6,0c0.6-0.1,1.2-0.3,1.8-0.6c0.2-0.1,0.5-0.3,0.7-0.4c0.1,0,0.1-0.1,0.2-0.1c1.1-0.9,1.8-2.3,1.8-3.8
			c0-1.7-0.9-3.3-2.3-4.2l0,0c-0.3-0.2-0.5-0.3-0.8-0.6c-0.4-0.3-0.8-0.7-1.1-1.1c-0.1-0.1-0.2-0.3-0.3-0.4
			c-0.1-0.1-0.2-0.3-0.3-0.4c-0.2-0.3-0.3-0.6-0.4-0.9c-0.1-0.3-0.2-0.6-0.3-1c-0.1-0.5-0.2-1-0.2-1.6c0-1.6,0.5-3.1,1.5-4.3
			c0.2-0.2,0.4-0.5,0.6-0.7c0,0,0,0,0,0c0.4-0.4,0.9-0.7,1.3-1c0.1-0.1,0.3-0.2,0.4-0.2c0.9-0.5,2-0.7,3.1-0.7h3.2
			c1.1,0,2.1,0.4,2.8,0.9c0.3,0.2,0.5,0.3,0.5,0.3c0.8,0.5,1.6,0.9,2.5,1.2c0,0,0,0,0.1,0c0.9,0.3,1.9,0.5,3,0.5c0,0,0.1,0,0.1,0
			c1.1,0,2.1-0.3,3.1-0.6c1.8-0.7,3.5-1.8,4.6-3.4h0c1.1-1.4,2.7-2.3,4.6-2.3c1.9,0,3.6,0.9,4.6,2.3h0c1,1.3,2.6,2.2,4.4,2.3
			c0.1,0,0.1,0,0.2,0c0.2,0,0.3,0,0.5,0c1.7-0.1,3.3-1,4.2-2.4c0.3-0.4,0.5-0.8,0.7-1.2c0.3-0.7,0.4-1.4,0.4-2.2v-12.4h0
			c0-2.9,1.3-5.5,3.4-7.2v-0.1c2.7-2.1,4.4-5.2,4.4-8.9C311.2,159.8,306.2,154.7,300,154.7z"/>
		<path id="Stroke-295" class="st1" d="M286.7,229.3C286.7,229.3,286.7,229.3,286.7,229.3c-0.4-1.9-2-3.3-3.9-3.6v0
			c-1.5-0.4-2.7-1.4-3.3-2.8c-0.1-0.2-0.2-0.5-0.2-0.8c-0.1-0.3-0.1-0.7-0.1-1v-19.7c-1,0.3-2,0.6-3.1,0.6c0,0-0.1,0-0.1,0
			c-1,0-2-0.2-3-0.5c0,0,0,0-0.1,0c-0.9-0.3-2.8-1.4-3-1.5c-0.7-0.4-1.5-0.8-2.4-0.8h0l-0.4,0h-3H264c-1.1,0-2.2,0.3-3.1,0.7
			c-0.2,0.1-0.3,0.2-0.4,0.2c-0.5,0.3-0.9,0.6-1.3,1c0,0,0,0,0,0c-0.2,0.2-0.4,0.4-0.6,0.7c-0.9,1.2-1.5,2.7-1.5,4.3
			c0,0.5,0.1,1.1,0.2,1.6c0.1,0.3,0.2,0.7,0.3,1c0.1,0.3,0.3,0.6,0.4,0.9c0.1,0.1,0.2,0.3,0.3,0.4c0.1,0.1,0.2,0.3,0.3,0.4
			c0.3,0.4,0.7,0.8,1.1,1.1c0.3,0.2,0.5,0.4,0.8,0.5l0,0c1.4,0.9,2.3,2.4,2.3,4.2c0,1.5-0.7,2.9-1.8,3.8c-0.1,0-0.1,0.1-0.2,0.1
			c-0.2,0.2-0.4,0.3-0.7,0.4c-0.5,0.3-1.1,0.5-1.8,0.6c-0.2,0-0.4,0-0.6,0h-5v0h0c0,0,0,0,0,0c-2.5,0-4.6,1.8-5,4.2h0
			c-0.2,0.8-0.5,1.6-0.8,2.3c-0.2,0.5-0.5,0.9-0.9,1.4c-0.8,1.1-1.9,2.1-3.2,2.7c-0.2,0.1-0.4,0.2-0.5,0.3c-0.5,0.2-1,0.4-1.5,0.6
			c-0.3,0.1-0.5,0.1-0.8,0.2c-0.5,0.1-1.1,0.1-1.7,0.1h6c0.8,0,1.5,0.4,2,1l8,8.8l0,0c2.4,2.5,5.8,4.1,9.5,4.1
			c0.7,0,1.3-0.1,1.9-0.1v0c0,0,0.1,0,0.1,0c4.5-0.7,8.3-3.7,10.1-7.8c1-2.4,3.4-4.1,6.1-4.1v0c0.1,0,0.1,0,0.2,0
			c2.4,0,4.4-1.8,4.7-4.1c0-0.1,0-0.1,0-0.2c0-0.1,0-0.2,0-0.4C286.8,230,286.8,229.6,286.7,229.3z"/>
		<path id="Stroke-297" class="st1" d="M302.4,198c-1,1.3-2.5,2.2-4.2,2.4c-0.2,0-0.3,0-0.5,0c-0.1,0-0.1,0-0.2,0
			c-1.8-0.1-3.4-1-4.4-2.3h0c-1.1-1.4-2.7-2.3-4.6-2.3c-1.9,0-3.6,0.9-4.6,2.3h0c-1.1,1.6-2.7,2.7-4.6,3.4v19.7c0,0.3,0,0.7,0.1,1
			c0.1,0.3,0.1,0.5,0.2,0.8c0.6,1.4,1.8,2.5,3.3,2.8v0c1.9,0.3,3.4,1.7,3.9,3.6c0.2-2.3,1.4-4.3,3.3-5.4c1.1-0.7,2.3-1,3.6-1h-2.4
			c1-1.1,1.6-2.6,1.6-4.2c0-0.1,0-0.1,0-0.2h0v-10.1c0-1.3,0.9-2.3,2-2.7v0c1.2-0.3,2.3-0.9,3.3-1.5c1.9-1.3,3.3-3,4.2-5.1
			c0.3-0.7,0.5-1.5,0.7-2.3C302.9,197.2,302.7,197.6,302.4,198z"/>
		<path id="Stroke-299" class="st1" d="M499.9,450c0.1,0,0.1-0.1,0.2-0.1l-0.1,0C499.9,449.9,499.9,449.9,499.9,450z"/>
		<path id="Stroke-301" class="st1" d="M500.1,449.9L500.1,449.9C500.1,449.9,500.1,449.9,500.1,449.9L500.1,449.9z"/>
		<path id="Stroke-303" class="st1" d="M476.9,464.2c-0.4,0.3-0.7,0.6-1.1,1C476.2,464.8,476.5,464.5,476.9,464.2z"/>
		<path id="Stroke-305" class="st1" d="M511.8,532L511.8,532L511.8,532z"/>
		<path id="Stroke-307" class="st1" d="M478,463.4c-0.2,0.1-0.3,0.2-0.5,0.4C477.7,463.6,477.9,463.5,478,463.4z"/>
		<path id="Stroke-309" class="st1" d="M479.3,462.7c-0.1,0.1-0.3,0.1-0.4,0.2C479,462.9,479.1,462.8,479.3,462.7z"/>
		<path id="Stroke-311" class="st1" d="M480.1,462.4c0.1,0,0.3-0.1,0.4-0.2h0C480.4,462.2,480.2,462.3,480.1,462.4z"/>
		<path id="Stroke-313" class="st1" d="M515.5,535.8c0-2.1-1.7-3.8-3.7-3.8h0C513.8,532,515.5,533.7,515.5,535.8
			C515.5,535.8,515.5,535.8,515.5,535.8L515.5,535.8l0,15.8c0-0.1,0-0.3,0-0.4V535.8L515.5,535.8z"/>
		<path id="Stroke-315" class="st1" d="M501.9,445.5c0,0.3-0.1,0.5-0.2,0.7C501.8,446,501.9,445.7,501.9,445.5z"/>
		<path id="Stroke-317" class="st1" d="M501.5,447c-0.1,0.3-0.3,0.6-0.4,0.9C501.3,447.6,501.4,447.3,501.5,447z"/>
		<path id="Stroke-319" class="st1" d="M500.9,448.4c-0.2,0.3-0.4,0.6-0.6,0.9C500.5,449,500.7,448.7,500.9,448.4z"/>
		<path id="Stroke-321" class="st1" d="M907.3,471.2c-0.1,0-0.3,0-0.4,0v0c-0.3,0-0.5,0-0.7,0c-14.5,0-27.2-8-33.8-19.9h0
			c-3.1-4.9-8.4-8.1-14.5-8.1c-3.3,0-6.4,1-9.1,2.7v-0.1c-3.1,2.1-6.8,3.2-10.7,3.2c-6.1,0-11.6-2.9-15.2-7.3h-0.1
			c-2.3-2.7-5.7-4.4-9.5-4.4c-0.1,0-0.1,0-0.2,0v0c-4.9,0-9.1-3-11-7.2c-1-3.4-3.8-6.1-7.3-6.9l0,0l-0.1,0c-0.2-0.1-0.5-0.1-0.8-0.1
			l-26.9-5c-0.5-0.2-1.1-0.3-1.6-0.3l0,0l0,0c-0.2,0-0.4,0-0.6,0c-3.1,0-5.8,1.9-7,4.5h0c-2.2,4.5-6.6,7.6-11.8,8
			c5.2-0.6,9.3-5.1,9.3-10.4l0,0c0-0.2,0-0.3,0-0.5c0-3.8-3.1-6.8-6.8-6.8H739c-1.9,0-3.6,0.8-4.7,2.2l0,0l0,0
			c-0.2,0.3-0.4,0.6-0.6,0.9l-3.8,5.4c-1.8,1.8-4.6,1.8-6.4,0v0h0c-1.8-1.8-1.8-4.6,0-6.4l16.1-12.4c0.7-0.4,1.4-1,2.1-1.6
			c4.1-4.1,4.1-10.7,0-14.8c-1.8-1.8-4.1-2.8-6.4-3v0c-2.2,0-3.9-1.8-3.9-3.9v0l0,0v-13.3c0-4.1-3.4-7.5-7.5-7.5
			c-0.4,0-0.8,0-1.1,0.1c-3.6,0.6-6.4,3.6-6.4,7.4c0,0.3,0,0.7,0.1,1h0c0.3,1.2,0.4,2.4,0.4,3.6c0,9.5-7.7,17.3-17.3,17.3
			c-3.5,0-6.8-1.1-9.6-2.9v0c-1.7-1.1-3.7-1.8-5.9-1.8c-1.7,0-3.2,0.4-4.6,1.1c-0.6,0.5-1.2,1.1-1.8,1.5c-0.6,0.4-1.2,0.8-1.8,1.2
			c-0.3,0.3-0.6,0.5-0.9,0.7c-2.4,1.8-5.3,2.9-8.6,2.9c-0.7,0-1.4-0.1-2-0.2c-0.4-0.1-0.8-0.1-1.2-0.2v0c-0.9-0.2-1.7-0.2-2.6-0.2
			c-0.5,0-1,0-1.4,0.1c-1.3,0.1-2.5,0.4-3.6,0.9c-0.4,0.3-0.8,0.5-1.1,0.7c-0.7,0.4-1.4,0.7-2.1,0.9c0,0-0.8,0.4-2.1,0.8
			c-0.1,0-0.2,0-0.2,0.1c-0.1,0-0.2,0.1-0.4,0.1c-0.1,0-0.3,0.1-0.4,0.1c0,0,0,0,0,0c-0.3,0.1-0.7,0.1-1,0.2c-0.1,0-0.1,0-0.2,0
			c-0.1,0-0.3,0-0.4,0.1c-0.1,0-0.2,0-0.3,0c-0.1,0-0.2,0-0.3,0c-0.2,0-0.5,0-0.7,0c-1.9,0-3.8-0.4-5.5-1.1c-1.2-0.6-2.4-1-3.8-1.2
			v0c-7.1-0.8-12.5-6.9-12.5-14.1c0-3.2,1.1-6.2,2.9-8.6h0c1.6-1.8,2.6-4.1,2.6-6.7c0-2.9-1.2-5.5-3.2-7.3c-0.2-0.1-0.3-0.3-0.5-0.4
			l0,0l-0.2-0.2c0,0,0,0,0,0l-17.9-14.2c-0.9,2.8-2.3,5.4-4.1,7.7c-4.5,5.7-11.5,9.4-19.3,9.4c-5.7,0-11-2-15.1-5.2v0
			c-0.7-0.5-1.6-0.8-2.6-0.8c-0.2,0-0.4,0-0.6,0c-1.4,0.2-2.6,1-3.3,2.1c-0.4,0.7-0.7,1.5-0.7,2.3c0,2,1.3,3.6,3,4.2
			c4.8,0.6,8.6,4.7,8.7,9.6h0c0,2.3,1.8,4.1,4.1,4.1c0.1,0,0.2,0,0.3,0v0h10.8c2.3,0,4.1,1.8,4.1,4.1c0,1.8-1.2,3.4-2.8,3.9
			l-35.9,17.7c-1.9,1.1-4.1,1.7-6.4,1.7c-3.1,0-5.9-1.1-8.2-2.9h0L527,387.1c-1.2,1.2-2.8,2-4.6,2h-11.7c-0.4,0-0.8,0.2-1.2,0.5
			l-3.3,3.5h0c0,0,0,0,0,0c-0.5,0.5-0.5,1.4,0,1.9c0.3,0.3,0.6,0.4,1,0.4h5.1v0c2.1,0.1,3.7,1.8,3.7,3.8c0,0.7-0.2,1.4-0.6,2
			c-0.3,0.5-0.7,0.9-1.1,1.2c-2.7,1.8-4.5,5-4.5,8.5v23.3l0,0c0,6.8-4,12.7-9.8,15.6c-1.5,7.3-8,12.8-15.7,12.8
			c-1.3,0-2.6-0.2-3.8-0.5c-0.1,0-0.3,0.1-0.4,0.2c-0.3,0.1-0.6,0.2-0.9,0.4c-0.1,0.1-0.3,0.1-0.4,0.2c-0.3,0.1-0.5,0.3-0.8,0.4
			c-0.2,0.1-0.3,0.2-0.5,0.4c-0.2,0.1-0.4,0.3-0.6,0.4c-0.4,0.3-0.7,0.6-1.1,1c-0.9,0.9-1.6,1.8-2.1,2.9l0,0l0,0.1
			c-0.1,0.2-0.2,0.3-0.2,0.5l-8.8,18l0,0c-2.3,3.9-2.3,8.9,0,12.8l0,0l0.1,0.1c0.3,0.5,0.6,1,1,1.5l15.5,21.8h0
			c1.4,2.2,3.9,3.6,6.8,3.6c2.6,0,4.8-1.2,6.3-3.1v0c0.4-0.5,1-0.9,1.8-0.9c1.2,0,2.1,0.9,2.2,2.1c0.4,4.1,3.8,7.3,8.1,7.3h5.5h0h0
			c2,0,3.7,1.7,3.7,3.8v0v15.4l0-0.1c0-0.1,0-0.2,0-0.3c0-0.2,0-0.3,0.1-0.5c0-0.1,0-0.2,0-0.3c0-0.2,0.1-0.3,0.1-0.5
			c0-0.1,0-0.2,0.1-0.3c0-0.2,0.1-0.3,0.1-0.5c0-0.1,0-0.1,0.1-0.2c0.1-0.4,0.3-0.7,0.5-1.1c0,0,0,0,0,0c0.1-0.2,0.2-0.3,0.3-0.5
			c0-0.1,0.1-0.1,0.1-0.2c0.1-0.2,0.2-0.3,0.3-0.5c0-0.1,0.1-0.1,0.1-0.2c0.1-0.2,0.2-0.3,0.4-0.5c0,0,0,0,0,0
			c0.4-0.5,0.9-1,1.4-1.4c0,0,0.1,0,0.1-0.1c0.2-0.1,0.3-0.2,0.5-0.3c0,0,0.1,0,0.1-0.1c0.6-0.4,1.2-0.6,1.8-0.9
			c0.9-0.3,1.8-0.5,2.7-0.5v0h7.3c5.9,0,11-3.4,13.7-8.3c0.8-1.3,2.2-2.1,3.9-2.1c2.6,0,4.6,2.1,4.7,4.6h0v10.1
			c0,4.2,3.4,7.6,7.6,7.6h7.9c1.4,0,2.6,0.8,3.3,1.9h0c2,3.1,5.4,5.1,9.2,5.1c0.9,0,1.8-0.1,2.6-0.3c0.2,0,0.4-0.1,0.7-0.1
			c1.3,0,2.5,0.7,3.1,1.8h0c2.3,3.9,6.5,6.5,11.3,6.5h5.6v0c2,0.1,3.7,1.8,3.7,3.8v4.1v6.6v6.9h0c0.3,6,5.1,10.8,11.1,11.2
			c0,0,0.1,0,0.1,0.1c0.3,0,0.6,0,1,0c9.6,0,17.5,7.4,18.6,17c0.1,0.8,0.2,1.5,0.2,2.3c0,5.4-2.1,10.2-5.5,13.7
			c-0.9,0.9-1.8,1.7-2.9,2.4c0,0,0,0,0,0c-0.1,0.6-0.2,1.2-0.2,1.8c0,2.3,0.7,4.4,1.9,6H633c0.5,0.7,0.7,1.6,0.7,2.5
			c0,1.8-1.1,3.4-2.6,4.2v0c-1.1,0.5-2,1.4-2.6,2.4c-0.5,0.8-0.7,1.8-0.7,2.8c0,1.3,0.4,2.4,1.1,3.4h0c0.8,0.9,1.2,2.1,1.2,3.4
			c0,1.8-0.9,3.4-2.3,4.4v0c-1.5,1-2.5,2.8-2.5,4.8c0,3.2,2.5,5.8,5.6,5.8c1.7,0,3.2-0.8,4.2-2v0.1c1.8-2.7,4.8-4.6,8.2-4.6
			c5,0,9.2,3.9,9.8,9h0.1c0.6,3.6,3.1,6.6,6.4,7.8v0c1.6,0.8,2.7,2.4,2.7,4.3c0,1.4-0.6,2.6-1.5,3.5h0c-3.2,2.7-5.2,6.7-5.2,11.2
			c0,5.4,2.9,10,7.2,12.6v0c0.7,0.4,1.3,0.8,1.8,1.4c1.9,1.8,3.1,4.4,3.1,7.2c0,0.2,0,0.5,0,0.7c-0.6,6.6-5,12-11,14.1
			c-0.6,0.2-1.2,0.4-1.8,0.5c-1.2,0.3-2.5,0.4-3.7,0.4l0,0h-8.5c-2.2,0-4.2,0.4-6.1,1.2c-3.6,1.4-6.6,4.1-8.5,7.5
			c-0.8,1.4-1.4,2.9-1.7,4.6c-0.2,1.1-0.4,2.3-0.4,3.5l0,0c0,0.1,0,0.1,0,0.2c0,0.2,0,0.3,0,0.4c0.2,2.2,2.1,3.9,4.3,3.9
			c0.5,0,1.1-0.1,1.5-0.3v0c0.6-0.2,1.3-0.4,2.1-0.4c3.3,0,5.9,2.7,5.9,5.9c0,0.7-0.1,1.3-0.3,1.9h0c-0.1,0.4-0.2,0.8-0.2,1.2
			c0,1.9,1.6,3.5,3.5,3.5c1.3,0,2.5-0.7,3.1-1.8h0c0.3-0.6,1-1,1.7-1c0,0,0,0,0,0c0,0,0,0,0,0c0.4,0,0.7,0.1,1.1,0.3
			c0.1,0.1,0.3,0.2,0.4,0.3l5.8,3.9c0.3,0.2,0.5,0.3,0.8,0.5l0,0c0,0,0,0,0,0c1.9,1.3,3.5,3.1,4.5,5.3c0.8,1.7,1.2,3.5,1.2,5.5
			c0,2-0.4,3.8-1.2,5.5c-0.5,1-1.1,2-1.8,2.8l0,0c-0.1,0-0.1,0.1-0.2,0.1c0,0-0.1,0.1-0.1,0.1c-0.2,0.2-0.4,0.4-0.6,0.6
			c-0.9,1.2-1.5,2.7-1.5,4.3c0,2.8,1.7,5.3,4.2,6.4c0.8,0.4,1.8,0.6,2.8,0.6c2.3,0,4.3-1.1,5.5-2.8l0,0l54-59.6
			c3.7-3.9,5.9-9.1,5.9-14.9c0-0.5,0-1-0.1-1.5h0c0-0.4,0-0.7,0-1.1c0-13.4,10.8-24.2,24.2-24.2v0c0,0,0.1,0,0.1,0
			c5.1,0,9.5-2.6,12.1-6.5h0c2.6-3.6,6.8-5.9,11.6-6v0h26.4c7.9,0,14.3-6.3,14.6-14.1h0c0-3.9,2.5-7.2,6-8.5v0c5-1.7,8.8-6,9.7-11.4
			h0c0.9-4.9,4.3-8.9,8.7-10.7v0c5.3-2.2,9-7.4,9-13.5c0-0.7-0.1-1.4-0.2-2.1h0c-0.1-0.9-0.1-1.9-0.1-2.8c0-8.2,3.3-15.7,8.6-21.1
			v-0.1c3.6-3.5,5.9-8.3,5.9-13.7c0-3.2-0.8-6.2-2.2-8.9c-0.5-1.2-0.8-2.5-0.8-3.9c0-5.4,4.1-9.7,9.3-10.2v0c5.1-0.4,9-4.5,9.3-9.6
			h0c1-9.8,6.7-18.1,14.9-22.7v0c4-2.1,7.3-5.5,9.4-9.6l0,0c0.5-1,1-2.1,1.3-3.3l9-21.8c0.7-1.4,1.2-3.1,1.2-4.8l1.1-20.2
			c0-0.4,0.1-0.7,0.1-1.1C917.6,475.8,913,471.2,907.3,471.2z"/>
		<path id="Stroke-323" class="st1" d="M501.7,446.2c-0.1,0.3-0.1,0.5-0.2,0.8C501.6,446.8,501.7,446.5,501.7,446.2z"/>
		<path id="Stroke-325" class="st1" d="M501.1,447.9c-0.1,0.2-0.2,0.3-0.2,0.5C501,448.3,501.1,448.1,501.1,447.9z"/>
		<path id="Stroke-327" class="st1" d="M500.1,449.9c0-0.1,0-0.2,0.1-0.2c0.1-0.1,0.1-0.2,0.2-0.3c-0.2,0.2-0.3,0.5-0.5,0.7
			C499.9,449.9,500,449.9,500.1,449.9z"/>
		<path id="Stroke-329" class="st1" d="M502.1,443.9c0,0.6-0.1,1.1-0.1,1.6C502,445,502.1,444.4,502.1,443.9z"/>
		<path id="Stroke-331" class="st1" d="M478.9,462.9c-0.3,0.1-0.5,0.3-0.8,0.4C478.3,463.2,478.6,463.1,478.9,462.9z"/>
		<path id="Stroke-333" class="st1" d="M515.5,551.6v-15.8h0c0,0,0,0,0,0c0-2.1-1.7-3.8-3.7-3.8h0h0h-5.5c-4.2,0-7.7-3.2-8.1-7.3
			c-0.1-1.1-1-2.1-2.2-2.1c-0.7,0-1.4,0.4-1.8,0.9v0c-1.5,1.9-3.8,3-6.3,3c-2.8,0-5.3-1.4-6.8-3.6h0l-15.5-21.8
			c-0.4-0.5-0.7-1-1-1.5l-0.1-0.1l0,0c-2.3-3.9-2.3-8.9,0-12.8l0,0l8.8-18c0.1-0.2,0.2-0.3,0.2-0.5l0-0.1l0,0c0.6-1,1.3-2,2.1-2.9
			c0.3-0.3,0.7-0.7,1.1-1c0.2-0.2,0.4-0.3,0.6-0.4c0.2-0.1,0.3-0.3,0.5-0.4c0.3-0.2,0.5-0.3,0.8-0.4c0.1-0.1,0.3-0.2,0.4-0.2
			c0.3-0.1,0.6-0.2,0.9-0.4c0.1,0,0.3-0.1,0.4-0.2h0c1.2,0.3,2.5,0.5,3.8,0.5c7.8,0,14.2-5.5,15.7-12.8c-0.1,0-0.1,0.1-0.2,0.1
			c0.2-0.2,0.3-0.4,0.5-0.7c0.2-0.3,0.4-0.6,0.6-0.9c0.1-0.2,0.2-0.3,0.2-0.5c0.1-0.3,0.3-0.6,0.4-0.9c0.1-0.3,0.1-0.5,0.2-0.8
			c0.1-0.2,0.1-0.5,0.2-0.7c0.1-0.5,0.1-1.1,0.1-1.6c0-0.3,0-0.6,0-0.9c0-0.3-0.1-0.5-0.1-0.8c-0.8-4.5-4.7-7.9-9.4-7.9h-9.2
			c-0.9,0-1.9-0.1-2.8-0.3c-0.3-0.1-0.6-0.1-0.8-0.2c-0.1,0-0.1,0-0.2-0.1c-0.3-0.1-0.5-0.2-0.8-0.3c-2.7-1-4.9-2.8-6.4-5.1
			c-0.7-1-1.9-1.7-3.2-1.7c-0.2,0-0.4,0-0.5,0c-0.9,0.2-1.8,0.3-2.8,0.3c-4.9,0-9.2-2.7-11.4-6.6c-2.1-3.6-5.8-6.1-10.1-6.6v0
			c-4.8-0.4-8.9-3.4-10.8-7.5c-0.9-1.8-2.6-3.1-4.7-3.4v0c-1.3-0.1-2.5-0.5-3.7-1c3.8,2.2,6.3,6.3,6.3,10.9c0,5.4-3.4,10-8.2,11.8
			c-2,0.9-4.3,3.5-4.9,4.5c-2.6,4.7-18.7,34.9-18.7,34.9l0,0c-0.2,0.4-0.5,0.8-0.8,1.2c-1.6,1.6-4,1.7-5.8,0.4l0,0l-15.7-11.5h0
			c-0.3-0.2-0.6-0.4-0.8-0.7c-0.2-0.2-0.4-0.5-0.6-0.7c-1.7-2.3-1.5-5.5,0.5-7.6h0c0.7-0.8,1.2-1.9,1.2-3.1c0-0.5-0.1-0.9-0.2-1.3
			L363.1,457c-0.2,0.2-0.3,0.4-0.5,0.6c-0.5,0.7-0.9,1.6-0.9,2.6c0,0.3,0,0.7,0.1,1l0,0l2.3,13.6c0,0,0,0,0,0l0,0
			c0.9,5.9,5.6,10.6,11.4,11.5v0c5.8,1,10.5,5.5,11.5,11.3c0.1,5.8,3.7,10.7,8.7,12.7v0c1.8,0.7,3.3,2.2,4,4l9.5,25.2
			c-0.5,1.4-0.8,2.9-0.8,4.5c0,4.6,2.2,8.6,5.6,11.2c2.9,2.5,4.7,6.3,4.7,10.4c0,0.3,0,0.5,0,0.8h0.1c0,0.4,0,0.7,0,1.1
			c0,6.8,4.8,12.4,11.2,13.6v0c4.4,0.9,8,3.8,9.8,7.8h0c2.1,4.9,7,8.3,12.7,8.3c0.6,0,1.2,0,1.7-0.1v0c0.4-0.1,0.7-0.1,1.1-0.1
			c1.6,0,3.1,0.6,4.3,1.5h0l22.4,17.1c0.2,0.2,0.4,0.4,0.6,0.5c1,0.8,2.3,1.3,3.5,1.4c0.2,0,0.5,0,0.7,0c1.5,0,3.1-0.5,4.4-1.6
			c0.2-0.1,0.3-0.3,0.5-0.4c0.2-0.2,0.4-0.5,0.6-0.7l0,0l7.1-8.9c0.3-0.5,0.6-0.9,1-1.3c1.3-1.3,3-2,4.9-2h0.4
			c0.8,0,1.6-0.5,1.8-1.3c0.1-0.2,0.1-0.5,0.1-0.7c0,0,0,0,0,0h0v-10.2v0c0-5.6,3.1-10.5,7.6-13v-6.3L515.5,551.6L515.5,551.6
			c0-0.1,0-0.3,0-0.4v0C515.5,551.4,515.5,551.5,515.5,551.6z"/>
		<path id="Stroke-335" class="st1" d="M477.5,463.8c-0.2,0.1-0.4,0.3-0.6,0.4C477.1,464,477.3,463.9,477.5,463.8z"/>
		<path id="Stroke-337" class="st1" d="M480.1,462.4c-0.3,0.1-0.6,0.2-0.9,0.4C479.5,462.6,479.8,462.5,480.1,462.4z"/>
		<path id="Stroke-339" class="st1" d="M522.4,334.9H506v0c-0.1,0-0.1,0-0.2,0c-2.6,0-4.9-1.6-5.9-3.9c-2-4.7-6.7-8-12.1-8
			c-0.1,0-0.2,0-0.3,0c-0.6,0-1.7,0-2,0c-10.7,0-19.4-8.7-19.4-19.4c0-4.7,1.6-8.9,4.4-12.3h0c1.6-2.2,2.6-4.9,2.6-7.9v-4.9
			c0-5.4,4.4-9.8,9.8-9.8c0.1,0,0.3,0,0.4,0h3.3c0.2,0,0.4,0,0.6,0c1.3-0.1,2.6-0.7,3.6-1.7c2.3-2.3,2.3-6,0-8.2
			c-2.3-2.3-6-2.3-8.2,0c-0.4,0.4-0.8,0.9-1.1,1.5c-0.8,1.4-1.9,2.7-3,3.9h-0.2v0.2c-3.6,3.5-8.4,5.7-13.8,5.8l-4.4,0
			c-4.9,0-9.2,2.7-11.5,6.7h0c-1.6,2.8-4.6,4.7-8.1,4.7c-0.2,0-0.4,0-0.6,0c-0.2,0-0.3,0-0.5,0c-4.1,0-7.5,3.3-7.5,7.5
			c0,0.2,0,0.3,0,0.5c0,3.7-3,6.6-6.6,6.6c-0.2,0-0.3,0-0.5,0c-0.2,0-0.4,0-0.7,0c-2,0-3.7,0.8-4.9,2.2c-0.7,0.8-1.7,1.3-2.8,1.3
			c-1.1,0-2.1-0.5-2.8-1.3h0c-1.8-2.1-4.5-3.4-7.5-3.4c-0.6,0-1.1,0.1-1.7,0.2l0.6,0.2l0.2,0.1l0.7,0.2c0.1,0,0.2,0.1,0.3,0.2
			c0.1,0.1,0.2,0.1,0.4,0.2l0,0c0.1,0.1,0.2,0.2,0.3,0.2c0,0,0,0,0.1,0.1c0.1,0.1,0.2,0.2,0.2,0.3c0,0,0.1,0.1,0.1,0.1
			c0.1,0.1,0.1,0.2,0.2,0.3c0,0.1,0.1,0.1,0.1,0.2c0,0.1,0.1,0.2,0.1,0.2c0,0.1,0.1,0.1,0.1,0.2c0,0.1,0.1,0.2,0.1,0.2
			c0,0.1,0,0.2,0.1,0.3c0,0.1,0,0.1,0,0.2c0,0.2,0,0.3,0,0.5c0,1.7-1.2,3.1-2.9,3.4c-1.4,0.6-2.7,1.5-3.6,2.7
			c-0.3,0.4-0.6,0.9-0.9,1.3c-0.5,1-0.9,2.1-1,3.3c0,0,0,0,0,0.1c0,0.1,0,0.2,0,0.2c0,0.3,0,0.5,0,0.8c0,0.1,0,0.1,0,0.2
			c0,0.3,0,0.5,0,0.8c0.2,2.3,1.1,4.4,2.6,6c1.6,1.8,2.6,4.2,2.6,6.8c0,1.7-0.4,3.2-1.1,4.6c-1.6,2.7-2.6,5.9-2.6,9.2
			c0,4.5,1.6,8.5,4.3,11.7h0c1.8,2.3,2.9,5.2,2.9,8.4c0,4.6-2.3,8.6-5.7,11.1c-4.3,2-7.3,6.3-7.5,11.4c0,0.2,0,0.4,0,0.6
			c0,7.3,5.9,13.2,13.2,13.2c1.8,0,3.5-0.4,5-1c0.4-0.1,0.8-0.1,1.2-0.1c1.8,0,3.4,1.1,4.1,2.6c0.4,0.7,0.8,1.3,1.3,1.9
			c1.4,1.7,3.1,3,5.1,3.9c1.2,0.5,2.4,0.8,3.7,1v0c2.1,0.3,3.8,1.6,4.7,3.4c2,4.2,6,7.1,10.8,7.5v0c4.3,0.5,8,3,10.1,6.6
			c2.3,4,6.5,6.7,11.4,6.7c1,0,1.9-0.1,2.8-0.3c0.2,0,0.3,0,0.5,0c1.4,0,2.5,0.7,3.2,1.7c1.5,2.3,3.8,4.2,6.4,5.1
			c0.6,0.2,1.2,0.4,1.8,0.5c0.9,0.2,1.8,0.3,2.8,0.3h9.2c4.7,0,8.6,3.4,9.4,7.9c0,0.2,0.1,0.5,0.1,0.8c0,0.3,0,0.6,0,0.9
			c0,2.3-0.8,4.4-2.1,6l0.1,0c0,0,0,0,0,0c5.8-2.8,9.7-8.7,9.7-15.6l0,0V411c0-3.5,1.8-6.7,4.5-8.5c0.5-0.3,0.8-0.7,1.1-1.2
			c0.4-0.6,0.6-1.3,0.6-2c0-2.1-1.7-3.8-3.7-3.8v0h-5.1c-0.3,0-0.7-0.1-1-0.4c-0.5-0.5-0.5-1.4,0-1.9c0,0,0,0,0,0h0l3.3-3.5
			c0.3-0.3,0.7-0.5,1.2-0.5h11.7c1.8,0,3.5-0.8,4.6-2c1.1-1.1,1.7-2.6,1.7-4.3v-36.7v-4.8C528.7,337.8,525.9,334.9,522.4,334.9z"/>
		<path id="Stroke-341" class="st1" d="M422.1,196.8L422.1,196.8L422.1,196.8C422.1,196.8,422.1,196.7,422.1,196.8l-4.4-6.5l0,0
			c-0.9-1.5-2.6-2.5-4.5-2.5h-9.6c-3,0-5.3,2.4-5.3,5.3c0,3,2.4,5.3,5.3,5.3h3.7c2.5,0,4.7,1.5,5.7,3.7c0.9,1.8,2.7,3,4.8,3
			c3,0,5.3-2.4,5.3-5.3C423.1,198.6,422.7,197.6,422.1,196.8z"/>
		<path id="Stroke-343" class="st1" d="M551.3,194.1L551.3,194.1l-5.3-3.9l0,0c-0.4-0.3-1-0.5-1.6-0.5l0,0h-9.9h-0.1h0
			c-1.5,0-3,0.9-3.7,2.4c-0.9,2,0,4.4,2.1,5.3c0.5,0.2,1.1,0.3,1.6,0.3v0h10.1c1.4,0,2.8,0.5,3.8,1.3c0,0,0,0,0,0l0,0v0
			c0.5,0.3,1,0.5,1.6,0.5c1.6,0,2.9-1.3,2.9-2.9C552.8,195.5,552.2,194.6,551.3,194.1z"/>
		<path id="Stroke-345" class="st1" d="M565.8,202.2c0,1.4-1.2,2.6-2.6,2.6s-2.6-1.2-2.6-2.6s1.2-2.6,2.6-2.6
			S565.8,200.8,565.8,202.2z"/>
		<path id="Stroke-347" class="st1" d="M598.3,268c0,1.4-1.2,2.6-2.6,2.6c-1.4,0-2.6-1.2-2.6-2.6c0-1.4,1.2-2.6,2.6-2.6
			C597.2,265.4,598.3,266.6,598.3,268z"/>
		<path id="Stroke-349" class="st1" d="M604.4,260.4c0,1.4-1.2,2.6-2.6,2.6c-1.4,0-2.6-1.2-2.6-2.6s1.2-2.6,2.6-2.6
			C603.2,257.8,604.4,259,604.4,260.4z"/>
		<path id="Stroke-351" class="st1" d="M609.6,253.5c0,1.4-1.2,2.6-2.6,2.6c-1.4,0-2.6-1.2-2.6-2.6s1.2-2.6,2.6-2.6
			C608.4,250.9,609.6,252.1,609.6,253.5z"/>
		<path id="Stroke-353" class="st1" d="M563.2,187.4c0,1.4-1.2,2.6-2.6,2.6c-1.4,0-2.6-1.2-2.6-2.6s1.2-2.6,2.6-2.6
			C562,184.8,563.2,186,563.2,187.4z"/>
		<path id="Stroke-355" class="st1" d="M579.2,196.3c0,1.4-1.2,2.6-2.6,2.6c-1.4,0-2.6-1.2-2.6-2.6c0-1.4,1.2-2.6,2.6-2.6
			C578,193.7,579.2,194.8,579.2,196.3z"/>
		<path id="Stroke-357" class="st1" d="M572.6,188.1c0,1.4-1.2,2.6-2.6,2.6c-1.4,0-2.6-1.2-2.6-2.6c0-1.4,1.2-2.6,2.6-2.6
			C571.4,185.5,572.6,186.7,572.6,188.1z"/>
		<path id="Stroke-359" class="st1" d="M581.9,202.2c0,0.9-0.8,1.7-1.7,1.7c-0.9,0-1.7-0.8-1.7-1.7s0.8-1.7,1.7-1.7
			C581.2,200.5,581.9,201.3,581.9,202.2z"/>
		<path id="Stroke-361" class="st1" d="M590.6,206.5c0,0.9-0.8,1.7-1.7,1.7c-0.9,0-1.7-0.8-1.7-1.7s0.8-1.7,1.7-1.7
			C589.9,204.8,590.6,205.6,590.6,206.5z"/>
		<path id="Stroke-363" class="st1" d="M583.6,208.2c0,0.9-0.8,1.7-1.7,1.7c-0.9,0-1.7-0.8-1.7-1.7c0-0.9,0.8-1.7,1.7-1.7
			C582.9,206.5,583.6,207.3,583.6,208.2z"/>
		<path id="Stroke-365" class="st1" d="M607.7,244.1c0,1.8-1.5,3.3-3.3,3.3c-1.8,0-3.3-1.5-3.3-3.3s1.5-3.3,3.3-3.3
			C606.2,240.8,607.7,242.3,607.7,244.1z"/>
		<path id="Stroke-367" class="st1" d="M609.9,232.1l-3.2-3.2c-0.6-0.6-1.4-1-2.3-1c-1.8,0-3.3,1.5-3.3,3.3c0,0.9,0.4,1.8,1,2.3
			l3.2,3.2c0,0,0.1,0.1,0.1,0.1l0,0l0,0c0.6,0.6,1.4,0.9,2.3,0.9c1.8,0,3.3-1.5,3.3-3.3C611,233.6,610.5,232.8,609.9,232.1z"/>
		<path id="Stroke-369" class="st1" d="M572.5,274.4c0.6-0.6,0.9-1.4,0.9-2.3c0-1.8-1.5-3.3-3.3-3.3c-1,0-1.8,0.4-2.5,1.1l-3.2,3.2
			c-0.6,0.6-1,1.4-1,2.3c0,1.8,1.5,3.3,3.3,3.3c0.9,0,1.8-0.4,2.3-1l3.2-3.2C572.5,274.5,572.5,274.5,572.5,274.4L572.5,274.4z"/>
		<path id="Stroke-371" class="st1" d="M599.4,223.2L599.4,223.2l-3.2-3.2c-0.6-0.6-1.4-1-2.3-1c-1.8,0-3.3,1.5-3.3,3.3
			c0,0.9,0.4,1.7,1,2.3l3.2,3.2c0,0,0.1,0.1,0.1,0.1l0,0c0.6,0.6,1.4,0.9,2.3,0.9c1.8,0,3.3-1.5,3.3-3.3
			C600.5,224.7,600,223.8,599.4,223.2z"/>
		<path id="Stroke-373" class="st1" d="M598.5,209.5c-0.9-0.4-1.9-0.4-2.7,0l-4.2,1.6c-0.8,0.3-1.5,0.9-1.8,1.7
			c-0.7,1.7,0,3.6,1.7,4.4c0.8,0.4,1.8,0.4,2.5,0.1h0l4.3-1.7c0,0,0.1,0,0.1,0l0,0l0,0c0.8-0.3,1.4-0.9,1.8-1.7
			C600.9,212.2,600.1,210.3,598.5,209.5z"/>
		<path id="Stroke-375" class="st1" d="M610.1,281.4c0-0.3,0-0.6-0.1-0.9h0l0,0c0,0,0-0.1,0-0.1l-1.7-5h0c-0.4-1.4-1.7-2.4-3.2-2.4
			c-1.8,0-3.3,1.5-3.3,3.3c0,0.2,0,0.3,0,0.5h0c0,0.2,0.1,0.4,0.1,0.6c0,1.1-0.6,2.1-1.4,2.7c-1,0.6-1.6,1.6-1.6,2.8
			c0,1.8,1.5,3.3,3.3,3.3c0.3,0,0.6,0,0.8-0.1l0,0l0,0c0.1,0,0.2,0,0.2-0.1l4.5-1.4l0,0C609.1,284.2,610.1,282.9,610.1,281.4z"/>
		<path id="Stroke-377" class="st1" d="M489.9,195.5L489.9,195.5c-0.3,0.1-0.7,0.1-1,0.1c-0.4,0-0.9-0.1-1.3-0.2
			c-0.5-0.1-0.9-0.3-1.3-0.6c-1.4-0.9-2.4-2.4-2.4-4.2c0-1.3,0.5-2.4,1.3-3.3h0c0.9-1.2,1.5-2.7,1.5-4.3c0-3.9-3.2-7.1-7.1-7.2v0
			h-0.8h-18.1c-1.8,0-3.2,1.4-3.2,3.2c0,1.8,1.4,3.2,3.2,3.2h5.7c1.5,0,2.8,1.2,2.8,2.8c0,1.5-1.2,2.8-2.8,2.8h-8.1
			c-3,0-5.3,2.4-5.3,5.3c0,3,2.4,5.3,5.3,5.3c0.7,0,1.4-0.1,2-0.4v0c2-0.8,4.2-1.4,6.5-1.5c0.4,0,0.8,0,1.2,0
			c6.2,0,11.7,2.8,15.4,7.2c0.5,0.8,1.5,1.4,2.5,1.4c1.7,0,3-1.4,3-3c0-0.7-0.2-1.3-0.6-1.8h0c-0.4-0.5-0.6-1.1-0.6-1.8
			C487.7,197,488.6,195.8,489.9,195.5z"/>
		<path id="Stroke-379" class="st1" d="M516.5,180.9c-0.9,0-1.7,0.2-2.4,0.5v0c-0.7,0.3-1.5,0.5-2.3,0.5c-1.7,0-3.3-0.8-4.4-2h0
			c-4.3-4.5-10.3-7.2-17-7.2c-4.3,0-8.3,1.1-11.7,3.1h0.8v0c3.9,0,7.1,3.2,7.1,7.2c0,1.6-0.6,3.1-1.5,4.4h0c-0.8,0.9-1.3,2-1.3,3.3
			c0,1.8,1,3.4,2.4,4.2c0.4,0.2,0.8,0.4,1.3,0.6c0.4,0.1,0.8,0.2,1.3,0.2c0.4,0,0.7,0,1-0.1c0.8-0.2,1.5-0.5,2.1-1
			c3.8-2.6,8.4-4.1,13.4-4.1c2.9,0,5.7,0.5,8.3,1.5c0.1,0.1,0.3,0.1,0.4,0.2c0.7,0.3,1.5,0.5,2.4,0.5c3.2,0,5.8-2.6,5.8-5.8
			C522.4,183.5,519.8,180.9,516.5,180.9z"/>
		<path id="Stroke-381" class="st1" d="M350.1,157.7c0,2.2-1.8,4.1-4.1,4.1c-2.2,0-4.1-1.8-4.1-4.1c0-2.2,1.8-4.1,4.1-4.1
			C348.3,153.7,350.1,155.5,350.1,157.7z"/>
		<path id="Stroke-383" class="st1" d="M442.7,164.6h-3.3v0c-3.6,0-6.7-1.9-8.4-4.7h0c-1.7-2.7-4.7-4.4-8.1-4.4
			c-0.8,0-1.5,0.1-2.2,0.3v0c-0.2,0.1-0.4,0.1-0.6,0.2l0,0c-0.8,0.2-1.7,0.4-2.6,0.4c-3.5,0-6.6-1.9-8.2-4.7h0
			c-1.1-1.8-3-2.9-5.2-2.9h-8.7c-0.4,0-0.7,0-1.1,0c-7-0.3-13.1-4-16.7-9.5c-0.1-0.1-0.1-0.2-0.2-0.3c-0.2-0.4-0.4-0.7-0.6-1
			c-1.5-2.1-3.9-3.4-6.6-3.4c-2.4,0-4.5,1-6,2.6h0c-2,2.5-5.1,4-8.5,4c-1.9,0-3.6-0.5-5.2-1.3v0c-0.6-0.3-1.3-0.5-2.1-0.5
			c-0.8,0-1.6,0.2-2.3,0.6l0,0l-11.7,4.5c-1.6,0.2-2.9,1.6-2.9,3.2c0,1.8,1.5,3.3,3.3,3.3c0.2,0,0.5,0,0.7-0.1l12.8-1.4
			c0.7,0,1.4-0.2,2.1-0.5v0c0,0,0.1,0,0.1,0c0.1-0.1,0.2-0.1,0.3-0.2c2.7-1.4,4.3-2.5,7-2.5c2.8,0,5.4,1.1,7.4,2.8V149
			c1.4,1,3,1.6,4.9,1.6v0c0.2,0,0.3,0,0.5,0c2.7,0,5.2,1.1,7,2.9h0c1.8,1.7,4.2,2.7,6.8,2.7h7.6c3.2,0,5.9,2.5,6,5.7h0
			c0.2,3.1,2.8,5.6,6,5.6c0.6,0,1.2-0.1,1.8-0.3v0c0.2-0.1,0.4-0.1,0.6-0.1c0.8,0,1.5,0.7,1.5,1.5c0,0.1,0,0.2,0,0.3
			c-0.2,0.7-0.7,1.2-1.4,1.2v0c-2.3,0.1-4,2-4,4.3c0,2.4,1.9,4.3,4.3,4.3c0.9,0,1.7-0.3,2.4-0.7h0c3.2-2.2,7.1-3.5,11.2-3.5
			c0.6,0,1.1,0,1.6,0.1v0c0.2,0,0.5,0,0.7,0h0h19.8c2.8,0,5-2.3,5-5C447.7,166.9,445.5,164.6,442.7,164.6z"/>
		<path id="Stroke-385" class="st1" d="M462.5,156.9c0,1.7-1.4,3.1-3.1,3.1s-3.1-1.4-3.1-3.1c0-1.7,1.4-3.1,3.1-3.1
			S462.5,155.2,462.5,156.9z"/>
		<path id="Stroke-387" class="st1" d="M491.7,152.7c0,1.1-0.9,1.9-1.9,1.9c-1.1,0-1.9-0.9-1.9-1.9c0-1.1,0.9-1.9,1.9-1.9
			C490.8,150.8,491.7,151.6,491.7,152.7z"/>
		<path id="Stroke-389" class="st1" d="M467.5,142.3c0,1.7-1.3,3-3,3c-1.7,0-3-1.3-3-3c0-1.7,1.3-3,3-3
			C466.1,139.3,467.5,140.7,467.5,142.3z"/>
		<path id="Stroke-391" class="st1" d="M445.8,139.3c0,1.7-1.3,3-3,3c-1.7,0-3-1.3-3-3c0-1.7,1.3-3,3-3
			C444.5,136.3,445.8,137.7,445.8,139.3z"/>
		<path id="Stroke-393" class="st1" d="M432.3,133.3c0,1.7-1.3,3-3,3c-1.7,0-3-1.3-3-3c0-1.7,1.3-3,3-3
			C430.9,130.3,432.3,131.7,432.3,133.3z"/>
		<path id="Stroke-395" class="st1" d="M483.6,148.1L483.6,148.1l-4.3-4.8v0c-0.5-0.6-1.4-1-2.3-1c-1.7,0-3,1.3-3,3
			c0,0.8,0.3,1.5,0.8,2l0,0l4.3,4.8v0c0.5,0.6,1.3,0.9,2.2,0.9c1.7,0,3-1.3,3-3C484.3,149.3,484,148.6,483.6,148.1z"/>
		<path id="Stroke-397" class="st1" d="M454.6,147.9c0,0,0-0.1,0.1-0.1l2.9-4.2c0.4-0.5,0.6-1.1,0.6-1.8c0-1.7-1.3-3-3-3s-3,1.3-3,3
			c0,0.2,0,0.5,0.1,0.7h0c0,0.2,0.1,0.4,0.1,0.5c0,0.7-0.4,1.3-0.9,1.7c-0.5,0.4-0.9,1.1-0.9,1.8c0,1.2,1,2.2,2.2,2.2
			C453.5,148.8,454.1,148.5,454.6,147.9L454.6,147.9L454.6,147.9z"/>
		<path id="Stroke-399" class="st1" d="M437.4,126.1L437.4,126.1l-0.7-5c0,0,0,0,0,0l0-0.2h0c-0.3-1.4-1.5-2.5-2.9-2.5
			c-1.7,0-3,1.3-3,3c0,0.6,0.2,1.2,0.5,1.6h0c0.3,0.5,0.5,1,0.5,1.6c0,0.3-0.1,0.6-0.1,0.9h0c-0.1,0.3-0.1,0.5-0.1,0.8
			c0,1.7,1.3,3,3,3c1.7,0,3-1.3,3-3C437.5,126.3,437.5,126.2,437.4,126.1z"/>
		<path id="Stroke-401" class="st1" d="M429.1,116.3L429.1,116.3L429.1,116.3c0-0.1,0-0.1,0-0.1l-3-7.3c0,0,0,0,0,0l0,0l0,0
			c-0.5-1.1-1.5-1.8-2.7-1.8c-1.7,0-3,1.3-3,3c0,1.3,0.8,2.3,1.9,2.8c0.9,0.5,1.4,1.5,1.4,2.5c0,0.4-0.1,0.7-0.2,1.1c0,0,0,0,0,0
			c0,0,0,0,0,0l0,0c-0.1,0.3-0.1,0.6-0.1,0.9c0,1.7,1.3,3,3,3c1.7,0,3-1.3,3-3C429.3,117,429.2,116.6,429.1,116.3z"/>
		<path id="Stroke-403" class="st1" d="M409,122L409,122c-1.1-0.3-1.9-1.3-1.9-2.4c0-0.3,0.1-0.6,0.2-0.9h0c0.2-0.4,0.3-0.8,0.3-1.3
			c0-1.9-1.6-3.5-3.5-3.5c-1.8,0-3.3,1.4-3.5,3.2l-0.4,5.8l0,0c0,0,0,0.1,0,0.1c0,1.4,0.8,2.5,1.9,3.1l0,0l3.9,2.1
			c0.3,0.2,0.6,0.4,0.9,0.5l0,0l0,0c0.4,0.1,0.8,0.2,1.2,0.2c1.9,0,3.5-1.6,3.5-3.5C411.5,123.8,410.4,122.4,409,122z"/>
		<path id="Stroke-405" class="st0" d="M399.1,98.1c0,2.4-1.9,4.3-4.3,4.3c-2.4,0-4.3-1.9-4.3-4.3c0-2.4,1.9-4.3,4.3-4.3
			C397.2,93.8,399.1,95.7,399.1,98.1z"/>
		<path id="Stroke-407" class="st0" d="M418.8,105.1l-2.4-11.3l-0.2,0.1c-0.6-2.1-2.5-3.6-4.7-3.6c-2.7,0-4.9,2.2-4.9,4.9
			c0,0.9,0.2,1.7,0.6,2.4l5.1,9.5h0c0.3,1.6,1.6,2.7,3.3,2.7c1.8,0,3.3-1.5,3.3-3.3C419.1,105.9,419,105.5,418.8,105.1z"/>
		<path id="Stroke-409" class="st1" d="M522.4,334.9H506v0c-0.1,0-0.1,0-0.2,0c-2.6,0-4.9-1.6-5.9-3.9c-2-4.7-6.7-8-12.1-8
			c-0.1,0-0.2,0-0.3,0c-0.6,0-1.7,0-2,0c-10.7,0-19.4-8.7-19.4-19.4c0-4.7,1.6-8.9,4.4-12.3h0c1.6-2.2,2.6-4.9,2.6-7.9v-4.9
			c0-5.4,4.4-9.8,9.8-9.8c0.1,0,0.3,0,0.4,0h3.3c0.2,0,0.4,0,0.6,0c1.3-0.1,2.6-0.7,3.6-1.7c2.3-2.3,2.3-6,0-8.2
			c-2.3-2.3-6-2.3-8.2,0c-0.4,0.4-0.8,0.9-1.1,1.5c-0.8,1.4-1.9,2.7-3,3.9h-0.2v0.2c-3.6,3.5-8.4,5.7-13.8,5.8l-4.4,0
			c-4.9,0-9.2,2.7-11.5,6.7h0c-1.6,2.8-4.6,4.7-8.1,4.7c-0.2,0-0.4,0-0.6,0c-0.2,0-0.3,0-0.5,0c-4.1,0-7.5,3.3-7.5,7.5
			c0,0.2,0,0.3,0,0.5c0,3.7-3,6.6-6.6,6.6c-0.2,0-0.3,0-0.5,0c-0.2,0-0.4,0-0.7,0c-2,0-3.7,0.8-4.9,2.2c-0.7,0.8-1.7,1.3-2.8,1.3
			c-1.1,0-2.1-0.5-2.8-1.3h0c-1.8-2.1-4.5-3.4-7.5-3.4c-0.6,0-1.1,0.1-1.7,0.2l0.6,0.2l0.2,0.1l0.7,0.2c0.1,0,0.2,0.1,0.3,0.2
			c0.1,0.1,0.2,0.1,0.4,0.2l0,0c0.1,0.1,0.2,0.2,0.3,0.2c0,0,0,0,0.1,0.1c0.1,0.1,0.2,0.2,0.2,0.3c0,0,0.1,0.1,0.1,0.1
			c0.1,0.1,0.1,0.2,0.2,0.3c0,0.1,0.1,0.1,0.1,0.2c0,0.1,0.1,0.2,0.1,0.2c0,0.1,0.1,0.1,0.1,0.2c0,0.1,0.1,0.2,0.1,0.2
			c0,0.1,0,0.2,0.1,0.3c0,0.1,0,0.1,0,0.2c0,0.2,0,0.3,0,0.5c0,1.7-1.2,3.1-2.9,3.4c-1.4,0.6-2.7,1.5-3.6,2.7
			c-0.3,0.4-0.6,0.9-0.9,1.3c-0.5,1-0.9,2.1-1,3.3c0,0,0,0,0,0.1c0,0.1,0,0.2,0,0.2c0,0.3,0,0.5,0,0.8c0,0.1,0,0.1,0,0.2
			c0,0.3,0,0.5,0,0.8c0.2,2.3,1.1,4.4,2.6,6c1.6,1.8,2.6,4.2,2.6,6.8c0,1.7-0.4,3.2-1.1,4.6c-1.6,2.7-2.6,5.9-2.6,9.2
			c0,4.5,1.6,8.5,4.3,11.7h0c1.8,2.3,2.9,5.2,2.9,8.4c0,4.6-2.3,8.6-5.7,11.1c-4.3,2-7.3,6.3-7.5,11.4c0,0.2,0,0.4,0,0.6
			c0,7.3,5.9,13.2,13.2,13.2c1.8,0,3.5-0.4,5-1c0.4-0.1,0.8-0.1,1.2-0.1c1.8,0,3.4,1.1,4.1,2.6c0.4,0.7,0.8,1.3,1.3,1.9
			c1.4,1.7,3.1,3,5.1,3.9c1.2,0.5,2.4,0.8,3.7,1v0c2.1,0.3,3.8,1.6,4.7,3.4c2,4.2,6,7.1,10.8,7.5v0c4.3,0.5,8,3,10.1,6.6
			c2.3,4,6.5,6.7,11.4,6.7c1,0,1.9-0.1,2.8-0.3c0.2,0,0.3,0,0.5,0c1.4,0,2.5,0.7,3.2,1.7c1.5,2.3,3.8,4.2,6.4,5.1
			c0.6,0.2,1.2,0.4,1.8,0.5c0.9,0.2,1.8,0.3,2.8,0.3h9.2c4.7,0,8.6,3.4,9.4,7.9c0,0.2,0.1,0.5,0.1,0.8c0,0.3,0,0.6,0,0.9
			c0,2.3-0.8,4.4-2.1,6l0.1,0c0,0,0,0,0,0c5.8-2.8,9.7-8.7,9.7-15.6l0,0V411c0-3.5,1.8-6.7,4.5-8.5c0.5-0.3,0.8-0.7,1.1-1.2
			c0.4-0.6,0.6-1.3,0.6-2c0-2.1-1.7-3.8-3.7-3.8v0h-5.1c-0.3,0-0.7-0.1-1-0.4c-0.5-0.5-0.5-1.4,0-1.9c0,0,0,0,0,0h0l3.3-3.5
			c0.3-0.3,0.7-0.5,1.2-0.5h11.7c1.8,0,3.5-0.8,4.6-2c1.1-1.1,1.7-2.6,1.7-4.3v-36.7v-4.8C528.7,337.8,525.9,334.9,522.4,334.9z"/>
		<path id="Stroke-411" class="st1" d="M425,401.7c-2-0.9-3.8-2.2-5.1-3.9c-0.5-0.6-0.9-1.2-1.3-1.9c-0.7-1.5-2.3-2.6-4.1-2.6
			c-0.4,0-0.8,0-1.2,0.1c-1.6,0.6-3.3,1-5,1c-7.3,0-13.2-5.9-13.2-13.2c0-0.2,0-0.4,0-0.6h0c-0.2,3.5-2.9,6.3-6.3,6.7v0
			c-5.7,0.5-10.3,4.8-11.3,10.3c-0.1,0.7-0.2,1.5-0.2,2.2c0,0.7,0.1,1.4,0.2,2.1h0c0.1,0.5,0.1,1.1,0.1,1.7c0,3.6-2,6.8-4.9,8.5
			c0,0,0,0,0,0c0,0,0,0,0,0v0c-3.6,2.2-6,6.2-6,10.8c0,1.9,0.4,3.6,1.1,5.2c0.2,0.5,0.4,1.2,0.4,1.8c0,0.5-0.1,1-0.2,1.4
			c-0.2,0.4-0.2,0.9-0.2,1.4c0,2.5,2,4.4,4.4,4.4c3.2,0,4.8,1.4,5.3,3.3c0.1,0.4,0.2,0.8,0.2,1.3c0,1.2-0.5,2.3-1.2,3.1h0
			c-2,2.1-2.1,5.3-0.5,7.6c0.2,0.3,0.4,0.5,0.6,0.7c0.3,0.3,0.5,0.5,0.8,0.7h0l15.7,11.5l0,0c1.7,1.3,4.2,1.1,5.8-0.4
			c0.4-0.4,0.6-0.8,0.8-1.2l0,0c0,0,16-30.3,18.7-34.9c0.6-1.1,2.8-3.6,4.9-4.5c4.8-1.8,8.2-6.4,8.2-11.8
			C431.4,408,428.8,403.9,425,401.7z"/>
		<path id="Stroke-413" class="st1" d="M515.5,551.6v-15.8h0c0,0,0,0,0,0c0-2.1-1.7-3.8-3.7-3.8h0h0h-5.5c-4.2,0-7.7-3.2-8.1-7.3
			c-0.1-1.1-1-2.1-2.2-2.1c-0.7,0-1.4,0.4-1.8,0.9v0c-1.5,1.9-3.8,3-6.3,3c-2.8,0-5.3-1.4-6.8-3.6h0l-15.5-21.8
			c-0.4-0.5-0.7-1-1-1.5l-0.1-0.1l0,0c-2.3-3.9-2.3-8.9,0-12.8l0,0l8.8-18c0.1-0.2,0.2-0.3,0.2-0.5l0-0.1l0,0c0.6-1,1.3-2,2.1-2.9
			c0.3-0.3,0.7-0.7,1.1-1c0.2-0.2,0.4-0.3,0.6-0.4c0.2-0.1,0.3-0.3,0.5-0.4c0.3-0.2,0.5-0.3,0.8-0.4c0.1-0.1,0.3-0.2,0.4-0.2
			c0.3-0.1,0.6-0.2,0.9-0.4c0.1,0,0.3-0.1,0.4-0.2h0c1.2,0.3,2.5,0.5,3.8,0.5c7.8,0,14.2-5.5,15.7-12.8c-0.1,0-0.1,0.1-0.2,0.1
			c0.2-0.2,0.3-0.4,0.5-0.7c0.2-0.3,0.4-0.6,0.6-0.9c0.1-0.2,0.2-0.3,0.2-0.5c0.1-0.3,0.3-0.6,0.4-0.9c0.1-0.3,0.1-0.5,0.2-0.8
			c0.1-0.2,0.1-0.5,0.2-0.7c0.1-0.5,0.1-1.1,0.1-1.6c0-0.3,0-0.6,0-0.9c0-0.3-0.1-0.5-0.1-0.8c-0.8-4.5-4.7-7.9-9.4-7.9h-9.2
			c-0.9,0-1.9-0.1-2.8-0.3c-0.3-0.1-0.6-0.1-0.8-0.2c-0.1,0-0.1,0-0.2-0.1c-0.3-0.1-0.5-0.2-0.8-0.3c-2.7-1-4.9-2.8-6.4-5.1
			c-0.7-1-1.9-1.7-3.2-1.7c-0.2,0-0.4,0-0.5,0c-0.9,0.2-1.8,0.3-2.8,0.3c-4.9,0-9.2-2.7-11.4-6.6c-2.1-3.6-5.8-6.1-10.1-6.6v0
			c-4.8-0.4-8.9-3.4-10.8-7.5c-0.9-1.8-2.6-3.1-4.7-3.4v0c-1.3-0.1-2.5-0.5-3.7-1c3.8,2.2,6.3,6.3,6.3,10.9c0,5.4-3.4,10-8.2,11.8
			c-2,0.9-4.3,3.5-4.9,4.5c-2.6,4.7-18.7,34.9-18.7,34.9l0,0c-0.2,0.4-0.5,0.8-0.8,1.2c-1.6,1.6-4,1.7-5.8,0.4l0,0l-15.7-11.5h0
			c-0.3-0.2-0.6-0.4-0.8-0.7c-0.2-0.2-0.4-0.5-0.6-0.7c-1.7-2.3-1.5-5.5,0.5-7.6h0c0.7-0.8,1.2-1.9,1.2-3.1c0-0.5-0.1-0.9-0.2-1.3
			L363.1,457c-0.2,0.2-0.3,0.4-0.5,0.6c-0.5,0.7-0.9,1.6-0.9,2.6c0,0.3,0,0.7,0.1,1l0,0l2.3,13.6c0,0,0,0,0,0l0,0
			c0.9,5.9,5.6,10.6,11.4,11.5v0c5.8,1,10.5,5.5,11.5,11.3c0.1,5.8,3.7,10.7,8.7,12.7v0c1.8,0.7,3.3,2.2,4,4l9.5,25.2
			c-0.5,1.4-0.8,2.9-0.8,4.5c0,4.6,2.2,8.6,5.6,11.2c2.9,2.5,4.7,6.3,4.7,10.4c0,0.3,0,0.5,0,0.8h0.1c0,0.4,0,0.7,0,1.1
			c0,6.8,4.8,12.4,11.2,13.6v0c4.4,0.9,8,3.8,9.8,7.8h0c2.1,4.9,7,8.3,12.7,8.3c0.6,0,1.2,0,1.7-0.1v0c0.4-0.1,0.7-0.1,1.1-0.1
			c1.6,0,3.1,0.6,4.3,1.5h0l22.4,17.1c0.2,0.2,0.4,0.4,0.6,0.5c1,0.8,2.3,1.3,3.5,1.4c0.2,0,0.5,0,0.7,0c1.5,0,3.1-0.5,4.4-1.6
			c0.2-0.1,0.3-0.3,0.5-0.4c0.2-0.2,0.4-0.5,0.6-0.7l0,0l7.1-8.9c0.3-0.5,0.6-0.9,1-1.3c1.3-1.3,3-2,4.9-2h0.4
			c0.8,0,1.6-0.5,1.8-1.3c0.1-0.2,0.1-0.5,0.1-0.7c0,0,0,0,0,0h0v-10.2v0c0-5.6,3.1-10.5,7.6-13v-6.3L515.5,551.6L515.5,551.6
			c0-0.1,0-0.3,0-0.4v0C515.5,551.4,515.5,551.5,515.5,551.6z"/>
		<path id="Stroke-415" class="st1" d="M639.6,619.2c-1.1-9.6-9-17-18.6-17c-0.3,0-0.6,0-1,0c-2.2-1-4.2-2.5-5.8-4.2
			c-0.2-0.3-0.5-0.5-0.7-0.8c0,0,0,0,0,0c-0.3-0.3-0.6-0.7-0.8-1.1c0,0,0,0,0-0.1c-0.3-0.4-0.5-0.7-0.7-1.1c0,0-0.1-0.1-0.1-0.1
			c-0.2-0.3-0.4-0.7-0.6-1.1c0-0.1-0.1-0.1-0.1-0.2c-0.2-0.3-0.4-0.7-0.5-1c0-0.1-0.1-0.2-0.1-0.3c-0.1-0.3-0.3-0.7-0.4-1
			c-0.1-0.1-0.1-0.3-0.1-0.4c-0.1-0.3-0.2-0.6-0.3-0.9c-0.1-0.2-0.1-0.4-0.1-0.6c-0.1-0.3-0.2-0.6-0.2-0.8c0-0.2-0.1-0.5-0.1-0.7
			c0-0.2-0.1-0.5-0.1-0.8c0-0.3-0.1-0.6-0.1-0.9c0-0.2,0-0.4-0.1-0.6c0-0.5-0.1-1-0.1-1.5v-10.7c0-2-1.6-3.8-3.7-3.8v0h-5.6
			c-4.8,0-8.9-2.6-11.3-6.5h0c-0.7-1.1-1.8-1.8-3.1-1.8c-0.2,0-0.5,0-0.7,0.1c-0.8,0.2-1.7,0.3-2.6,0.3c-3.9,0-7.3-2-9.2-5.1h0
			c-0.6-1.1-1.9-1.9-3.3-1.9h-7.9c-4.2,0-7.6-3.4-7.6-7.6v-10.1h0c0-2.6-2.1-4.6-4.7-4.6c-1.6,0-3,0.8-3.9,2.1
			c-2.7,5-7.8,8.3-13.7,8.3h-7.3v0c-1,0-1.9,0.2-2.7,0.5v0c-0.6,0.2-1.2,0.5-1.8,0.9c0,0-0.1,0-0.1,0.1c-0.2,0.1-0.3,0.2-0.5,0.3
			c0,0-0.1,0-0.1,0.1c-0.5,0.4-1,0.8-1.4,1.4c0,0,0,0,0,0c-0.1,0.1-0.2,0.3-0.4,0.5c0,0-0.1,0.1-0.1,0.2c-0.1,0.1-0.2,0.3-0.3,0.5
			c0,0.1-0.1,0.1-0.1,0.2c-0.1,0.2-0.2,0.3-0.3,0.5c0,0,0,0,0,0c-0.2,0.4-0.3,0.7-0.5,1.1c0,0.1,0,0.1-0.1,0.2
			c-0.1,0.2-0.1,0.3-0.1,0.5c0,0.1,0,0.2-0.1,0.3c0,0.2-0.1,0.3-0.1,0.5c0,0.1,0,0.2,0,0.3c0,0.2,0,0.3-0.1,0.5c0,0.1,0,0.2,0,0.3
			c0,0,0,0.1,0,0.1v0.4v0v19.5h0v6.3c-4.5,2.5-7.6,7.4-7.6,13v0v10.2h0c0,0,0,0,0,0c0,0.3-0.1,0.5-0.1,0.7c-0.3,0.7-1,1.3-1.8,1.3
			h-0.4c-1.9,0-3.7,0.8-4.9,2l0,0l-1,1.2c-0.7,1.1-1.1,2.3-1.1,3.7v8v4v0c0,6.1,3,11.4,7.5,14.6c2,1.5,3.3,4,3.3,6.7
			c0,1.3-0.3,2.6-0.8,3.7c-1.1,2.1-1.7,4.4-1.7,7v0c0,8,6.2,14.4,13.9,14.4c0.2,0,0.3,0,0.5,0c1.2,0,2.5-0.3,3.6-0.6
			c0.6-0.2,1.2-0.4,1.8-0.7c1.2-0.6,2.3-1.4,3.3-2.3c2.3-1.7,5-2.8,8.1-2.9c0.1,0,0.2,0,0.4,0c4,0,7.6,1.7,10.2,4.4
			c0.1,0.1,0.2,0.3,0.4,0.4c0,0,0.1,0.1,0.1,0.1v0c2.5,2.7,6,4.3,9.9,4.3h28.4c-0.3-0.9-0.4-1.9-0.4-3c0-2.1,0.6-4,1.6-5.6
			c0.6-0.9,1.2-1.6,2-2.3v0c1.1-0.8,1.7-2.1,1.7-3.5v-1.6v-10.4c0-1.5,0.5-3,1.2-4.2c1.3-2,3.5-3.4,6.1-3.4h7.2
			c1.3,0,2.4,0.3,3.5,0.9v0v0c2.8,2,6.2,3.2,9.9,3.4c0.2,0,0.5,0,0.7,0c0,0,0,0,0.1,0c0.4,0,0.8,0,1.2,0c0.1,0,0.3,0,0.4,0
			c0.3,0,0.6-0.1,0.9-0.1c0.2,0,0.4-0.1,0.6-0.1c0.3,0,0.5-0.1,0.8-0.2c0.2,0,0.4-0.1,0.6-0.1c0.2,0,0.4-0.1,0.6-0.2
			c0.3-0.1,0.7-0.2,1-0.3c0.1,0,0.3-0.1,0.4-0.1c0.2-0.1,0.5-0.2,0.7-0.3c0.1,0,0.2-0.1,0.3-0.1c0.8-0.3,1.5-0.7,2.2-1.2
			c0,0,0.1,0,0.1,0c0.2-0.1,0.4-0.3,0.6-0.4c1-0.7,2-1.5,2.9-2.4c3.4-3.5,5.5-8.4,5.5-13.7C639.8,620.7,639.7,620,639.6,619.2z"/>
		<circle id="Oval-3-Copy-14" class="st2" cx="137.3" cy="142.3" r="19.5"/>
		<circle id="Oval-3-Copy-14_1_" class="st3" cx="265.2" cy="234.5" r="19.5"/>
		<circle id="Oval-3-Copy-14_14_" class="st4" cx="265.2" cy="200.6" r="19.5"/>
		<g id="Group-34" transform="translate(271.009403, 198.610279)">
			<rect id="Rectangle-13-Copy-4" x="-7" y="-7" width="238.3" height="43.9"/>
			<path id="Guatemala" class="st5" d="M28.5,8.3c-1.8-1.7-3.9-2.6-6.1-2.6s-4.1,0.7-5.5,2.1s-2.2,3.3-2.2,5.7s0.7,4.3,2.1,5.6
				c1.4,1.4,3.1,2.1,5.1,2.1c2.4,0,4.4-0.9,5.7-2.7v-4.9H33v12.8h-5.3v-1.9c-1.9,1.3-4.1,1.9-6.6,1.9c-3.3,0-6.1-1.2-8.5-3.6
				S9,17.2,9,13.4s1.3-6.9,3.8-9.4s5.6-3.7,9.3-3.7s6.7,1.2,9.4,3.6L28.5,8.3z M49.6,17.1V6.6H55V26h-5.4v-2.6
				c-1.3,1.9-3.1,2.8-5.2,2.8c-2.1,0-3.9-0.7-5.3-2c-1.4-1.3-2.2-3.3-2.2-5.9V6.6h5.4v10.5c0,3,1.1,4.5,3.3,4.5c1.1,0,2-0.4,2.8-1.2
				C49.2,19.7,49.6,18.6,49.6,17.1z M62,23.5c-1.8-1.8-2.8-4.3-2.8-7.3S60.1,10.8,62,9s4.1-2.7,6.6-2.7c1.9,0,3.6,0.6,5.1,1.9V6.6
				h5.4V26h-5.4v-1.6c-1.5,1.2-3.3,1.9-5.3,1.9C66,26.3,63.8,25.4,62,23.5z M66,20.2c0.9,1,2,1.5,3.3,1.5c1.2,0,2.3-0.5,3.2-1.5
				c0.9-1,1.3-2.3,1.3-3.9c0-1.6-0.4-2.9-1.3-3.9c-0.9-1.1-1.9-1.6-3.2-1.6s-2.4,0.5-3.3,1.6s-1.4,2.4-1.4,3.9
				C64.6,17.9,65.1,19.2,66,20.2z M89.9,0.8v5.8h4.7v4.2h-4.7v8.4c0,0.7,0.2,1.3,0.6,1.7s0.8,0.6,1.4,0.6c1,0,1.9-0.5,2.6-1.4l2,3.8
				c-1.7,1.5-3.4,2.3-5.3,2.3c-1.9,0-3.4-0.6-4.7-1.8s-1.9-2.9-1.9-5V0.8H89.9z M108.3,21.9c1,0,2-0.3,3-0.8c1-0.5,1.7-1.2,2.3-2.1
				l3.1,3.3c-2.5,2.6-5.3,3.9-8.4,3.9s-5.6-0.9-7.4-2.8c-1.8-1.9-2.8-4.3-2.8-7.3s1-5.3,3-7.1c2-1.8,4.4-2.7,7-2.7
				c2.6,0,4.8,0.7,6.6,2.2c1.8,1.5,2.7,3.4,2.9,5.8V15l-12.9,5.3C105.6,21.3,106.8,21.9,108.3,21.9z M108.5,11
				c-1.3,0-2.5,0.4-3.5,1.3c-1,0.9-1.5,2.1-1.5,3.6c0,0.3,0,0.5,0,0.6l8.4-3.4C111.6,11.7,110.5,11,108.5,11z M139.4,15.6V26h-5.4
				V15.4c0-1.5-0.2-2.7-0.7-3.4S132,11,130.9,11s-2,0.4-2.8,1.2c-0.8,0.8-1.2,1.9-1.2,3.4V26h-5.4V6.6h5.4v2.2
				c1.5-1.7,3.2-2.5,5.1-2.5c1.2,0,2.3,0.4,3.3,1.1s1.7,1.6,2.2,2.6c0.7-1.2,1.7-2.1,3-2.7c1.3-0.6,2.5-1,3.8-1c2.3,0,4.1,0.7,5.5,2
				c1.4,1.4,2.1,3.3,2.1,5.9V26h-5.4V15.4c0-3-1.1-4.5-3.3-4.5c-1.1,0-2,0.4-2.8,1.2C139.8,12.9,139.4,14,139.4,15.6z M158.8,23.5
				c-1.8-1.8-2.8-4.3-2.8-7.3s0.9-5.4,2.8-7.2s4.1-2.7,6.6-2.7c1.9,0,3.6,0.6,5.1,1.9V6.6h5.4V26h-5.4v-1.6
				c-1.5,1.2-3.3,1.9-5.3,1.9C162.8,26.3,160.6,25.4,158.8,23.5z M162.8,20.2c0.9,1,2,1.5,3.3,1.5c1.2,0,2.3-0.5,3.2-1.5
				c0.9-1,1.3-2.3,1.3-3.9c0-1.6-0.4-2.9-1.3-3.9c-0.9-1.1-1.9-1.6-3.2-1.6c-1.3,0-2.4,0.5-3.3,1.6c-0.9,1-1.4,2.4-1.4,3.9
				C161.4,17.9,161.9,19.2,162.8,20.2z M186.7,0.8v18.4c0,0.7,0.2,1.3,0.6,1.7c0.4,0.4,0.8,0.6,1.4,0.6c1,0,1.9-0.5,2.6-1.4l2,3.8
				c-1.7,1.5-3.4,2.3-5.3,2.3c-1.9,0-3.4-0.6-4.7-1.8c-1.3-1.2-1.9-2.9-1.9-5V0.8H186.7z M197.9,23.5c-1.8-1.8-2.8-4.3-2.8-7.3
				s0.9-5.4,2.8-7.2s4.1-2.7,6.6-2.7c1.9,0,3.6,0.6,5.1,1.9V6.6h5.4V26h-5.4v-1.6c-1.5,1.2-3.3,1.9-5.3,1.9
				C201.9,26.3,199.7,25.4,197.9,23.5z M202,20.2c0.9,1,2,1.5,3.3,1.5c1.2,0,2.3-0.5,3.2-1.5c0.9-1,1.3-2.3,1.3-3.9
				c0-1.6-0.4-2.9-1.3-3.9c-0.9-1.1-1.9-1.6-3.2-1.6s-2.4,0.5-3.3,1.6s-1.4,2.4-1.4,3.9C200.6,17.9,201,19.2,202,20.2z"/>
		</g>
		<circle id="Oval-3-Copy-14_2_" class="st4" cx="543.7" cy="189" r="19.5"/>
		<circle id="Oval-3-Copy-14_13_" class="st4" cx="715.8" cy="475.5" r="19.5"/>
		<g id="Group-30-Copy" transform="translate(545.195128, 149.681494)">
			<rect id="Rectangle-13-Copy-7_1_" x="-4" y="-2" width="232.7" height="43.9"/>
		</g>
		<path id="Puerto-Rico" class="st5" d="M563.3,156.5c3.9,0,6.7,0.8,8.4,2.2c1.8,1.5,2.6,3.8,2.6,6.9s-0.9,5.4-2.7,6.8
			s-4.6,2.2-8.3,2.2h-3.3v7h-5.6v-25.2H563.3z M563.8,169.8c1.9,0,3.1-0.4,3.8-1.1c0.7-0.8,1-1.9,1-3.3c0-1.5-0.4-2.5-1.3-3.1
			c-0.9-0.6-2.2-0.9-4.1-0.9h-3.2v8.5H563.8z M590.8,172.8v-10.4h5.4v19.4h-5.4v-2.6c-1.3,1.9-3.1,2.8-5.2,2.8s-3.9-0.7-5.3-2
			c-1.4-1.3-2.2-3.3-2.2-5.9v-11.7h5.4v10.5c0,3,1.1,4.5,3.3,4.5c1.1,0,2-0.4,2.8-1.2C590.4,175.4,590.8,174.2,590.8,172.8z
			 M610.5,177.5c1,0,2-0.3,3-0.8c1-0.5,1.7-1.2,2.3-2.1l3.1,3.3c-2.5,2.6-5.3,3.9-8.4,3.9s-5.6-0.9-7.4-2.8s-2.8-4.3-2.8-7.3
			s1-5.3,3-7.1s4.4-2.7,7-2.7s4.8,0.7,6.6,2.2s2.7,3.4,2.9,5.8v0.7L607,176C607.8,177,608.9,177.5,610.5,177.5z M610.6,166.7
			c-1.3,0-2.5,0.4-3.5,1.3c-1,0.9-1.5,2.1-1.5,3.6c0,0.3,0,0.5,0,0.6l8.4-3.4C613.7,167.4,612.6,166.7,610.6,166.7z M633.9,167.1
			c-1.6,0-2.8,0.6-3.6,1.7c-0.8,1.1-1.2,2.6-1.2,4.5v8.4h-5.4v-19.4h5.4v2.6c0.7-0.8,1.6-1.5,2.6-2s2.1-0.8,3.2-0.9l0,5.1H633.9z
			 M643.9,156.5v5.8h4.7v4.2h-4.7v8.4c0,0.7,0.2,1.3,0.6,1.7c0.4,0.4,0.8,0.6,1.4,0.6c1,0,1.9-0.5,2.6-1.4l2,3.8
			c-1.7,1.5-3.5,2.3-5.3,2.3c-1.9,0-3.4-0.6-4.7-1.8c-1.3-1.2-1.9-2.9-1.9-5v-18.6H643.9z M657.6,172c0,1.6,0.5,2.9,1.3,3.9
			c0.9,1,2.1,1.5,3.5,1.5c1.4,0,2.6-0.5,3.5-1.5c0.9-1,1.4-2.3,1.4-3.9c0-1.6-0.5-2.9-1.4-3.9c-0.9-1-2.1-1.5-3.5-1.5
			c-1.4,0-2.6,0.5-3.5,1.5C658,169.1,657.6,170.4,657.6,172z M672.6,172c0,2.8-1,5.2-2.9,7.1c-1.9,1.9-4.4,2.9-7.3,2.9
			s-5.4-1-7.3-2.9s-2.9-4.3-2.9-7.1s1-5.2,2.9-7.1s4.4-2.9,7.3-2.9s5.4,1,7.3,2.9C671.7,166.8,672.6,169.2,672.6,172z M707.1,164.9
			c0,4-1.6,6.6-4.8,7.8l6.4,9h-6.9l-5.6-8h-3.9v8h-5.6v-25.2h9.5c3.9,0,6.7,0.7,8.4,2S707.1,161.9,707.1,164.9z M696.4,168.8
			c1.9,0,3.2-0.3,3.9-0.9c0.7-0.6,1-1.6,1-3s-0.4-2.3-1.1-2.8c-0.7-0.5-2-0.8-3.8-0.8h-4.2v7.5H696.4z M717.7,181.7h-5.4v-19.4h5.4
			V181.7z M712.7,159.9c-0.6-0.6-0.9-1.4-0.9-2.3c0-0.9,0.3-1.6,0.9-2.2c0.6-0.6,1.4-0.9,2.2-0.9s1.6,0.3,2.2,0.9
			c0.6,0.6,0.9,1.4,0.9,2.2c0,0.9-0.3,1.6-0.9,2.2c-0.6,0.6-1.4,0.9-2.2,0.9S713.4,160.5,712.7,159.9z M732.1,177.2
			c1.8,0,3.4-0.9,4.9-2.7l3.2,3.6c-2.5,2.6-5.2,3.9-8.1,3.9c-2.9,0-5.4-0.9-7.4-2.8c-2-1.8-3-4.2-3-7.2c0-3,1-5.4,3-7.2
			c2-1.9,4.4-2.8,7.2-2.8c1.4,0,2.8,0.3,4.2,0.9c1.4,0.6,2.7,1.4,3.8,2.6l-2.8,3.7c-0.6-0.7-1.4-1.3-2.3-1.7
			c-0.9-0.4-1.8-0.6-2.7-0.6c-1.4,0-2.6,0.5-3.7,1.4c-1,0.9-1.5,2.2-1.5,3.9s0.5,2.9,1.5,3.8S730.7,177.2,732.1,177.2z M748.1,172
			c0,1.6,0.5,2.9,1.4,3.9c0.9,1,2.1,1.5,3.5,1.5s2.6-0.5,3.5-1.5s1.3-2.3,1.3-3.9c0-1.6-0.4-2.9-1.3-3.9c-0.9-1-2.1-1.5-3.5-1.5
			s-2.6,0.5-3.5,1.5C748.5,169.1,748.1,170.4,748.1,172z M763.1,172c0,2.8-1,5.2-2.9,7.1s-4.4,2.9-7.3,2.9s-5.4-1-7.3-2.9
			c-1.9-1.9-2.9-4.3-2.9-7.1s1-5.2,2.9-7.1c1.9-1.9,4.4-2.9,7.3-2.9s5.4,1,7.3,2.9S763.1,169.2,763.1,172z"/>
		<circle id="Oval-3-Copy-14_3_" class="st2" cx="435.7" cy="316.8" r="19.5"/>
		<circle id="Oval-3-Copy-14_5_" class="st2" cx="404.9" cy="404.6" r="19.5"/>
		<circle id="Oval-3-Copy-14_6_" class="st4" cx="379" cy="445.5" r="19.5"/>
		<circle id="Oval-3-Copy-14_11_" class="st4" cx="433.7" cy="364.5" r="19.5"/>
		<circle id="Oval-3-Copy-14_12_" class="st4" cx="137.3" cy="100" r="19.5"/>
		<g id="Group-31" transform="translate(388.548904, 405.857166)">
			<rect id="Rectangle-13-Copy-6" x="15.6" y="-3" width="180" height="43.9"/>
			<path id="Ecuador" class="st5" d="M42,9.4c-2.4,0-3.6,0.7-3.6,2.1c0,1.9,1.6,2.8,4.8,2.8h4v4.8h-4c-2.4,0-4,0.2-4.8,0.7
				c-0.9,0.5-1.3,1.3-1.3,2.4c0,1.9,1.6,2.9,4.8,2.9c1.1,0,2.2-0.2,3.4-0.6c1.2-0.4,2.2-0.9,3.1-1.4l1.5,5c-2.5,1.4-5.3,2.1-8.5,2.1
				c-3.2,0-5.6-0.7-7.4-2c-1.8-1.4-2.6-3.3-2.6-5.8s1.2-4.5,3.5-5.9c-1.6-1.4-2.4-3.1-2.4-5.2s0.8-3.8,2.5-5.1
				c1.6-1.3,3.8-1.9,6.6-1.9c1.1,0,2.3,0.1,3.7,0.4c1.4,0.3,2.5,0.7,3.4,1.1l-1.1,5.1C45.4,9.9,43.6,9.4,42,9.4z M62.9,25.5
				c1.8,0,3.4-0.9,4.9-2.7l3.2,3.6c-2.5,2.6-5.2,3.9-8.1,3.9s-5.4-0.9-7.4-2.8s-3-4.2-3-7.2s1-5.4,3-7.2s4.4-2.8,7.2-2.8
				c1.4,0,2.8,0.3,4.2,0.9s2.7,1.4,3.8,2.6l-2.8,3.7c-0.6-0.7-1.4-1.3-2.3-1.7c-0.9-0.4-1.8-0.6-2.7-0.6c-1.4,0-2.6,0.5-3.7,1.4
				c-1,0.9-1.5,2.2-1.5,3.9s0.5,2.9,1.5,3.8C60.3,25,61.5,25.5,62.9,25.5z M87,21.1V10.6h5.4V30H87v-2.6c-1.3,1.9-3.1,2.8-5.2,2.8
				c-2.1,0-3.9-0.7-5.3-2C75,27,74.3,25,74.3,22.4V10.6h5.4v10.5c0,3,1.1,4.5,3.3,4.5c1.1,0,2-0.4,2.8-1.2
				C86.6,23.7,87,22.6,87,21.1z M99.4,27.5c-1.8-1.8-2.8-4.3-2.8-7.3s0.9-5.4,2.8-7.2s4.1-2.7,6.6-2.7c1.9,0,3.6,0.6,5.1,1.9v-1.6
				h5.4V30h-5.4v-1.6c-1.5,1.2-3.3,1.9-5.3,1.9C103.4,30.3,101.2,29.4,99.4,27.5z M103.4,24.2c0.9,1,2,1.5,3.3,1.5
				c1.2,0,2.3-0.5,3.2-1.5c0.9-1,1.3-2.3,1.3-3.9c0-1.6-0.4-2.9-1.3-3.9s-1.9-1.6-3.2-1.6s-2.4,0.5-3.3,1.6s-1.4,2.4-1.4,3.9
				C102,21.9,102.5,23.2,103.4,24.2z M123.4,27.4c-1.8-1.9-2.7-4.4-2.7-7.2s0.9-5.2,2.6-7.1c1.8-1.8,3.8-2.8,6.2-2.8
				c2.4,0,4.3,0.8,5.8,2.5V3.3h5.4V30h-5.4v-2.6c-1.5,1.9-3.4,2.8-5.7,2.8C127.3,30.3,125.2,29.3,123.4,27.4z M127.6,24.2
				c0.9,1,2,1.5,3.3,1.5c1.2,0,2.3-0.5,3.2-1.5c0.9-1,1.3-2.3,1.3-3.9s-0.4-2.9-1.3-3.9s-1.9-1.6-3.2-1.6s-2.4,0.5-3.3,1.6
				c-0.9,1.1-1.4,2.4-1.4,3.9C126.2,21.9,126.6,23.2,127.6,24.2z M151.5,24.2c0.9,1,2.1,1.5,3.5,1.5s2.6-0.5,3.5-1.5
				c0.9-1,1.4-2.3,1.4-3.9s-0.4-2.9-1.4-3.9c-0.9-1-2.1-1.5-3.5-1.5s-2.6,0.5-3.5,1.5c-0.9,1-1.3,2.3-1.3,3.9S150.6,23.2,151.5,24.2
				z M162.3,27.4c-1.9,1.9-4.4,2.9-7.3,2.9s-5.4-1-7.3-2.9s-2.9-4.3-2.9-7.1s1-5.2,2.9-7.1s4.4-2.9,7.3-2.9s5.4,1,7.3,2.9
				c1.9,1.9,2.9,4.3,2.9,7.1S164.2,25.5,162.3,27.4z M179.4,15.4c-1.6,0-2.8,0.6-3.6,1.7c-0.8,1.1-1.2,2.6-1.2,4.5V30h-5.4V10.6h5.4
				v2.6c0.7-0.8,1.6-1.5,2.6-2s2.1-0.8,3.2-0.9l0,5.1H179.4z"/>
		</g>
		<circle id="Oval-3-Copy-14_7_" class="st6" cx="459.5" cy="540.7" r="19.5"/>
		<g id="Group-26" transform="translate(459.170739, 499.047224)">
			<rect id="Rectangle-13-Copy-10" x="-3" y="0" width="119" height="43.9"/>
			<path id="Per" class="st5" d="M34.6,10.1c1.8,1.5,2.6,3.8,2.6,6.9s-0.9,5.4-2.7,6.8C32.7,25.3,30,26,26.3,26h-3.3v7h-5.6V7.8
				h8.9C30.1,7.8,32.9,8.6,34.6,10.1z M30.5,20c0.7-0.8,1-1.9,1-3.3s-0.4-2.5-1.3-3.1s-2.2-0.9-4.1-0.9h-3.2v8.5h3.8
				C28.6,21.1,29.8,20.7,30.5,20z M50.3,28.9c1,0,2-0.3,3-0.8s1.7-1.2,2.3-2.1l3.1,3.3c-2.5,2.6-5.3,3.9-8.4,3.9s-5.6-0.9-7.4-2.8
				c-1.8-1.9-2.8-4.3-2.8-7.3s1-5.3,3-7.1c2-1.8,4.4-2.7,7-2.7c2.6,0,4.8,0.7,6.6,2.2c1.8,1.5,2.7,3.4,2.9,5.8V22l-12.9,5.3
				C47.6,28.3,48.8,28.9,50.3,28.9z M50.5,18c-1.3,0-2.5,0.4-3.5,1.3c-1,0.9-1.5,2.1-1.5,3.6c0,0.3,0,0.5,0,0.6l8.4-3.4
				C53.6,18.7,52.4,18,50.5,18z M73.7,18.4c-1.6,0-2.8,0.6-3.6,1.7c-0.8,1.1-1.2,2.6-1.2,4.5V33h-5.4V13.6h5.4v2.6
				c0.7-0.8,1.6-1.5,2.6-2s2.1-0.8,3.2-0.9l0,5.1H73.7z M90.8,24.1V13.6h5.4V33h-5.4v-2.6c-1.3,1.9-3.1,2.8-5.2,2.8
				c-2.1,0-3.9-0.7-5.3-2c-1.4-1.3-2.2-3.3-2.2-5.9V13.6h5.4v10.5c0,3,1.1,4.5,3.3,4.5c1.1,0,2-0.4,2.8-1.2
				C90.4,26.7,90.8,25.6,90.8,24.1z M89.4,11h-5.1l4.6-6.4L94.4,7L89.4,11z"/>
		</g>
		<circle id="Oval-3-Copy-14_8_" class="st2" cx="718.2" cy="517" r="19.5"/>
		<g id="Group-16" transform="translate(722.642314, 507.701058)">
			<rect id="Rectangle-13-Copy-11" x="-6.8" y="-32.2" width="130" height="43.9"/>
			<path id="Brasil" class="st5" d="M18.3,0.8h-11v-25.2h9.8c1.7,0,3.2,0.2,4.4,0.6c1.2,0.4,2.2,1,2.8,1.7c1.1,1.3,1.7,2.8,1.7,4.4
				c0,2-0.6,3.4-1.9,4.4c-0.4,0.3-0.7,0.5-0.9,0.6c-0.2,0.1-0.5,0.2-0.9,0.4c1.6,0.3,2.8,1,3.7,2.1c0.9,1.1,1.4,2.4,1.4,4
				c0,1.8-0.6,3.3-1.8,4.6C24.2,0.1,21.8,0.8,18.3,0.8z M12.9-14.1h2.7c1.6,0,2.7-0.2,3.5-0.5c0.8-0.3,1.1-1.1,1.1-2.2
				c0-1.1-0.3-1.9-1-2.2c-0.7-0.4-1.9-0.5-3.5-0.5h-2.7V-14.1z M12.9-3.9h3.9c1.6,0,2.8-0.2,3.6-0.6c0.8-0.4,1.2-1.2,1.2-2.3
				c0-1.2-0.4-1.9-1.3-2.3c-0.9-0.4-2.2-0.6-4.1-0.6h-3.3V-3.9z M41.7-13.8c-1.6,0-2.8,0.6-3.6,1.7S37-9.4,37-7.6v8.4h-5.4v-19.4H37
				v2.6c0.7-0.8,1.6-1.5,2.6-2c1-0.6,2.1-0.8,3.2-0.9l0,5.1H41.7z M48.1-1.7c-1.8-1.8-2.8-4.3-2.8-7.3s0.9-5.4,2.8-7.2
				c1.9-1.8,4.1-2.7,6.6-2.7c1.9,0,3.6,0.6,5.1,1.9v-1.6h5.4V0.8h-5.4v-1.6c-1.5,1.2-3.3,1.9-5.3,1.9C52.2,1.1,50,0.2,48.1-1.7z
				 M52.2-4.9c0.9,1,2,1.5,3.3,1.5c1.2,0,2.3-0.5,3.2-1.5c0.9-1,1.3-2.3,1.3-3.9c0-1.6-0.4-2.9-1.3-3.9s-1.9-1.6-3.2-1.6
				c-1.3,0-2.4,0.5-3.3,1.6c-0.9,1-1.4,2.4-1.4,3.9C50.8-7.2,51.3-5.9,52.2-4.9z M83.1-0.6c-1.4,1.2-3.2,1.7-5.3,1.7
				c-1.4,0-2.9-0.3-4.5-0.8c-1.6-0.5-3-1.3-4.2-2.3l2.4-3.4c2,1.6,4.2,2.3,6.4,2.3c0.7,0,1.2-0.1,1.7-0.4c0.4-0.3,0.6-0.6,0.6-1.1
				c0-0.5-0.3-0.9-0.8-1.3c-0.6-0.4-1.4-0.7-2.4-1.1c-1.1-0.3-1.9-0.6-2.4-0.9s-1.2-0.6-1.9-1c-1.5-0.9-2.2-2.3-2.2-4
				c0-1.8,0.7-3.2,2.2-4.4c1.4-1.1,3.3-1.7,5.6-1.7s4.6,0.8,6.8,2.3l-2,3.6c-1.7-1.2-3.4-1.7-5-1.7c-1.7,0-2.5,0.5-2.5,1.4
				c0,0.5,0.3,0.9,0.8,1.2c0.5,0.3,1.4,0.6,2.6,1c1.2,0.4,2.1,0.7,2.6,0.9c0.5,0.2,1.1,0.5,1.9,1c1.3,0.8,2,2.2,2,4.1
				S84.5-1.8,83.1-0.6z M94.7,0.8h-5.4v-19.4h5.4V0.8z M88.9-23.3c0-0.9,0.3-1.6,0.9-2.2c0.6-0.6,1.4-0.9,2.2-0.9
				c0.9,0,1.6,0.3,2.2,0.9c0.6,0.6,0.9,1.4,0.9,2.2c0,0.9-0.3,1.6-0.9,2.2c-0.6,0.6-1.4,0.9-2.2,0.9c-0.9,0-1.6-0.3-2.2-0.9
				C89.2-21.6,88.9-22.4,88.9-23.3z M105.3-24.3V-6c0,0.7,0.2,1.3,0.6,1.7s0.8,0.6,1.4,0.6c1,0,1.9-0.5,2.6-1.4l2,3.8
				c-1.7,1.5-3.4,2.3-5.3,2.3c-1.9,0-3.4-0.6-4.7-1.8s-1.9-2.9-1.9-5v-18.6H105.3z"/>
		</g>
		<circle id="Oval-3-Copy-14_9_" class="st2" cx="553.6" cy="610.8" r="19.5"/>
		<g id="Group-27" transform="translate(556.597352, 579.163793)">
			<rect id="Rectangle-13-Copy-9" x="-4" y="-10.3" width="158.2" height="43.9"/>
			<path id="Bolivia" class="st5" d="M24.4,22.7h-11V-2.5h9.8c1.7,0,3.2,0.2,4.4,0.6s2.2,1,2.8,1.7C31.5,1.1,32,2.6,32,4.2
				c0,2-0.6,3.4-1.9,4.4c-0.4,0.3-0.7,0.5-0.9,0.6c-0.2,0.1-0.5,0.2-0.9,0.4c1.6,0.3,2.8,1,3.7,2.1c0.9,1.1,1.4,2.4,1.4,4
				c0,1.8-0.6,3.3-1.8,4.6C30.2,21.9,27.8,22.7,24.4,22.7z M19,7.7h2.7c1.6,0,2.7-0.2,3.5-0.5c0.8-0.3,1.1-1.1,1.1-2.2
				s-0.3-1.9-1-2.2c-0.7-0.4-1.9-0.5-3.5-0.5H19V7.7z M19,17.9h3.9c1.6,0,2.8-0.2,3.6-0.6s1.2-1.2,1.2-2.3c0-1.2-0.4-1.9-1.3-2.3
				c-0.9-0.4-2.2-0.6-4.1-0.6H19V17.9z M43.3,16.9c0.9,1,2.1,1.5,3.5,1.5s2.6-0.5,3.5-1.5c0.9-1,1.4-2.3,1.4-3.9s-0.4-2.9-1.4-3.9
				c-0.9-1-2.1-1.5-3.5-1.5s-2.6,0.5-3.5,1.5s-1.3,2.3-1.3,3.9S42.4,15.9,43.3,16.9z M54.1,20.1C52.1,22,49.7,23,46.7,23
				s-5.4-1-7.3-2.9c-1.9-1.9-2.9-4.3-2.9-7.1s1-5.2,2.9-7.1C41.3,4,43.8,3,46.7,3s5.4,1,7.3,2.9C56,7.8,57,10.2,57,13
				S56,18.2,54.1,20.1z M66.4-2.5v18.4c0,0.7,0.2,1.3,0.6,1.7s0.8,0.6,1.4,0.6c1,0,1.9-0.5,2.6-1.4l2,3.8c-1.7,1.5-3.4,2.3-5.3,2.3
				s-3.4-0.6-4.7-1.8c-1.3-1.2-1.9-2.9-1.9-5V-2.5H66.4z M81.2,22.7h-5.4V3.3h5.4V22.7z M75.4-1.4c0-0.9,0.3-1.6,0.9-2.3
				c0.6-0.6,1.4-0.9,2.2-0.9c0.9,0,1.6,0.3,2.2,0.9c0.6,0.6,0.9,1.4,0.9,2.3s-0.3,1.6-0.9,2.2c-0.6,0.6-1.4,0.9-2.2,0.9
				c-0.9,0-1.6-0.3-2.2-0.9C75.7,0.2,75.4-0.5,75.4-1.4z M91.6,22.7L83.9,3.3h5.6l4.8,12.2l4.8-12.2h5.6l-7.7,19.4H91.6z
				 M112.8,22.7h-5.4V3.3h5.4V22.7z M107-1.4c0-0.9,0.3-1.6,0.9-2.3c0.6-0.6,1.4-0.9,2.2-0.9c0.9,0,1.6,0.3,2.2,0.9
				c0.6,0.6,0.9,1.4,0.9,2.3s-0.3,1.6-0.9,2.2c-0.6,0.6-1.4,0.9-2.2,0.9c-0.9,0-1.6-0.3-2.2-0.9C107.3,0.2,107-0.5,107-1.4z
				 M119.8,20.2c-1.8-1.8-2.8-4.3-2.8-7.3s0.9-5.4,2.8-7.2s4.1-2.7,6.6-2.7c1.9,0,3.6,0.6,5.1,1.9V3.3h5.4v19.4h-5.4v-1.6
				c-1.5,1.2-3.3,1.9-5.3,1.9C123.8,23,121.6,22.1,119.8,20.2z M123.8,16.9c0.9,1,2,1.5,3.3,1.5c1.2,0,2.3-0.5,3.2-1.5
				c0.9-1,1.3-2.3,1.3-3.9c0-1.6-0.4-2.9-1.3-3.9c-0.9-1.1-1.9-1.6-3.2-1.6c-1.3,0-2.4,0.5-3.3,1.6s-1.4,2.4-1.4,3.9
				C122.4,14.6,122.9,15.9,123.8,16.9z"/>
		</g>
		<circle id="Oval-3-Copy-14_10_" class="st4" cx="459.5" cy="816.5" r="19.5"/>
		<g id="Group-29" transform="translate(458.875087, 794.516018)">
			<rect id="Rectangle-13-Copy-8" x="0" y="-19.5" width="127" height="43.9"/>
			<path id="Chile" class="st5" d="M29.1,8.5c2.8,0,5-1.1,6.8-3.3l3.6,3.7c-2.9,3.2-6.2,4.8-10.1,4.8s-7.1-1.2-9.6-3.7
				S16,4.5,16,0.8s1.3-6.8,3.8-9.3s5.7-3.7,9.4-3.7c4.1,0,7.6,1.6,10.4,4.7l-3.5,4c-1.8-2.2-4-3.3-6.6-3.3c-2.1,0-3.9,0.7-5.4,2.1
				s-2.2,3.2-2.2,5.6s0.7,4.2,2.1,5.6C25.4,7.8,27.1,8.5,29.1,8.5z M48.7,3v10.4h-5.4v-26.7h5.4v9.5c1.6-1.7,3.5-2.5,5.5-2.5
				c2,0,3.7,0.7,5.1,2.2c1.4,1.4,2.1,3.4,2.1,5.8v11.8h-5.4V2.9c0-3-1.1-4.5-3.3-4.5c-1.1,0-2,0.4-2.8,1.2S48.7,1.5,48.7,3z
				 M71.7,13.5h-5.4V-5.9h5.4V13.5z M65.9-10.6c0-0.9,0.3-1.6,0.9-2.2c0.6-0.6,1.4-0.9,2.2-0.9c0.9,0,1.6,0.3,2.2,0.9
				c0.6,0.6,0.9,1.4,0.9,2.2c0,0.9-0.3,1.6-0.9,2.2c-0.6,0.6-1.4,0.9-2.2,0.9c-0.9,0-1.6-0.3-2.2-0.9C66.2-9,65.9-9.7,65.9-10.6z
				 M82.3-11.7V6.7c0,0.7,0.2,1.3,0.6,1.7S83.7,9,84.2,9c1,0,1.9-0.5,2.6-1.4l2,3.8c-1.7,1.5-3.4,2.3-5.3,2.3s-3.4-0.6-4.7-1.8
				c-1.3-1.2-1.9-2.9-1.9-5v-18.6H82.3z M100.9,9.3c1,0,2-0.3,3-0.8c1-0.5,1.7-1.2,2.3-2.1l3.1,3.3c-2.5,2.6-5.3,3.9-8.4,3.9
				s-5.6-0.9-7.4-2.8c-1.8-1.9-2.8-4.3-2.8-7.3s1-5.3,3-7.1s4.4-2.7,7-2.7s4.8,0.7,6.6,2.2s2.7,3.4,2.9,5.8v0.7L97.4,7.8
				C98.2,8.8,99.4,9.3,100.9,9.3z M101.1-1.6c-1.3,0-2.5,0.4-3.5,1.3S96,1.8,96,3.3c0,0.3,0,0.5,0,0.6l8.4-3.4
				C104.2-0.8,103-1.6,101.1-1.6z"/>
		</g>
		<g id="Group-32" transform="translate(445.838114, 309.500000)">
			<rect id="Rectangle-13-Copy-5" x="-11.2" y="11.1" width="209" height="43.9"/>
			<path id="Colombia" class="st5" d="M16.9,39.1c2.8,0,5-1.1,6.8-3.3l3.6,3.7c-2.9,3.2-6.2,4.8-10.1,4.8s-7.1-1.2-9.6-3.7
				c-2.5-2.4-3.8-5.5-3.8-9.3s1.3-6.8,3.8-9.3s5.7-3.7,9.4-3.7c4.1,0,7.6,1.6,10.4,4.7l-3.5,4c-1.8-2.2-4-3.3-6.6-3.3
				c-2.1,0-3.9,0.7-5.4,2.1S9.6,29,9.6,31.4s0.7,4.2,2.1,5.6C13.2,38.4,14.9,39.1,16.9,39.1z M36.8,38.3c0.9,1,2.1,1.5,3.5,1.5
				s2.6-0.5,3.5-1.5c0.9-1,1.4-2.3,1.4-3.9s-0.4-2.9-1.4-3.9S41.7,29,40.3,29s-2.6,0.5-3.5,1.5s-1.4,2.3-1.4,3.9
				S35.9,37.3,36.8,38.3z M47.6,41.5c-1.9,1.9-4.4,2.9-7.3,2.9c-2.9,0-5.4-1-7.3-2.9c-1.9-1.9-2.9-4.3-2.9-7.1s1-5.2,2.9-7.1
				c1.9-1.9,4.4-2.9,7.3-2.9c2.9,0,5.4,1,7.3,2.9c1.9,1.9,2.9,4.3,2.9,7.1S49.6,39.6,47.6,41.5z M60,18.9v18.4
				c0,0.7,0.2,1.3,0.6,1.7s0.8,0.6,1.4,0.6c1,0,1.9-0.5,2.6-1.4l2,3.8c-1.7,1.5-3.4,2.3-5.3,2.3s-3.4-0.6-4.7-1.8s-1.9-2.9-1.9-5
				V18.9H60z M75.1,38.3c0.9,1,2.1,1.5,3.5,1.5s2.6-0.5,3.5-1.5c0.9-1,1.3-2.3,1.3-3.9s-0.4-2.9-1.3-3.9c-0.9-1-2.1-1.5-3.5-1.5
				s-2.6,0.5-3.5,1.5c-0.9,1-1.3,2.3-1.3,3.9S74.2,37.3,75.1,38.3z M85.9,41.5c-1.9,1.9-4.4,2.9-7.3,2.9s-5.4-1-7.3-2.9
				c-1.9-1.9-2.9-4.3-2.9-7.1s1-5.2,2.9-7.1c1.9-1.9,4.4-2.9,7.3-2.9s5.4,1,7.3,2.9c1.9,1.9,2.9,4.3,2.9,7.1S87.8,39.6,85.9,41.5z
				 M110.6,33.7v10.4h-5.4V33.5c0-1.5-0.2-2.7-0.7-3.4s-1.2-1.1-2.3-1.1c-1,0-2,0.4-2.8,1.2c-0.8,0.8-1.2,1.9-1.2,3.4v10.4h-5.4
				V24.7h5.4v2.2c1.5-1.7,3.2-2.5,5.1-2.5c1.2,0,2.3,0.4,3.3,1.1c1,0.7,1.7,1.6,2.2,2.6c0.7-1.2,1.7-2.1,3-2.7c1.3-0.6,2.5-1,3.8-1
				c2.3,0,4.1,0.7,5.5,2c1.4,1.4,2.1,3.3,2.1,5.9v11.8h-5.4V33.5c0-3-1.1-4.5-3.3-4.5c-1.1,0-2,0.4-2.8,1.2
				C110.9,31,110.6,32.2,110.6,33.7z M145.5,27.2c1.8,1.8,2.6,4.2,2.6,7.1c0,2.9-0.9,5.3-2.7,7.2c-1.8,1.9-3.8,2.9-6.1,2.9
				c-2.3,0-4.2-0.9-5.7-2.8v2.6h-5.4V17.4h5.4v9.5c1.5-1.7,3.4-2.5,5.8-2.5C141.7,24.4,143.7,25.3,145.5,27.2z M134.8,38.3
				c0.9,1,1.9,1.5,3.2,1.5c1.2,0,2.3-0.5,3.3-1.5c0.9-1,1.4-2.3,1.4-3.8c0-1.6-0.5-2.9-1.4-3.9c-0.9-1.1-2-1.6-3.3-1.6
				c-1.3,0-2.3,0.5-3.2,1.6c-0.9,1-1.3,2.4-1.3,3.9C133.5,36,133.9,37.3,134.8,38.3z M157.5,44.1h-5.4V24.7h5.4V44.1z M151.7,20
				c0-0.9,0.3-1.6,0.9-2.3c0.6-0.6,1.4-0.9,2.2-0.9s1.6,0.3,2.2,0.9c0.6,0.6,0.9,1.4,0.9,2.3c0,0.9-0.3,1.6-0.9,2.2
				c-0.6,0.6-1.4,0.9-2.2,0.9s-1.6-0.3-2.2-0.9C152,21.7,151.7,20.9,151.7,20z M164.4,41.6c-1.8-1.8-2.8-4.3-2.8-7.3
				c0-3,0.9-5.4,2.8-7.2c1.9-1.8,4.1-2.7,6.6-2.7c1.9,0,3.6,0.6,5.1,1.9v-1.6h5.4v19.4h-5.4v-1.6c-1.5,1.2-3.3,1.9-5.3,1.9
				C168.5,44.4,166.3,43.5,164.4,41.6z M168.5,38.3c0.9,1,2,1.5,3.3,1.5c1.2,0,2.3-0.5,3.2-1.5c0.9-1,1.3-2.3,1.3-3.9
				s-0.4-2.9-1.3-3.9c-0.9-1.1-1.9-1.6-3.2-1.6s-2.4,0.5-3.3,1.6s-1.4,2.4-1.4,3.9C167.1,36,167.6,37.3,168.5,38.3z"/>
		</g>
		<circle id="Oval-3-Copy-14_4_" class="st2" cx="429.3" cy="503.7" r="19.5"/>
		<g id="Group-30" transform="translate(138.060933, 102.462959)">
			<rect id="Rectangle-13-Copy-7" x="-2" y="-2" width="165" height="43.9"/>
			<path id="Mxico" class="st5" d="M34.2,16v15h-5.6V16.3c0-3.9-1.2-5.9-3.6-5.9c-1.2,0-2.1,0.4-2.9,1.3c-0.8,0.9-1.2,2.2-1.2,4
				V31h-5.6V5.8H21v2c1.3-1.7,2.9-2.6,4.9-2.6c1.5,0,2.8,0.5,3.9,1.5s1.7,2.1,2,3.2c0.2-0.4,0.5-0.9,0.9-1.5
				c0.5-0.6,0.9-1.1,1.4-1.5c0.5-0.4,1.2-0.8,2-1.1c0.9-0.3,1.8-0.5,2.7-0.5c2.8,0,4.9,0.9,6.5,2.7c1.5,1.8,2.3,4.1,2.3,7V31h-5.7
				V15.9c0-3.6-1.2-5.5-3.7-5.5c-1.2,0-2.2,0.5-2.9,1.4S34.2,14.1,34.2,16z M63.9,9h-5.1l4.6-6.4L68.9,5L63.9,9z M62,26.9
				c1,0,2-0.3,3-0.8c1-0.5,1.7-1.2,2.3-2.1l3.1,3.3c-2.5,2.6-5.3,3.9-8.4,3.9c-3.1,0-5.6-0.9-7.4-2.8c-1.8-1.9-2.8-4.3-2.8-7.3
				s1-5.3,3-7.1c2-1.8,4.4-2.7,7-2.7s4.8,0.7,6.6,2.2s2.7,3.4,2.9,5.8V20l-12.9,5.3C59.3,26.3,60.5,26.9,62,26.9z M62.2,16
				c-1.3,0-2.5,0.4-3.5,1.3s-1.5,2.1-1.5,3.6c0,0.3,0,0.5,0,0.6l8.4-3.4C65.3,16.7,64.1,16,62.2,16z M80,11.6l3.3,5.2l3.4-5.2H93
				l-6.7,9.5l6.9,9.9h-6.4l-3.8-5.3L79.4,31h-6.2l6.8-9.9l-6.4-9.5H80z M101.7,31h-5.4V11.6h5.4V31z M95.8,6.9
				c0-0.9,0.3-1.6,0.9-2.3c0.6-0.6,1.4-0.9,2.2-0.9c0.9,0,1.6,0.3,2.2,0.9c0.6,0.6,0.9,1.4,0.9,2.3c0,0.9-0.3,1.6-0.9,2.2
				c-0.6,0.6-1.4,0.9-2.2,0.9c-0.9,0-1.6-0.3-2.2-0.9C96.1,8.6,95.8,7.8,95.8,6.9z M116.1,26.5c1.8,0,3.4-0.9,4.9-2.7l3.2,3.6
				c-2.5,2.6-5.2,3.9-8.1,3.9s-5.4-0.9-7.4-2.8c-2-1.8-3-4.2-3-7.2s1-5.4,3-7.2c2-1.9,4.4-2.8,7.2-2.8c1.4,0,2.8,0.3,4.2,0.9
				c1.4,0.6,2.7,1.4,3.8,2.6l-2.8,3.7c-0.6-0.7-1.4-1.3-2.3-1.7c-0.9-0.4-1.8-0.6-2.7-0.6c-1.4,0-2.6,0.5-3.7,1.4
				c-1,0.9-1.5,2.2-1.5,3.9s0.5,2.9,1.5,3.8C113.5,26,114.7,26.5,116.1,26.5z M133.4,25.2c0.9,1,2.1,1.5,3.5,1.5s2.6-0.5,3.5-1.5
				c0.9-1,1.3-2.3,1.3-3.9s-0.4-2.9-1.3-3.9c-0.9-1-2.1-1.5-3.5-1.5s-2.6,0.5-3.5,1.5c-0.9,1-1.4,2.3-1.4,3.9S132.5,24.2,133.4,25.2
				z M144.2,28.4c-1.9,1.9-4.4,2.9-7.3,2.9s-5.4-1-7.3-2.9c-1.9-1.9-2.9-4.3-2.9-7.1s1-5.2,2.9-7.1c1.9-1.9,4.4-2.9,7.3-2.9
				s5.4,1,7.3,2.9s2.9,4.3,2.9,7.1S146.2,26.5,144.2,28.4z"/>
		</g>
	</g>
</g>
</svg>
